<svg width="842" height="596" viewBox="0 0 842 596" fill="none" xmlns="http://www.w3.org/2000/svg">
<path d="M299.16 238.68H299.28" stroke="black" stroke-width="0.375" stroke-linecap="round" stroke-linejoin="round"/>
<path d="M280.8 238.68H280.92" stroke="black" stroke-width="0.375" stroke-linecap="round" stroke-linejoin="round"/>
<path d="M299.16 238.68C299.16 243.72 295.08 247.8 290.04 247.8C285 247.8 280.8 243.72 280.8 238.68" stroke="black" stroke-width="0.375" stroke-linecap="round" stroke-linejoin="round"/>
<path d="M280.8 238.68C280.8 233.52 285 229.44 290.04 229.44C295.08 229.44 299.16 233.52 299.16 238.68" stroke="black" stroke-width="0.375" stroke-linecap="round" stroke-linejoin="round"/>
<path d="M299.16 95.28H299.28" stroke="black" stroke-width="0.375" stroke-linecap="round" stroke-linejoin="round"/>
<path d="M280.8 95.28H280.92" stroke="black" stroke-width="0.375" stroke-linecap="round" stroke-linejoin="round"/>
<path d="M299.16 95.28C299.16 100.32 295.08 104.4 290.04 104.4C285 104.4 280.8 100.32 280.8 95.28" stroke="black" stroke-width="0.375" stroke-linecap="round" stroke-linejoin="round"/>
<path d="M280.8 95.28C280.8 90.24 285 86.16 290.04 86.16C295.08 86.16 299.16 90.24 299.16 95.28" stroke="black" stroke-width="0.375" stroke-linecap="round" stroke-linejoin="round"/>
<path d="M379.08 124.92C379.08 127.2 377.16 129.12 374.88 129.12C372.48 129.12 370.56 127.2 370.56 124.92" stroke="black" stroke-width="0.375" stroke-linecap="round" stroke-linejoin="round"/>
<path d="M370.56 124.92C370.56 122.64 372.48 120.72 374.88 120.72C377.16 120.72 379.08 122.64 379.08 124.92" stroke="black" stroke-width="0.375" stroke-linecap="round" stroke-linejoin="round"/>
<path d="M452.16 124.92H452.28" stroke="black" stroke-width="0.375" stroke-linecap="round" stroke-linejoin="round"/>
<path d="M460.68 124.92C460.68 127.2 458.76 129.12 456.48 129.12C454.08 129.12 452.16 127.2 452.16 124.92" stroke="black" stroke-width="0.375" stroke-linecap="round" stroke-linejoin="round"/>
<path d="M452.16 124.92C452.16 122.64 454.08 120.72 456.48 120.72C458.76 120.72 460.68 122.64 460.68 124.92" stroke="black" stroke-width="0.375" stroke-linecap="round" stroke-linejoin="round"/>
<path d="M299.16 346.08H299.28" stroke="black" stroke-width="0.375" stroke-linecap="round" stroke-linejoin="round"/>
<path d="M280.8 346.08H280.92" stroke="black" stroke-width="0.375" stroke-linecap="round" stroke-linejoin="round"/>
<path d="M299.16 346.08C299.16 351.24 295.08 355.32 290.04 355.32C285 355.32 280.8 351.24 280.8 346.08" stroke="black" stroke-width="0.375" stroke-linecap="round" stroke-linejoin="round"/>
<path d="M280.8 346.08C280.8 341.04 285 336.96 290.04 336.96C295.08 336.96 299.16 341.04 299.16 346.08" stroke="black" stroke-width="0.375" stroke-linecap="round" stroke-linejoin="round"/>
<path d="M299.16 310.32H299.28" stroke="black" stroke-width="0.375" stroke-linecap="round" stroke-linejoin="round"/>
<path d="M280.8 310.32H280.92" stroke="black" stroke-width="0.375" stroke-linecap="round" stroke-linejoin="round"/>
<path d="M299.16 310.32C299.16 315.36 295.08 319.44 290.04 319.44C285 319.44 280.8 315.36 280.8 310.32" stroke="black" stroke-width="0.375" stroke-linecap="round" stroke-linejoin="round"/>
<path d="M280.8 310.32C280.8 305.28 285 301.08 290.04 301.08C295.08 301.08 299.16 305.28 299.16 310.32" stroke="black" stroke-width="0.375" stroke-linecap="round" stroke-linejoin="round"/>
<path d="M299.16 202.8H299.28" stroke="black" stroke-width="0.375" stroke-linecap="round" stroke-linejoin="round"/>
<path d="M280.8 202.8H280.92" stroke="black" stroke-width="0.375" stroke-linecap="round" stroke-linejoin="round"/>
<path d="M299.16 202.8C299.16 207.84 295.08 211.92 290.04 211.92C285 211.92 280.8 207.84 280.8 202.8" stroke="black" stroke-width="0.375" stroke-linecap="round" stroke-linejoin="round"/>
<path d="M280.8 202.8C280.8 197.76 285 193.68 290.04 193.68C295.08 193.68 299.16 197.76 299.16 202.8" stroke="black" stroke-width="0.375" stroke-linecap="round" stroke-linejoin="round"/>
<path d="M299.16 166.92H299.28" stroke="black" stroke-width="0.375" stroke-linecap="round" stroke-linejoin="round"/>
<path d="M280.8 166.92H280.92" stroke="black" stroke-width="0.375" stroke-linecap="round" stroke-linejoin="round"/>
<path d="M299.16 166.92C299.16 172.08 295.08 176.16 290.04 176.16C285 176.16 280.8 172.08 280.8 166.92" stroke="black" stroke-width="0.375" stroke-linecap="round" stroke-linejoin="round"/>
<path d="M280.8 166.92C280.8 161.88 285 157.8 290.04 157.8C295.08 157.8 299.16 161.88 299.16 166.92" stroke="black" stroke-width="0.375" stroke-linecap="round" stroke-linejoin="round"/>
<path d="M299.16 131.16H299.28" stroke="black" stroke-width="0.375" stroke-linecap="round" stroke-linejoin="round"/>
<path d="M280.8 131.16H280.92" stroke="black" stroke-width="0.375" stroke-linecap="round" stroke-linejoin="round"/>
<path d="M299.16 131.16C299.16 136.2 295.08 140.28 290.04 140.28C285 140.28 280.8 136.2 280.8 131.16" stroke="black" stroke-width="0.375" stroke-linecap="round" stroke-linejoin="round"/>
<path d="M280.8 131.16C280.8 126 285 121.92 290.04 121.92C295.08 121.92 299.16 126 299.16 131.16" stroke="black" stroke-width="0.375" stroke-linecap="round" stroke-linejoin="round"/>
<path d="M361.68 140.16V124.68" stroke="black" stroke-width="0.375" stroke-linecap="round" stroke-linejoin="round"/>
<path d="M347.52 140.16V124.68" stroke="black" stroke-width="0.375" stroke-linecap="round" stroke-linejoin="round"/>
<path d="M361.68 140.16C361.68 144 358.56 147.24 354.6 147.24C350.76 147.24 347.52 144 347.52 140.16" stroke="black" stroke-width="0.375" stroke-linecap="round" stroke-linejoin="round"/>
<path d="M347.52 124.68C347.52 120.72 350.76 117.6 354.6 117.6C358.56 117.6 361.68 120.72 361.68 124.68" stroke="black" stroke-width="0.375" stroke-linecap="round" stroke-linejoin="round"/>
<path d="M361.68 77.64V69.24" stroke="black" stroke-width="0.375" stroke-linecap="round" stroke-linejoin="round"/>
<path d="M347.52 77.64V69.24" stroke="black" stroke-width="0.375" stroke-linecap="round" stroke-linejoin="round"/>
<path d="M361.68 77.64C361.68 81.6 358.56 84.72 354.6 84.72C350.76 84.72 347.52 81.6 347.52 77.64" stroke="black" stroke-width="0.375" stroke-linecap="round" stroke-linejoin="round"/>
<path d="M347.52 69.24C347.52 65.28 350.76 62.16 354.6 62.16C358.56 62.16 361.68 65.28 361.68 69.24" stroke="black" stroke-width="0.375" stroke-linecap="round" stroke-linejoin="round"/>
<path d="M299.16 274.44H299.28" stroke="black" stroke-width="0.375" stroke-linecap="round" stroke-linejoin="round"/>
<path d="M280.8 274.44H280.92" stroke="black" stroke-width="0.375" stroke-linecap="round" stroke-linejoin="round"/>
<path d="M299.16 274.44C299.16 279.48 295.08 283.68 290.04 283.68C285 283.68 280.8 279.48 280.8 274.44" stroke="black" stroke-width="0.375" stroke-linecap="round" stroke-linejoin="round"/>
<path d="M280.8 274.44C280.8 269.4 285 265.32 290.04 265.32C295.08 265.32 299.16 269.4 299.16 274.44" stroke="black" stroke-width="0.375" stroke-linecap="round" stroke-linejoin="round"/>
<path d="M550.32 238.68C550.32 243.72 546.24 247.8 541.08 247.8C536.04 247.8 531.96 243.72 531.96 238.68" stroke="black" stroke-width="0.375" stroke-linecap="round" stroke-linejoin="round"/>
<path d="M531.96 238.68C531.96 233.52 536.04 229.44 541.08 229.44C546.24 229.44 550.32 233.52 550.32 238.68" stroke="black" stroke-width="0.375" stroke-linecap="round" stroke-linejoin="round"/>
<path d="M550.32 95.28C550.32 100.32 546.24 104.4 541.08 104.4C536.04 104.4 531.96 100.32 531.96 95.28" stroke="black" stroke-width="0.375" stroke-linecap="round" stroke-linejoin="round"/>
<path d="M531.96 95.28C531.96 90.24 536.04 86.16 541.08 86.16C546.24 86.16 550.32 90.24 550.32 95.28" stroke="black" stroke-width="0.375" stroke-linecap="round" stroke-linejoin="round"/>
<path d="M483.72 140.16V124.68" stroke="black" stroke-width="0.375" stroke-linecap="round" stroke-linejoin="round"/>
<path d="M469.56 140.16V124.68" stroke="black" stroke-width="0.375" stroke-linecap="round" stroke-linejoin="round"/>
<path d="M483.72 140.16C483.72 144 480.6 147.24 476.64 147.24C472.8 147.24 469.56 144 469.56 140.16" stroke="black" stroke-width="0.375" stroke-linecap="round" stroke-linejoin="round"/>
<path d="M469.56 124.68C469.56 120.72 472.8 117.6 476.64 117.6C480.6 117.6 483.72 120.72 483.72 124.68" stroke="black" stroke-width="0.375" stroke-linecap="round" stroke-linejoin="round"/>
<path d="M483.72 77.64V69.24" stroke="black" stroke-width="0.375" stroke-linecap="round" stroke-linejoin="round"/>
<path d="M469.56 77.64V69.24" stroke="black" stroke-width="0.375" stroke-linecap="round" stroke-linejoin="round"/>
<path d="M483.72 77.64C483.72 81.6 480.6 84.72 476.64 84.72C472.8 84.72 469.56 81.6 469.56 77.64" stroke="black" stroke-width="0.375" stroke-linecap="round" stroke-linejoin="round"/>
<path d="M469.56 69.24C469.56 65.28 472.8 62.16 476.64 62.16C480.6 62.16 483.72 65.28 483.72 69.24" stroke="black" stroke-width="0.375" stroke-linecap="round" stroke-linejoin="round"/>
<path d="M550.32 346.08C550.32 351.24 546.24 355.32 541.08 355.32C536.04 355.32 531.96 351.24 531.96 346.08" stroke="black" stroke-width="0.375" stroke-linecap="round" stroke-linejoin="round"/>
<path d="M531.96 346.08C531.96 341.04 536.04 336.96 541.08 336.96C546.24 336.96 550.32 341.04 550.32 346.08" stroke="black" stroke-width="0.375" stroke-linecap="round" stroke-linejoin="round"/>
<path d="M550.32 310.32C550.32 315.36 546.24 319.44 541.08 319.44C536.04 319.44 531.96 315.36 531.96 310.32" stroke="black" stroke-width="0.375" stroke-linecap="round" stroke-linejoin="round"/>
<path d="M531.96 310.32C531.96 305.28 536.04 301.08 541.08 301.08C546.24 301.08 550.32 305.28 550.32 310.32" stroke="black" stroke-width="0.375" stroke-linecap="round" stroke-linejoin="round"/>
<path d="M550.32 202.8C550.32 207.84 546.24 211.92 541.08 211.92C536.04 211.92 531.96 207.84 531.96 202.8" stroke="black" stroke-width="0.375" stroke-linecap="round" stroke-linejoin="round"/>
<path d="M531.96 202.8C531.96 197.76 536.04 193.68 541.08 193.68C546.24 193.68 550.32 197.76 550.32 202.8" stroke="black" stroke-width="0.375" stroke-linecap="round" stroke-linejoin="round"/>
<path d="M550.32 166.92C550.32 172.08 546.24 176.16 541.08 176.16C536.04 176.16 531.96 172.08 531.96 166.92" stroke="black" stroke-width="0.375" stroke-linecap="round" stroke-linejoin="round"/>
<path d="M531.96 166.92C531.96 161.88 536.04 157.8 541.08 157.8C546.24 157.8 550.32 161.88 550.32 166.92" stroke="black" stroke-width="0.375" stroke-linecap="round" stroke-linejoin="round"/>
<path d="M550.32 131.16C550.32 136.2 546.24 140.28 541.08 140.28C536.04 140.28 531.96 136.2 531.96 131.16" stroke="black" stroke-width="0.375" stroke-linecap="round" stroke-linejoin="round"/>
<path d="M531.96 131.16C531.96 126 536.04 121.92 541.08 121.92C546.24 121.92 550.32 126 550.32 131.16" stroke="black" stroke-width="0.375" stroke-linecap="round" stroke-linejoin="round"/>
<path d="M550.32 274.44C550.32 279.48 546.24 283.68 541.08 283.68C536.04 283.68 531.96 279.48 531.96 274.44" stroke="black" stroke-width="0.375" stroke-linecap="round" stroke-linejoin="round"/>
<path d="M531.96 274.44C531.96 269.4 536.04 265.32 541.08 265.32C546.24 265.32 550.32 269.4 550.32 274.44" stroke="black" stroke-width="0.375" stroke-linecap="round" stroke-linejoin="round"/>
<path d="M328.68 118.32L327.72 117.36H322.08L321.12 118.32V122.88L322.08 123.84H327.72L328.68 122.88V118.32Z" stroke="black" stroke-width="0.375" stroke-linecap="round" stroke-linejoin="round"/>
<path d="M321.12 72.96L322.08 73.92H327.72L328.68 72.96V68.4L327.72 67.44H322.08L321.12 68.4V72.96Z" stroke="black" stroke-width="0.375" stroke-linecap="round" stroke-linejoin="round"/>
<path d="M357.72 318.48L356.28 319.92V328.32L357.72 329.76H360.48L361.92 328.32V319.92L360.48 318.48H357.72Z" stroke="black" stroke-width="0.375" stroke-linecap="round" stroke-linejoin="round"/>
<path d="M346.44 318.48L345 319.92V328.32L346.44 329.76H349.2L350.64 328.32V319.92L349.2 318.48H346.44Z" stroke="black" stroke-width="0.375" stroke-linecap="round" stroke-linejoin="round"/>
<path d="M360.48 191.52L361.92 190.08V181.68L360.48 180.24H357.72L356.28 181.68V190.08L357.72 191.52H360.48Z" stroke="black" stroke-width="0.375" stroke-linecap="round" stroke-linejoin="round"/>
<path d="M349.2 191.52L350.64 190.08V181.68L349.2 180.24H346.44L345 181.68V190.08L346.44 191.52H349.2Z" stroke="black" stroke-width="0.375" stroke-linecap="round" stroke-linejoin="round"/>
<path d="M380.28 318.48L378.84 319.92V328.32L380.28 329.76H383.16L384.48 328.32V319.92L383.16 318.48H380.28Z" stroke="black" stroke-width="0.375" stroke-linecap="round" stroke-linejoin="round"/>
<path d="M369 318.48L367.56 319.92V328.32L369 329.76H371.76L373.2 328.32V319.92L371.76 318.48H369Z" stroke="black" stroke-width="0.375" stroke-linecap="round" stroke-linejoin="round"/>
<path d="M383.16 191.52L384.48 190.08V181.68L383.16 180.24H380.28L378.84 181.68V190.08L380.28 191.52H383.16Z" stroke="black" stroke-width="0.375" stroke-linecap="round" stroke-linejoin="round"/>
<path d="M371.76 191.52L373.2 190.08V181.68L371.76 180.24H369L367.56 181.68V190.08L369 191.52H371.76Z" stroke="black" stroke-width="0.375" stroke-linecap="round" stroke-linejoin="round"/>
<path d="M414.12 318.48L412.8 319.92V328.32L414.12 329.76H417L418.44 328.32V319.92L417 318.48H414.12Z" stroke="black" stroke-width="0.375" stroke-linecap="round" stroke-linejoin="round"/>
<path d="M402.84 318.48L401.52 319.92V328.32L402.84 329.76H405.72L407.16 328.32V319.92L405.72 318.48H402.84Z" stroke="black" stroke-width="0.375" stroke-linecap="round" stroke-linejoin="round"/>
<path d="M417 191.52L418.44 190.08V181.68L417 180.24H414.12L412.8 181.68V190.08L414.12 191.52H417Z" stroke="black" stroke-width="0.375" stroke-linecap="round" stroke-linejoin="round"/>
<path d="M405.72 191.52L407.16 190.08V181.68L405.72 180.24H402.84L401.52 181.68V190.08L402.84 191.52H405.72Z" stroke="black" stroke-width="0.375" stroke-linecap="round" stroke-linejoin="round"/>
<path d="M436.8 318.48L435.36 319.92V328.32L436.8 329.76H439.56L441 328.32V319.92L439.56 318.48H436.8Z" stroke="black" stroke-width="0.375" stroke-linecap="round" stroke-linejoin="round"/>
<path d="M425.52 318.48L424.08 319.92V328.32L425.52 329.76H428.28L429.72 328.32V319.92L428.28 318.48H425.52Z" stroke="black" stroke-width="0.375" stroke-linecap="round" stroke-linejoin="round"/>
<path d="M439.56 191.52L441 190.08V181.68L439.56 180.24H436.8L435.36 181.68V190.08L436.8 191.52H439.56Z" stroke="black" stroke-width="0.375" stroke-linecap="round" stroke-linejoin="round"/>
<path d="M428.28 191.52L429.72 190.08V181.68L428.28 180.24H425.52L424.08 181.68V190.08L425.52 191.52H428.28Z" stroke="black" stroke-width="0.375" stroke-linecap="round" stroke-linejoin="round"/>
<path d="M470.64 318.48L469.2 319.92V328.32L470.64 329.76H473.52L474.84 328.32V319.92L473.52 318.48H470.64Z" stroke="black" stroke-width="0.375" stroke-linecap="round" stroke-linejoin="round"/>
<path d="M459.36 318.48L457.92 319.92V328.32L459.36 329.76H462.24L463.56 328.32V319.92L462.24 318.48H459.36Z" stroke="black" stroke-width="0.375" stroke-linecap="round" stroke-linejoin="round"/>
<path d="M473.52 191.52L474.84 190.08V181.68L473.52 180.24H470.64L469.2 181.68V190.08L470.64 191.52H473.52Z" stroke="black" stroke-width="0.375" stroke-linecap="round" stroke-linejoin="round"/>
<path d="M462.24 191.52L463.56 190.08V181.68L462.24 180.24H459.36L457.92 181.68V190.08L459.36 191.52H462.24Z" stroke="black" stroke-width="0.375" stroke-linecap="round" stroke-linejoin="round"/>
<path d="M481.92 318.48L480.6 319.92V328.32L481.92 329.76H484.8L486.24 328.32V319.92L484.8 318.48H481.92Z" stroke="black" stroke-width="0.375" stroke-linecap="round" stroke-linejoin="round"/>
<path d="M494.64 327.24L497.16 329.76H502.08L504.6 327.24V322.32L502.08 319.92H497.16L494.64 322.32V327.24Z" stroke="black" stroke-width="0.375" stroke-linecap="round" stroke-linejoin="round"/>
<path d="M493.2 301.56L494.64 303H503.16L504.6 301.56V298.68L503.16 297.36H494.64L493.2 298.68V301.56Z" stroke="black" stroke-width="0.375" stroke-linecap="round" stroke-linejoin="round"/>
<path d="M493.2 290.28L494.64 291.72H503.16L504.6 290.28V287.4L503.16 286.08H494.64L493.2 287.4V290.28Z" stroke="black" stroke-width="0.375" stroke-linecap="round" stroke-linejoin="round"/>
<path d="M493.2 267.72L494.64 269.04H503.16L504.6 267.72V264.84L503.16 263.4H494.64L493.2 264.84V267.72Z" stroke="black" stroke-width="0.375" stroke-linecap="round" stroke-linejoin="round"/>
<path d="M493.2 256.44L494.64 257.76H503.16L504.6 256.44V253.56L503.16 252.12H494.64L493.2 253.56V256.44Z" stroke="black" stroke-width="0.375" stroke-linecap="round" stroke-linejoin="round"/>
<path d="M493.2 245.16L494.64 246.48H503.16L504.6 245.16V242.28L503.16 240.84H494.64L493.2 242.28V245.16Z" stroke="black" stroke-width="0.375" stroke-linecap="round" stroke-linejoin="round"/>
<path d="M493.2 233.88L494.64 235.2H503.16L504.6 233.88V231L503.16 229.56H494.64L493.2 231V233.88Z" stroke="black" stroke-width="0.375" stroke-linecap="round" stroke-linejoin="round"/>
<path d="M493.2 211.2L494.64 212.64H503.16L504.6 211.2V208.44L503.16 207H494.64L493.2 208.44V211.2Z" stroke="black" stroke-width="0.375" stroke-linecap="round" stroke-linejoin="round"/>
<path d="M493.2 199.92L494.64 201.36H503.16L504.6 199.92V197.16L503.16 195.72H494.64L493.2 197.16V199.92Z" stroke="black" stroke-width="0.375" stroke-linecap="round" stroke-linejoin="round"/>
<path d="M494.64 187.68L497.16 190.08H502.08L504.6 187.68V182.64L502.08 180.24H497.16L494.64 182.64V187.68Z" stroke="black" stroke-width="0.375" stroke-linecap="round" stroke-linejoin="round"/>
<path d="M484.8 191.52L486.24 190.08V181.68L484.8 180.24H481.92L480.6 181.68V190.08L481.92 191.52H484.8Z" stroke="black" stroke-width="0.375" stroke-linecap="round" stroke-linejoin="round"/>
<path d="M321.12 84.36L322.08 85.32H327.72L328.68 84.36V79.92L327.72 78.84H322.08L321.12 79.92V84.36Z" stroke="black" stroke-width="0.375" stroke-linecap="round" stroke-linejoin="round"/>
<path d="M328.68 106.92L327.72 105.96H322.08L321.12 106.92V111.36L322.08 112.32H327.72L328.68 111.36V106.92Z" stroke="black" stroke-width="0.375" stroke-linecap="round" stroke-linejoin="round"/>
<path d="M493.2 312.84L494.64 314.28H503.16L504.6 312.84V309.96L503.16 308.64H494.64L493.2 309.96V312.84Z" stroke="black" stroke-width="0.375" stroke-linecap="round" stroke-linejoin="round"/>
<path d="M493.2 279L494.64 280.32H503.16L504.6 279V276.12L503.16 274.68H494.64L493.2 276.12V279Z" stroke="black" stroke-width="0.375" stroke-linecap="round" stroke-linejoin="round"/>
<path d="M493.2 222.48L494.64 223.92H503.16L504.6 222.48V219.72L503.16 218.28H494.64L493.2 219.72V222.48Z" stroke="black" stroke-width="0.375" stroke-linecap="round" stroke-linejoin="round"/>
<path d="M365.52 134.76V153.12H369.72V134.76H365.52Z" stroke="black" stroke-width="0.375" stroke-linecap="round" stroke-linejoin="round"/>
<path d="M369.72 134.76V153.12H374.04V134.76H369.72Z" stroke="black" stroke-width="0.375" stroke-linecap="round" stroke-linejoin="round"/>
<path d="M381 134.76H376.8V153.12H381V134.76Z" stroke="black" stroke-width="0.375" stroke-linecap="round" stroke-linejoin="round"/>
<path d="M381 134.76V153.12H385.32V134.76H381Z" stroke="black" stroke-width="0.375" stroke-linecap="round" stroke-linejoin="round"/>
<path d="M400.08 135.84L399 134.76H396.96L395.88 135.84V152.04L396.96 153.12H399L400.08 152.04V135.84Z" stroke="black" stroke-width="0.375" stroke-linecap="round" stroke-linejoin="round"/>
<path d="M406.08 153.12L407.16 152.04V135.84L406.08 134.76H404.04L402.96 135.84V152.04L404.04 153.12H406.08Z" stroke="black" stroke-width="0.375" stroke-linecap="round" stroke-linejoin="round"/>
<path d="M411 134.76L410.04 135.84V152.04L411 153.12H413.16L414.24 152.04V135.84L413.16 134.76H411Z" stroke="black" stroke-width="0.375" stroke-linecap="round" stroke-linejoin="round"/>
<path d="M425.16 134.76L424.08 135.84V152.04L425.16 153.12H427.32L428.4 152.04V135.84L427.32 134.76H425.16Z" stroke="black" stroke-width="0.375" stroke-linecap="round" stroke-linejoin="round"/>
<path d="M434.4 153.12L435.36 152.04V135.84L434.4 134.76H432.24L431.16 135.84V152.04L432.24 153.12H434.4Z" stroke="black" stroke-width="0.375" stroke-linecap="round" stroke-linejoin="round"/>
<path d="M442.44 135.84L441.36 134.76H439.32L438.24 135.84V152.04L439.32 153.12H441.36L442.44 152.04V135.84Z" stroke="black" stroke-width="0.375" stroke-linecap="round" stroke-linejoin="round"/>
<path d="M457.32 134.76V153.12H461.52V134.76H457.32Z" stroke="black" stroke-width="0.375" stroke-linecap="round" stroke-linejoin="round"/>
<path d="M461.52 134.76V153.12H465.72V134.76H461.52Z" stroke="black" stroke-width="0.375" stroke-linecap="round" stroke-linejoin="round"/>
<path d="M391.56 318.48L390.12 319.92V328.32L391.56 329.76H394.44L395.88 328.32V319.92L394.44 318.48H391.56Z" stroke="black" stroke-width="0.375" stroke-linecap="round" stroke-linejoin="round"/>
<path d="M326.64 327.24L329.04 329.76H334.08L336.48 327.24V322.32L334.08 319.92H329.04L326.64 322.32V327.24Z" stroke="black" stroke-width="0.375" stroke-linecap="round" stroke-linejoin="round"/>
<path d="M337.92 287.4L336.48 286.08H328.08L326.64 287.4V290.28L328.08 291.72H336.48L337.92 290.28V287.4Z" stroke="black" stroke-width="0.375" stroke-linecap="round" stroke-linejoin="round"/>
<path d="M337.92 298.68L336.48 297.36H328.08L326.64 298.68V301.56L328.08 303H336.48L337.92 301.56V298.68Z" stroke="black" stroke-width="0.375" stroke-linecap="round" stroke-linejoin="round"/>
<path d="M337.92 253.56L336.48 252.12H328.08L326.64 253.56V256.44L328.08 257.76H336.48L337.92 256.44V253.56Z" stroke="black" stroke-width="0.375" stroke-linecap="round" stroke-linejoin="round"/>
<path d="M337.92 264.84L336.48 263.4H328.08L326.64 264.84V267.72L328.08 269.04H336.48L337.92 267.72V264.84Z" stroke="black" stroke-width="0.375" stroke-linecap="round" stroke-linejoin="round"/>
<path d="M337.92 231L336.48 229.56H328.08L326.64 231V233.88L328.08 235.2H336.48L337.92 233.88V231Z" stroke="black" stroke-width="0.375" stroke-linecap="round" stroke-linejoin="round"/>
<path d="M337.92 242.28L336.48 240.84H328.08L326.64 242.28V245.16L328.08 246.48H336.48L337.92 245.16V242.28Z" stroke="black" stroke-width="0.375" stroke-linecap="round" stroke-linejoin="round"/>
<path d="M337.92 197.16L336.48 195.72H328.08L326.64 197.16V199.92L328.08 201.36H336.48L337.92 199.92V197.16Z" stroke="black" stroke-width="0.375" stroke-linecap="round" stroke-linejoin="round"/>
<path d="M337.92 208.44L336.48 207H328.08L326.64 208.44V211.2L328.08 212.64H336.48L337.92 211.2V208.44Z" stroke="black" stroke-width="0.375" stroke-linecap="round" stroke-linejoin="round"/>
<path d="M326.64 187.68L329.04 190.08H334.08L336.48 187.68V182.64L334.08 180.24H329.04L326.64 182.64V187.68Z" stroke="black" stroke-width="0.375" stroke-linecap="round" stroke-linejoin="round"/>
<path d="M394.44 191.52L395.88 190.08V181.68L394.44 180.24H391.56L390.12 181.68V190.08L391.56 191.52H394.44Z" stroke="black" stroke-width="0.375" stroke-linecap="round" stroke-linejoin="round"/>
<path d="M448.08 318.48L446.64 319.92V328.32L448.08 329.76H450.84L452.28 328.32V319.92L450.84 318.48H448.08Z" stroke="black" stroke-width="0.375" stroke-linecap="round" stroke-linejoin="round"/>
<path d="M450.84 191.52L452.28 190.08V181.68L450.84 180.24H448.08L446.64 181.68V190.08L448.08 191.52H450.84Z" stroke="black" stroke-width="0.375" stroke-linecap="round" stroke-linejoin="round"/>
<path d="M337.92 276.12L336.48 274.68H328.08L326.64 276.12V279L328.08 280.32H336.48L337.92 279V276.12Z" stroke="black" stroke-width="0.375" stroke-linecap="round" stroke-linejoin="round"/>
<path d="M337.92 309.96L336.48 308.64H328.08L326.64 309.96V312.84L328.08 314.28H336.48L337.92 312.84V309.96Z" stroke="black" stroke-width="0.375" stroke-linecap="round" stroke-linejoin="round"/>
<path d="M382.56 272.64L377.52 277.68V288L382.56 293.04H392.76L397.92 288V277.68L392.76 272.64H382.56Z" stroke="black" stroke-width="0.375" stroke-linecap="round" stroke-linejoin="round"/>
<path d="M337.92 219.72L336.48 218.28H328.08L326.64 219.72V222.48L328.08 223.92H336.48L337.92 222.48V219.72Z" stroke="black" stroke-width="0.375" stroke-linecap="round" stroke-linejoin="round"/>
<path d="M382.56 216.84L377.52 222V232.2L382.56 237.36H392.76L397.92 232.2V222L392.76 216.84H382.56Z" stroke="black" stroke-width="0.375" stroke-linecap="round" stroke-linejoin="round"/>
<path d="M438.36 272.64L433.2 277.68V288L438.36 293.04H448.56L453.72 288V277.68L448.56 272.64H438.36Z" stroke="black" stroke-width="0.375" stroke-linecap="round" stroke-linejoin="round"/>
<path d="M438.36 216.84L433.2 222V232.2L438.36 237.36H448.56L453.72 232.2V222L448.56 216.84H438.36Z" stroke="black" stroke-width="0.375" stroke-linecap="round" stroke-linejoin="round"/>
<path d="M513.6 117.12C513.6 122.64 509.16 127.08 503.64 127.08C498.24 127.08 493.8 122.64 493.8 117.12" stroke="black" stroke-width="0.375" stroke-linecap="round" stroke-linejoin="round"/>
<path d="M493.8 117.12C493.8 111.72 498.24 107.28 503.64 107.28C509.16 107.28 513.6 111.72 513.6 117.12" stroke="black" stroke-width="0.375" stroke-linecap="round" stroke-linejoin="round"/>
<path d="M513.6 81.36C513.6 86.76 509.16 91.2 503.64 91.2C498.24 91.2 493.8 86.76 493.8 81.36" stroke="black" stroke-width="0.375" stroke-linecap="round" stroke-linejoin="round"/>
<path d="M493.8 81.36C493.8 75.84 498.24 71.4 503.64 71.4C509.16 71.4 513.6 75.84 513.6 81.36" stroke="black" stroke-width="0.375" stroke-linecap="round" stroke-linejoin="round"/>
<path d="M382.56 244.8L377.52 249.84V260.16L382.56 265.2H392.76L397.92 260.16V249.84L392.76 244.8H382.56Z" stroke="black" stroke-width="0.375" stroke-linecap="round" stroke-linejoin="round"/>
<path d="M392.04 153.12L393 152.04V135.84L392.04 134.76H389.88L388.8 135.84V152.04L389.88 153.12H392.04Z" stroke="black" stroke-width="0.375" stroke-linecap="round" stroke-linejoin="round"/>
<path d="M438.36 244.8L433.2 249.84V260.16L438.36 265.2H448.56L453.72 260.16V249.84L448.56 244.8H438.36Z" stroke="black" stroke-width="0.375" stroke-linecap="round" stroke-linejoin="round"/>
<path d="M420.24 153.12L421.32 152.04V135.84L420.24 134.76H418.08L417 135.84V152.04L418.08 153.12H420.24Z" stroke="black" stroke-width="0.375" stroke-linecap="round" stroke-linejoin="round"/>
<path d="M446.04 134.76V153.12H450.24V134.76H446.04Z" stroke="black" stroke-width="0.375" stroke-linecap="round" stroke-linejoin="round"/>
<path d="M450.24 134.76V153.12H454.44V134.76H450.24Z" stroke="black" stroke-width="0.375" stroke-linecap="round" stroke-linejoin="round"/>
<path d="M410.52 272.64L405.36 277.68V288L410.52 293.04H420.72L425.88 288V277.68L420.72 272.64H410.52Z" stroke="black" stroke-width="0.375" stroke-linecap="round" stroke-linejoin="round"/>
<path d="M410.52 216.84L405.36 222V232.2L410.52 237.36H420.72L425.88 232.2V222L420.72 216.84H410.52Z" stroke="black" stroke-width="0.375" stroke-linecap="round" stroke-linejoin="round"/>
<path d="M410.52 244.8L405.36 249.84V260.16L410.52 265.2H420.72L425.88 260.16V249.84L420.72 244.8H410.52Z" stroke="black" stroke-width="0.375" stroke-linecap="round" stroke-linejoin="round"/>
<path d="M317.52 161.28H331.8" stroke="black" stroke-width="1.8" stroke-miterlimit="10" stroke-linecap="round"/>
<path d="M324.36 152.28L317.88 145.8" stroke="black" stroke-width="1.8" stroke-miterlimit="10" stroke-linecap="round"/>
<path d="M324.36 152.28V144.36" stroke="black" stroke-width="1.8" stroke-miterlimit="10" stroke-linecap="round"/>
<path d="M331.44 151.56L324.36 144.36" stroke="black" stroke-width="1.8" stroke-miterlimit="10" stroke-linecap="round"/>
<path d="M324.36 152.28V148.32" stroke="black" stroke-width="1.8" stroke-miterlimit="10" stroke-linecap="round"/>
<path d="M317.52 134.28H331.8" stroke="black" stroke-width="1.8" stroke-miterlimit="10" stroke-linecap="round"/>
<path d="M321 116.64H328.08" stroke="black" stroke-width="0.72" stroke-miterlimit="10" stroke-linecap="round"/>
<path d="M324.96 116.64L321.36 113.16" stroke="black" stroke-width="0.72" stroke-miterlimit="10" stroke-linecap="round"/>
<path d="M324.96 116.64L328.44 113.16" stroke="black" stroke-width="0.72" stroke-miterlimit="10" stroke-linecap="round"/>
<path d="M321.72 74.64H328.8" stroke="black" stroke-width="0.72" stroke-miterlimit="10" stroke-linecap="round"/>
<path d="M328.44 78.12L324.96 74.64" stroke="black" stroke-width="0.72" stroke-miterlimit="10" stroke-linecap="round"/>
<path d="M321.36 78.12L324.96 74.64" stroke="black" stroke-width="0.72" stroke-miterlimit="10" stroke-linecap="round"/>
<path d="M354.6 115.08V89.4" stroke="black" stroke-width="3.6" stroke-miterlimit="10" stroke-linecap="round"/>
<path d="M476.64 115.08V89.4" stroke="black" stroke-width="3.6" stroke-miterlimit="10" stroke-linecap="round"/>
<path d="M322.44 410.16V176.04" stroke="black" stroke-width="2.88" stroke-miterlimit="10" stroke-linecap="round"/>
<path d="M317.52 161.28V134.28" stroke="black" stroke-width="1.8" stroke-miterlimit="10" stroke-linecap="round"/>
<path d="M331.8 161.28V134.28" stroke="black" stroke-width="1.8" stroke-miterlimit="10" stroke-linecap="round"/>
<path d="M354.6 57.48V36.72" stroke="black" stroke-width="3.6" stroke-miterlimit="10" stroke-linecap="round"/>
<path d="M476.64 57.48V36.72" stroke="black" stroke-width="3.6" stroke-miterlimit="10" stroke-linecap="round"/>
<path d="M508.8 410.16V176.04" stroke="black" stroke-width="2.88" stroke-miterlimit="10" stroke-linecap="round"/>
<path d="M373.32 127.68H398.04" stroke="black" stroke-width="3.6" stroke-miterlimit="10" stroke-linecap="round"/>
<path d="M433.32 127.68H458.04" stroke="black" stroke-width="3.6" stroke-miterlimit="10" stroke-linecap="round"/>
<path d="M322.44 410.16H508.8" stroke="black" stroke-width="2.88" stroke-miterlimit="10" stroke-linecap="round"/>
<path d="M322.44 333.96H508.8" stroke="black" stroke-width="2.88" stroke-miterlimit="10" stroke-linecap="round"/>
<path d="M322.44 176.04H508.8" stroke="black" stroke-width="2.88" stroke-miterlimit="10" stroke-linecap="round"/>
<path d="M354.6 36.72H476.64" stroke="black" stroke-width="3.6" stroke-miterlimit="10" stroke-linecap="round"/>
<path d="M321.48 128.52H328.32V134.28H321.48V128.52Z" fill="black"/>
<path d="M286.32 324.6V323.52H293.52V324.24L293.16 324.6L292.8 324.96V325.32H292.44V325.68L292.08 326.04L291.72 326.4V326.76L291.36 327.12V327.48H291V327.84V328.2H290.64V328.56V328.92H290.28V329.28V329.64L289.92 330.36L289.56 331.08V331.44V331.68V332.04V332.4L289.2 332.76V333.48V333.84H287.76V333.48V333.12V332.76H288.12V332.4V332.04V331.68L288.48 331.08V330.72V330.36V330H288.84V329.64V329.28L289.2 328.92L289.56 328.2V327.48H289.92V327.12V326.76H290.28V326.4L290.64 326.04L291 325.68L291.36 324.96L291.72 324.6H286.32Z" fill="black"/>
<path d="M286.32 295.2H287.76V295.56V295.92L288.12 296.28L288.48 296.64L288.84 297H289.2H289.56H289.92H290.28H290.64L291 296.64H291.36V296.28L291.72 295.92V295.56L292.08 295.2V294.84V294.48V294.12V293.76L291.72 293.4V293.04L291.36 292.68L291 292.32H290.64L290.28 291.96H289.92H289.56H289.2H288.84V292.32H288.48H288.12V292.68H287.76V293.04L286.32 292.68L287.4 287.28H292.8V288.36H288.48L288.12 291.6V291.24H288.48L288.84 290.88H289.2H289.56H289.92H290.28H290.64H291H291.36V291.24H291.72L292.08 291.6H292.44V291.96H292.8V292.32L293.16 292.68V293.04V293.4H293.52V293.76V294.12V294.48V294.84V295.2L293.16 295.56V295.92V296.28H292.8V296.64L292.44 297L292.08 297.36H291.72V297.72H291.36L291 298.08H290.64H290.28H289.92H289.56H289.2H288.84H288.48L288.12 297.72H287.76L287.4 297.36H287.04V297L286.68 296.64V296.28L286.32 295.92V295.56V295.2Z" fill="black"/>
<path d="M293.16 253.92H292.08H291.72V253.56V253.2L291.36 252.96V252.6H291H290.64L290.28 252.24H289.92H289.56V252.6H289.2H288.84V252.96H288.48V253.2H288.12V253.56L287.76 253.92V254.28V254.64V255V255.36V255.72L287.4 256.08V256.44H287.76V256.08L288.12 255.72L288.48 255.36H288.84L289.2 255H289.56H289.92H290.28H290.64H291L291.36 255.36H291.72H292.08V255.72H292.44V256.08H292.8V256.44V256.8H293.16V257.16V257.52L293.52 257.88V258.24V258.6V258.96V259.32H293.16V259.68V260.04L292.8 260.4V260.76L292.44 261.12V261.48H292.08L291.72 261.84H291.36L291 262.2H290.64H290.28H289.92H289.56H289.2H288.84L288.48 261.84H288.12L287.76 261.48L287.4 261.12L287.04 260.76V260.4H286.68V260.04V259.68V259.32H286.32V258.96V258.24V257.88V257.52V256.8V256.44V256.08V255.72V255.36V255L286.68 254.28V253.92V253.56V253.2L287.04 252.96V252.6H287.4V252.24H287.76L288.12 251.88H288.48V251.52H288.84H289.2L289.56 251.16H289.92H290.28H290.64H291L291.36 251.52H291.72L292.08 251.88H292.44V252.24L292.8 252.6L293.16 252.96V253.56V253.92ZM287.76 258.6V258.96V259.32L288.12 259.68V260.04L288.48 260.4L288.84 260.76H289.2V261.12H289.56H289.92H290.28H290.64L291 260.76H291.36V260.4H291.72V260.04V259.68L292.08 259.32V258.96V258.6V258.24V257.88V257.52H291.72V257.16L291.36 256.8L291 256.44H290.64L290.28 256.08H289.92H289.56L289.2 256.44H288.84H288.48V256.8L288.12 257.16V257.52L287.76 257.88V258.24V258.6Z" fill="black"/>
<path d="M291.72 190.56H290.64V181.92H290.28V182.28H289.92V182.64H289.56L289.2 183H288.84L288.48 183.36H288.12L287.76 183.72V182.28H288.12V181.92H288.48H288.84L289.2 181.56L289.56 181.2H289.92V180.84L290.28 180.48L290.64 180.12L291 179.76V179.4H291.72V190.56Z" fill="black"/>
<path d="M286.32 148.92V148.68V148.32V147.96V147.6V146.88L286.68 146.52V146.16V145.8V145.44H287.04V145.08L287.4 144.72V144.36H287.76V144H288.12H288.48L288.84 143.64H289.2H289.56H289.92H290.28H290.64H291L291.36 144H291.72L292.08 144.36L292.44 144.72V145.08L292.8 145.44V145.8L293.16 146.16V146.52V146.88V147.24V147.6V147.96H293.52V148.32V148.68V148.92V149.28V149.64V150L293.16 150.72V151.08V151.8V152.16H292.8V152.52V152.88L292.44 153.24L292.08 153.6L291.72 153.96H291.36V154.32H291H290.64L290.28 154.68H289.92H289.56L289.2 154.32H288.84H288.48L288.12 153.96H287.76L287.4 153.6V153.24H287.04V152.88V152.52H286.68V152.16V151.8V151.44L286.32 151.08V150.72V150V149.64V148.92ZM287.76 148.92V149.28V149.64V150V150.36V151.08V151.44V151.8H288.12V152.16V152.52H288.48V152.88H288.84V153.24H289.2L289.56 153.6H289.92L290.28 153.24H290.64H291V152.88H291.36V152.52L291.72 152.16V151.8V151.44V151.08L292.08 150.72V150.36V150V149.64V148.92V148.68V148.32V147.96V147.6L291.72 147.24V146.88V146.52V146.16V145.8H291.36V145.44H291V145.08H290.64V144.72H290.28H289.92H289.56H289.2L288.84 145.08H288.48V145.44H288.12V145.8V146.16L287.76 146.52V146.88V147.24V147.96V148.32V148.68V148.92Z" fill="black"/>
<path d="M330.12 96.96H319.32V95.64H329.04V90.24H330.12V96.96Z" fill="black"/>
<path d="M544.56 332.76V333.84H537.48V333.48V333.12L537.84 332.76V332.4L538.2 332.04L538.56 331.68V331.44H538.92L539.28 331.08L539.64 330.72L540 330.36L540.36 330H540.72V329.64L540.96 329.28L541.68 328.92L542.04 328.56V328.2H542.4V327.84H542.76V327.48V327.12H543.12V326.76V326.4V326.04V325.68V325.32L542.76 324.96H542.4V324.6H542.04L541.68 324.24H541.32H540.96H540.72H540.36L540 324.6L539.64 324.96L539.28 325.32V325.68V326.04L538.92 326.4H537.84V326.04V325.68V325.32L538.2 324.96V324.6L538.56 324.24L538.92 323.88H539.28V323.52H539.64H540L540.36 323.16H540.72H540.96H541.32H541.68H542.04L542.4 323.52H542.76H543.12V323.88H543.48V324.24H543.84V324.6H544.2V324.96L544.56 325.32V325.68V326.04V326.4V326.76V327.12H544.2V327.48V327.84L543.84 328.2L543.48 328.56V328.92H543.12V329.28H542.76V329.64H542.4V330H542.04L541.68 330.36L541.32 330.72L540.96 331.08L540.72 331.44L540.36 331.68H540V332.04H539.64V332.4L539.28 332.76H544.56Z" fill="black"/>
<path d="M543.24 292.68V293.04H543.12V292.68H543.24Z" fill="black" fill-opacity="0.24609"/>
<path d="M537.48 295.56L538.92 295.2V295.56V295.92H539.28V296.28V296.64H539.64V297H540H540.36H540.72H540.96H541.32L541.68 296.64H542.04V296.28H542.4V295.92V295.56H542.76V295.2V294.84V294.48H543.12V294.12V293.76V293.4V293.04V292.68V293.04H542.76V293.4H542.4V293.76H542.04V294.12H541.68H541.32H540.96H540.72H540.36H540H539.64H539.28L538.92 293.76H538.56V293.4H538.2V293.04H537.84V292.68V292.32L537.48 291.96V291.6V291.24V290.88V290.52V290.16V289.8V289.44L537.84 289.08V288.72L538.2 288.36V288H538.56L538.92 287.64H539.28V287.28H539.64H540L540.36 286.92H540.72H540.96L541.32 287.28H541.68H542.04H542.4L542.76 287.64V288H543.12L543.48 288.36V288.72H543.84V289.44H544.2V289.8V290.16V290.52V290.88L544.56 291.24V291.6V291.96V292.32V292.68V293.04V293.4H544.2V294.12V294.48V295.2V295.56H543.84V295.92L543.48 296.28V296.64L543.12 297L542.76 297.36L542.4 297.72H542.04L541.68 298.08H541.32H540.96H540.72H540.36H540H539.64L539.28 297.72H538.92H538.56V297.36H538.2V297L537.84 296.64V296.28V295.92L537.48 295.56ZM543.12 290.52H542.76V290.16V289.8V289.44L542.4 289.08V288.72H542.04V288.36H541.68H541.32L540.96 288H540.72V288.36H540.36H540L539.64 288.72H539.28V289.08L538.92 289.44V289.8V290.16V290.52V290.88V291.24V291.6V291.96L539.28 292.32L539.64 292.68L540 293.04H540.36H540.72H540.96H541.32H541.68V292.68H542.04L542.4 292.32L542.76 291.96V291.6V291.24L543.12 290.52Z" fill="black"/>
<path d="M539.64 256.08H539.28H538.92V255.72H538.56V255.36H538.2V255L537.84 254.64V254.28V253.92V253.56V253.2L538.2 252.96V252.6L538.56 252.24V251.88H538.92H539.28V251.52H539.64H540L540.36 251.16H540.72H540.96H541.32L541.68 251.52H542.04H542.4H542.76V251.88H543.12V252.24H543.48V252.6L543.84 252.96V253.2V253.56V253.92V254.28V254.64V255L543.48 255.36L543.12 255.72L542.76 256.08H542.4L542.76 256.44H543.12L543.48 256.8H543.84V257.16V257.52H544.2V257.88V258.24L544.56 258.6V258.96V259.32L544.2 259.68V260.04V260.4H543.84V260.76L543.48 261.12V261.48H543.12L542.76 261.84H542.4L542.04 262.2H541.68H541.32H540.96H540.72H540.36H540L539.64 261.84H539.28H538.92V261.48H538.56L538.2 261.12V260.76H537.84V260.4L537.48 260.04V259.68V259.32V258.96V258.6V258.24V257.88L537.84 257.52V257.16L538.2 256.8L538.56 256.44H538.92H539.28L539.64 256.08ZM539.28 253.92V254.28V254.64L539.64 255V255.36H540H540.36V255.72H540.72H540.96H541.32L541.68 255.36H542.04V255H542.4V254.64V254.28H542.76V253.92V253.56H542.4V253.2V252.96H542.04V252.6H541.68L541.32 252.24H540.96H540.72H540.36V252.6H540L539.64 252.96L539.28 253.2V253.56V253.92ZM538.92 258.96V259.32V259.68V260.04H539.28V260.4L539.64 260.76H540V261.12H540.36H540.72H540.96H541.32H541.68L542.04 260.76L542.4 260.4H542.76V260.04L543.12 259.68V259.32V258.96V258.6V258.24H542.76V257.88V257.52H542.4V257.16H542.04L541.68 256.8H541.32H540.96H540.72H540.36H540V257.16H539.64L539.28 257.52L538.92 257.88V258.24V258.6V258.96Z" fill="black"/>
<path d="M290.64 226.44V223.92H285.96V222.48L291 215.64H292.08V222.48H293.52V223.92H292.08V226.44H290.64ZM290.64 222.48V217.8L287.4 222.48H290.64Z" fill="black"/>
<path d="M540.36 189.12V190.2H533.16V189.84V189.48V189.12H533.52V188.76L533.88 188.4V188.04H534.24V187.68L534.6 187.32H534.96L535.32 186.96L535.68 186.6L536.04 186.24V185.88H536.4L536.76 185.52L537.12 185.16L537.48 184.8L537.84 184.44L538.2 184.08L538.56 183.72V183.36H538.92V183V182.64V182.28V181.92V181.56H538.56V181.2H538.2V180.84H537.84V180.48H537.48H537.12H536.76H536.4H536.04L535.68 180.84L535.32 181.2H534.96V181.56V181.92L534.6 182.28V182.64H533.52V182.28V181.92V181.56V181.2L533.88 180.84L534.24 180.48V180.12H534.6L534.96 179.76H535.32L535.68 179.4H536.04H536.4H536.76H537.12H537.48H537.84L538.2 179.76H538.56H538.92V180.12H539.28L539.64 180.48V180.84H540V181.2V181.56H540.36V181.92V182.28V182.64V183V183.36H540V183.72V184.08L539.64 184.44L539.28 184.8V185.16H538.92V185.52H538.56L538.2 185.88L537.84 186.24L537.48 186.6L537.12 186.96H536.76V187.32H536.4L536.04 187.68V188.04H535.68V188.4H535.32V188.76L534.96 189.12H540.36Z" fill="black"/>
<path d="M541.68 184.8V184.44V184.08V183.72V183.36V182.64L542.04 182.28V181.92V181.56L542.4 181.2V180.84L542.76 180.48V180.12H543.12L543.48 179.76H543.84L544.2 179.4H544.56H544.92H545.28H545.64H546H546.36V179.76H546.72H547.08V180.12H547.44V180.48H547.8V180.84L548.16 181.2V181.56L548.52 181.92V182.28V182.64V183V183.36V183.72H548.88V184.08V184.44V184.8V185.16V185.52V185.88L548.52 186.6V186.96V187.68V188.04H548.16V188.4V188.76L547.8 189.12V189.48H547.44L547.08 189.84L546.72 190.2H546.36L546 190.56H545.64H545.28H544.92H544.56L544.2 190.2H543.84H543.48L543.12 189.84L542.76 189.48V189.12H542.4V188.76V188.4H542.04V188.04V187.68V187.32L541.68 186.96V186.6V185.88V185.52V184.8ZM543.12 184.8V185.16V185.52V185.88V186.24V186.96V187.32V187.68H543.48V188.04V188.4H543.84V188.76L544.2 189.12H544.56L544.92 189.48H545.28H545.64V189.12H546H546.36V188.76H546.72V188.4L547.08 188.04V187.68V187.32V186.96L547.44 186.6V186.24V185.88V185.52V184.8V184.44V184.08V183.72V183.36L547.08 183V182.64V182.28V181.92L546.72 181.56V181.2H546.36V180.84H546V180.48H545.64H545.28H544.92H544.56V180.84H544.2H543.84V181.2H543.48V181.56V181.92L543.12 182.28V182.64V183V183.36V183.72V184.08V184.44V184.8Z" fill="black"/>
<path d="M533.16 154.68L528.84 143.64H530.64L533.52 151.44V151.8V152.16V152.52L533.88 152.88V153.24V152.88H534.24V152.52V152.16V151.8L534.6 151.44L537.48 143.64H538.92L534.6 154.68H533.16Z" fill="black"/>
<path d="M540.36 143.64H541.8V154.8H540.36V143.64Z" fill="black"/>
<path d="M544.2 154.68V143.64H546L551.4 152.16V143.64H552.84V154.68H551.4L545.64 146.16V154.68H544.2Z" fill="black"/>
<path d="M541.32 225V226.44H534.24V226.08V225.72V225.36L534.6 225L534.96 224.64V224.28L535.32 223.92L535.68 223.56L536.04 223.2L536.4 222.84L536.76 222.48H537.12V222.12H537.48V221.76H537.84L538.2 221.04L538.56 220.68H538.92V220.32H539.28V219.96H539.64V219.6V219.24H540V218.88V218.52V218.16V217.8L539.64 217.44L539.28 217.08L538.92 216.72H538.56H538.2H537.84H537.48H537.12H536.76V217.08H536.4V217.44H536.04V217.8V218.16L535.68 218.52V218.88L534.24 218.52H534.6V218.16V217.8V217.44L534.96 217.08V216.72H535.32V216.36H535.68V216H536.04H536.4V215.64H536.76H537.12H537.48H537.84H538.2H538.56H538.92H539.28L539.64 216H540L540.36 216.36H540.72V216.72V217.08L540.96 217.44V217.8H541.32V218.16V218.52V218.88V219.24H540.96V219.6V219.96L540.72 220.32V220.68L540.36 221.04H540V221.4H539.64V221.76H539.28V222.12H538.92V222.48H538.56L538.2 222.84V223.2H537.84V223.56H537.48L537.12 223.92L536.76 224.28H536.4V224.64L536.04 225H541.32Z" fill="black"/>
<path d="M547.8 226.44H546.36V217.8V218.16H546V218.52H545.64H545.28V218.88H544.92L544.56 219.24H544.2L543.84 219.6V218.16H544.2V217.8H544.56L544.92 217.44L545.28 217.08H545.64V216.72H546V216.36H546.36V216L546.72 215.64H547.8V226.44Z" fill="black"/>
<path d="M527.04 82.68V71.88H531H531.36H531.72H532.08L532.44 72.24H532.8H533.16L533.52 72.6L533.88 72.96L534.24 73.32V73.68L534.6 74.04V74.4V74.76V75.12V75.48L534.24 75.84V76.2H533.88V76.56H533.52V76.92H533.16L533.52 77.28H533.88L534.24 77.64L534.6 78L534.96 78.36V78.72V79.08V79.44L535.32 79.8H534.96V80.16V80.52V80.88V81.24H534.6V81.6L534.24 81.96H533.88V82.32H533.52H533.16V82.68H532.8H532.44H532.08H531.72H531.36H531H527.04ZM528.48 76.56H530.64H531H531.36H531.72H532.08V76.2H532.44H532.8V75.84H533.16V75.48V75.12V74.76V74.4V74.04H532.8V73.68H532.44V73.32H532.08H531.72H531.36H531H530.64H528.48V76.56ZM528.48 81.6H531H531.36H531.72H532.08L532.44 81.24H532.8H533.16V80.88H533.52V80.52V80.16V79.8V79.44V79.08V78.72H533.16V78.36L532.8 78H532.44H532.08H531.72V77.64H531.36H531H528.48V81.6Z" fill="black"/>
<path d="M536.04 82.68L540 71.88H541.68L546 82.68H544.2L543.12 79.44H538.56L537.48 82.68H536.04ZM538.92 78.36H542.76L541.32 75.48V75.12V74.76V74.4L540.96 74.04V73.68V73.32L540.72 72.96V73.32V73.68V74.04L540.36 74.4V74.76V75.12L538.92 78.36Z" fill="black"/>
<path d="M549.96 82.68V73.32H546.36V71.88H555V73.32H551.4V82.68H549.96Z" fill="black"/>
<path d="M530.28 114.24V113.16H534.96V117.12H534.6V117.48H534.24L533.88 117.84H533.52L533.16 118.2H532.8L532.44 118.56H532.08H531.72H531.36H531L530.64 118.92H530.28V118.56H529.92H529.56H529.2H528.48L528.12 118.2H527.76H527.4V117.84H527.04L526.68 117.48L526.32 117.12V116.76L525.96 116.4L525.6 116.04V115.68H525.24V115.32V114.96V114.6L524.88 114.24V113.88V113.16V112.8V112.44V112.08L525.24 111.72V111.36V110.64L525.6 110.28V109.92H525.96V109.56L526.32 109.2L526.68 108.84L527.04 108.48L527.4 108.12H527.76L528.12 107.76H528.48H528.84H529.2L529.92 107.4H530.28H530.64H531H531.36L531.72 107.76H532.08H532.44H532.8V108.12H533.16L533.52 108.48L533.88 108.84L534.24 109.2V109.56H534.6V109.92V110.28L534.96 110.64L533.52 111V110.64L533.16 110.28V109.92H532.8V109.56L532.44 109.2H532.08L531.72 108.84H531.36H531H530.64H530.28H529.92H529.56H529.2H528.84L528.48 109.2H528.12L527.76 109.56L527.4 109.92V110.28H527.04V110.64L526.68 111V111.36V111.72L526.32 112.08V112.8V113.16V113.52V113.88L526.68 114.24V114.6V115.32L527.04 115.68V116.04H527.4V116.4H527.76L528.12 116.76L528.48 117.12H528.84H529.2L529.56 117.48H529.92H530.28H530.64H531H531.36H531.72V117.12H532.08H532.44L532.8 116.76H533.16L533.52 116.4V114.24H530.28Z" fill="black"/>
<path d="M537.12 118.56V107.76H538.56L544.2 116.4V107.76H545.64V118.56H544.2L538.56 109.92V118.56H537.12Z" fill="black"/>
<path d="M547.8 118.56V107.76H551.76H552.12H552.48H552.84H553.2H553.56H553.92L554.28 108.12H554.64L555 108.48H555.36V108.84L555.72 109.2L556.08 109.56L556.44 109.92V110.64H556.8V111V111.36V111.72V112.08V112.44V113.16V113.52V113.88V114.24V114.6V114.96V115.32L556.44 115.68V116.04L556.08 116.4V116.76L555.72 117.12L555.36 117.48L555 117.84H554.64V118.2H554.28H553.92L553.56 118.56H553.2H552.84H552.48H552.12H551.76H547.8ZM549.24 117.12H551.76H552.12H552.48H552.84H553.2H553.56L553.92 116.76H554.28V116.4H554.64V116.04L555 115.68V115.32H555.36V114.96V114.6V114.24V113.88V113.52V113.16V112.8V112.44V112.08V111.72V111.36L555 110.64V110.28H554.64V109.92L554.28 109.56L553.92 109.2H553.56H553.2H552.84L552.48 108.84H552.12H551.76H549.24V117.12Z" fill="black"/>
<path d="M508.68 161.88H498V157.2V156.84V156.48V156.12V155.76V155.4L498.36 155.04V154.68L498.72 154.32V153.96H499.08L499.44 153.6H499.8V153.24H500.16H500.52H500.88H501.24H501.6H501.96L502.32 153.6H502.68V153.96H503.04V154.32H503.4V154.68L503.76 155.04V155.4V155.76V156.12H504.12V155.76H504.48V155.4L504.84 155.04L505.2 154.68L505.56 154.32H505.92L508.68 152.16V153.96L506.64 155.4V155.76H506.28H505.92V156.12H505.56L505.2 156.48L504.84 156.84L504.48 157.2V157.56H504.12V157.92V158.28V158.64V160.44H508.68V161.88ZM502.68 160.44V157.2V156.84V156.48V156.12V155.76L502.32 155.4V155.04H501.96V154.68H501.6H501.24H500.88H500.52L500.16 155.04H499.8V155.4H499.44V155.76V156.12L499.08 156.48V156.84V160.44H502.68Z" fill="black"/>
<path d="M505.56 151.44L505.2 150H505.56H505.92L506.28 149.64H506.64L507 149.28L507.36 148.92V148.68H507.72V148.32V147.96V147.6V147.24V146.88V146.52V146.16V145.8V145.44H507.36V145.08V144.72H507L506.64 144.36H506.28H505.92H505.56H505.2V144.72H504.84V145.08H504.48V145.44V145.8L504.12 146.16V146.52V146.88V147.24L503.76 147.6V147.96V148.32L503.4 148.68V148.92V149.28V149.64H503.04V150H502.68V150.36H502.32V150.72H501.96H501.6L501.24 151.08H500.88H500.52L500.16 150.72H499.8H499.44V150.36H499.08V150H498.72V149.64H498.36V149.28V148.92H498V148.68V148.32V147.96V147.6V147.24V146.88V146.52V146.16V145.8V145.44L498.36 145.08V144.72L498.72 144.36V144H499.08L499.44 143.64H499.8L500.16 143.28H500.52H500.88H501.24V144.72H500.88H500.52L500.16 145.08H499.8V145.44H499.44V145.8V146.16L499.08 146.52V146.88V147.24V147.6V147.96V148.32L499.44 148.68V148.92H499.8V149.28H500.16V149.64H500.52H500.88H501.24V149.28H501.6L501.96 148.92V148.68L502.32 148.32V147.96V147.6L502.68 147.24V146.88V146.52V146.16V145.8L503.04 145.44V145.08V144.72H503.4V144.36L503.76 144V143.64H504.12L504.48 143.28L504.84 142.92H505.2H505.56H505.92H506.28H506.64H507L507.36 143.28H507.72V143.64H508.08V144H508.32V144.36L508.68 144.72V145.08V145.44V145.8L509.04 146.16V146.52V146.88V147.24V147.6V148.32L508.68 148.68V148.92V149.28H508.32V149.64L508.08 150V150.36L507.72 150.72H507.36V151.08H507H506.64L506.28 151.44H505.92H505.56Z" fill="black"/>
<path d="M508.68 138.24H499.44V141.84H498V133.2H499.44V136.8H508.68V138.24Z" fill="black"/>
<path d="M280.56 78.36V76.92H285.24V81.24L284.88 81.6H284.52V81.96H283.8L283.44 82.32H283.08L282.72 82.68H282.36H282H281.64H281.28H280.92H280.56H280.2H279.84H279.48H278.88L278.52 82.32H278.16L277.8 81.96H277.44V81.6L277.08 81.24L276.72 80.88L276.36 80.52L276 80.16V79.8L275.64 79.44V79.08V78.72V78.36L275.28 78V77.28V76.92V76.56L275.64 76.2V75.84V75.48L276 74.76V74.4V74.04H276.36V73.68H276.72V73.32L277.08 72.96L277.44 72.6L277.8 72.24H278.16L278.52 71.88H278.88H279.12H279.48V71.52H280.2H280.56H280.92H281.28H281.64L282 71.88H282.36H282.72H283.08V72.24H283.44H283.8V72.6L284.16 72.96H284.52V73.32V73.68H284.88V74.04L285.24 74.4V74.76L283.8 75.12V74.76V74.4H283.44V74.04V73.68H283.08L282.72 73.32H282.36V72.96H282H281.64H281.28H280.92H280.56H280.2H279.84H279.48H279.12L278.88 73.32H278.52L278.16 73.68L277.8 74.04L277.44 74.4V74.76V75.12H277.08V75.48V75.84V76.2L276.72 76.56V77.28V77.64H277.08V78V78.36V78.72V79.08L277.44 79.8L277.8 80.16V80.52H278.16L278.52 80.88L278.88 81.24H279.12H279.48L279.84 81.6H280.2H280.92H281.28H281.64L282 81.24H282.36H282.72V80.88H283.08H283.44L283.8 80.52V78.36H280.56Z" fill="black"/>
<path d="M287.4 82.68V71.88H288.84L294.6 80.16V71.88H296.04V82.68H294.6L288.84 74.04V82.68H287.4Z" fill="black"/>
<path d="M298.56 82.68V71.88H302.16H302.52H302.88H303.24H303.6H303.96H304.32L304.68 72.24H305.04L305.4 72.6H305.76V72.96H306.12V73.32H306.48V73.68L306.84 74.04L307.2 74.4V74.76V75.12V75.48V75.84L307.56 76.2V76.56V77.28V77.64V78V78.36L307.2 78.72V79.08V79.44V79.8H306.84V80.16V80.52H306.48V80.88L306.12 81.24V81.6H305.76V81.96H305.4H305.04V82.32H304.68H304.32H303.96V82.68H303.6H303.24H302.88H302.52H298.56ZM300 81.24H302.16H302.52H302.88H303.24H303.6H303.96L304.32 80.88H304.68L305.04 80.52V80.16H305.4V79.8V79.44L305.76 79.08V78.72V78.36V78L306.12 77.64V77.28V76.92V76.56L305.76 76.2V75.84V75.48V74.76H305.4V74.4L305.04 74.04L304.68 73.68L304.32 73.32H303.96H303.6L303.24 72.96H302.88H302.52H302.16H300V81.24Z" fill="black"/>
<path d="M277.08 115.68L278.52 115.32V115.68V116.04L278.88 116.4V116.76L279.12 117.12L279.48 117.48H279.84H280.2H280.56H280.92H281.28H281.64V117.12H282V116.76H282.36V116.4L282.72 116.04V115.68V115.32V114.96L282.36 114.6V114.24V113.88H282V113.52H281.64H281.28V113.16H280.92H280.56H280.2H279.84L279.48 113.52L279.84 112.08H280.2H280.56H280.92L281.28 111.72H281.64L282 111.36V111V110.64H282.36V110.28H282V109.92V109.56V109.2H281.64V108.84H281.28H280.92H280.56H280.2H279.84H279.48L279.12 109.2H278.88V109.56V109.92L278.52 110.28V110.64L277.08 110.28H277.44V109.92V109.56V109.2L277.8 108.84L278.16 108.48V108.12H278.52H278.88V107.76H279.12H279.48H279.84L280.2 107.4H280.56V107.76H280.92H281.28H281.64L282 108.12H282.36L282.72 108.48L283.08 108.84V109.2H283.44V109.56V109.92V110.28V110.64V111V111.36L283.08 111.72L282.72 112.08L282.36 112.44H282V112.8H282.36H282.72L283.08 113.16H283.44V113.52H283.8V113.88V114.24L284.16 114.6V114.96V115.32V115.68V116.04H283.8V116.4V116.76L283.44 117.12V117.48H283.08V117.84H282.72L282.36 118.2H282L281.64 118.56H281.28H280.92H280.56H280.2H279.84H279.48H279.12L278.88 118.2H278.52L278.16 117.84L277.8 117.48V117.12H277.44V116.76V116.4L277.08 116.04V115.68Z" fill="black"/>
<path d="M289.2 118.56L284.88 107.76H286.32L289.2 115.68V116.04H289.56V116.4V116.76L289.92 117.48V117.12V116.76V116.4L290.28 116.04V115.68L293.16 107.76H294.96L290.64 118.56H289.2Z" fill="black"/>
<path d="M295.68 115.68L296.76 115.32L297.12 115.68V116.04V116.4L297.48 116.76L297.84 117.12L298.2 117.48H298.56H298.92H299.28H299.64H300L300.36 117.12H300.72V116.76L301.08 116.4V116.04V115.68L301.44 115.32L301.08 114.96V114.6V114.24L300.72 113.88L300.36 113.52H300L299.64 113.16H299.28H298.92H298.56L298.2 113.52V112.08H298.56H298.92H299.28H299.64L300 111.72H300.36V111.36H300.72V111V110.64V110.28V109.92V109.56L300.36 109.2L300 108.84H299.64H299.28H298.92H298.56H298.2H297.84V109.2H297.48V109.56L297.12 109.92V110.28V110.64L295.68 110.28V109.92L296.04 109.56V109.2L296.4 108.84V108.48H296.76V108.12H297.12L297.48 107.76H297.84H298.2H298.56V107.4H298.92H299.28V107.76H299.64H300H300.36L300.72 108.12H301.08V108.48H301.44V108.84H301.8V109.2V109.56H302.16V109.92V110.28V110.64V111V111.36H301.8V111.72H301.44V112.08L301.08 112.44H300.72V112.8H301.08H301.44L301.8 113.16L302.16 113.52V113.88H302.52V114.24V114.6V114.96V115.32V115.68V116.04V116.4V116.76H302.16V117.12V117.48H301.8V117.84H301.44H301.08V118.2H300.72L300.36 118.56H300H299.64H299.28H298.92H298.56H298.2H297.84L297.48 118.2H297.12L296.76 117.84H296.4V117.48L296.04 117.12V116.76L295.68 116.4V116.04V115.68Z" fill="black"/>
<path d="M270.84 389.52V79.08" stroke="black" stroke-width="2.88" stroke-miterlimit="10" stroke-linecap="round"/>
<path d="M560.28 389.4V79.08" stroke="black" stroke-width="2.88" stroke-miterlimit="10" stroke-linecap="round"/>
<path d="M291.96 410.64H539.16" stroke="black" stroke-width="2.88" stroke-miterlimit="10" stroke-linecap="round"/>
<path d="M291.96 57.84H539.16" stroke="black" stroke-width="2.88" stroke-miterlimit="10" stroke-linecap="round"/>
<path d="M560.28 389.4C560.28 401.16 550.8 410.64 539.16 410.64" stroke="black" stroke-width="2.88" stroke-miterlimit="10" stroke-linecap="round"/>
<path d="M539.16 57.84C550.8 57.84 560.28 67.32 560.28 79.08" stroke="black" stroke-width="2.88" stroke-miterlimit="10" stroke-linecap="round"/>
<path d="M291.96 410.64C280.32 410.64 270.84 401.16 270.84 389.4" stroke="black" stroke-width="2.88" stroke-miterlimit="10" stroke-linecap="round"/>
<path d="M270.84 79.08C270.84 67.32 280.32 57.84 291.96 57.84" stroke="black" stroke-width="2.88" stroke-miterlimit="10" stroke-linecap="round"/>
<path d="M224.52 410.64L223.08 406.32" stroke="black" stroke-width="1.44" stroke-miterlimit="10" stroke-linecap="round"/>
<path d="M224.52 410.64L225.96 406.32" stroke="black" stroke-width="1.44" stroke-miterlimit="10" stroke-linecap="round"/>
<path d="M225.96 62.16L224.52 57.84" stroke="black" stroke-width="1.44" stroke-miterlimit="10" stroke-linecap="round"/>
<path d="M223.08 62.16L224.52 57.84" stroke="black" stroke-width="1.44" stroke-miterlimit="10" stroke-linecap="round"/>
<path d="M270.84 10.92L275.04 9.59998" stroke="black" stroke-width="1.44" stroke-miterlimit="10" stroke-linecap="round"/>
<path d="M270.84 10.92L275.04 12.36" stroke="black" stroke-width="1.44" stroke-miterlimit="10" stroke-linecap="round"/>
<path d="M556.08 12.36L560.28 10.92" stroke="black" stroke-width="1.44" stroke-miterlimit="10" stroke-linecap="round"/>
<path d="M556.08 9.59998L560.28 10.92" stroke="black" stroke-width="1.44" stroke-miterlimit="10" stroke-linecap="round"/>
<path d="M224.52 410.64V263.28" stroke="black" stroke-width="1.44" stroke-miterlimit="10" stroke-linecap="round"/>
<path d="M270.84 74.04V7.44" stroke="black" stroke-width="2.16" stroke-miterlimit="10" stroke-linecap="round"/>
<path d="M560.28 74.04V7.44" stroke="black" stroke-width="2.16" stroke-miterlimit="10" stroke-linecap="round"/>
<path d="M224.52 215.16V57.84" stroke="black" stroke-width="1.44" stroke-miterlimit="10" stroke-linecap="round"/>
<path d="M220.92 410.64H287.04" stroke="black" stroke-width="2.16" stroke-miterlimit="10" stroke-linecap="round"/>
<path d="M220.92 57.84H287.04" stroke="black" stroke-width="2.16" stroke-miterlimit="10" stroke-linecap="round"/>
<path d="M270.84 10.92H386.52" stroke="black" stroke-width="1.44" stroke-miterlimit="10" stroke-linecap="round"/>
<path d="M434.64 10.92H560.28" stroke="black" stroke-width="1.44" stroke-miterlimit="10" stroke-linecap="round"/>
<path d="M230.16 252.6V258.24" stroke="black" stroke-width="1.44" stroke-miterlimit="10" stroke-linecap="round"/>
<path d="M230.16 258.24L224.52 252.6" stroke="black" stroke-width="1.44" stroke-miterlimit="10" stroke-linecap="round"/>
<path d="M224.52 252.6H223.08" stroke="black" stroke-width="1.44" stroke-miterlimit="10" stroke-linecap="round"/>
<path d="M223.08 252.6L221.76 254.04" stroke="black" stroke-width="1.44" stroke-miterlimit="10" stroke-linecap="round"/>
<path d="M221.76 254.04V256.92" stroke="black" stroke-width="1.44" stroke-miterlimit="10" stroke-linecap="round"/>
<path d="M221.76 256.92L223.08 258.24" stroke="black" stroke-width="1.44" stroke-miterlimit="10" stroke-linecap="round"/>
<path d="M221.76 244.2V249.84" stroke="black" stroke-width="1.44" stroke-miterlimit="10" stroke-linecap="round"/>
<path d="M221.76 249.84H225.96" stroke="black" stroke-width="1.44" stroke-miterlimit="10" stroke-linecap="round"/>
<path d="M225.96 249.84L224.52 246.96" stroke="black" stroke-width="1.44" stroke-miterlimit="10" stroke-linecap="round"/>
<path d="M224.52 246.96V245.64" stroke="black" stroke-width="1.44" stroke-miterlimit="10" stroke-linecap="round"/>
<path d="M224.52 245.64L225.96 244.2" stroke="black" stroke-width="1.44" stroke-miterlimit="10" stroke-linecap="round"/>
<path d="M225.96 244.2H228.84" stroke="black" stroke-width="1.44" stroke-miterlimit="10" stroke-linecap="round"/>
<path d="M228.84 244.2L230.16 245.64" stroke="black" stroke-width="1.44" stroke-miterlimit="10" stroke-linecap="round"/>
<path d="M230.16 245.64V248.4" stroke="black" stroke-width="1.44" stroke-miterlimit="10" stroke-linecap="round"/>
<path d="M230.16 248.4L228.84 249.84" stroke="black" stroke-width="1.44" stroke-miterlimit="10" stroke-linecap="round"/>
<path d="M230.16 241.32H228.84" stroke="black" stroke-width="1.44" stroke-miterlimit="10" stroke-linecap="round"/>
<path d="M228.84 241.32V240" stroke="black" stroke-width="1.44" stroke-miterlimit="10" stroke-linecap="round"/>
<path d="M228.84 240H230.16" stroke="black" stroke-width="1.44" stroke-miterlimit="10" stroke-linecap="round"/>
<path d="M230.16 240V241.32" stroke="black" stroke-width="1.44" stroke-miterlimit="10" stroke-linecap="round"/>
<path d="M223.08 234.36L221.76 232.92" stroke="black" stroke-width="1.44" stroke-miterlimit="10" stroke-linecap="round"/>
<path d="M221.76 232.92V230.04" stroke="black" stroke-width="1.44" stroke-miterlimit="10" stroke-linecap="round"/>
<path d="M221.76 230.04L223.08 228.72" stroke="black" stroke-width="1.44" stroke-miterlimit="10" stroke-linecap="round"/>
<path d="M223.08 228.72H228.84" stroke="black" stroke-width="1.44" stroke-miterlimit="10" stroke-linecap="round"/>
<path d="M228.84 228.72L230.16 230.04" stroke="black" stroke-width="1.44" stroke-miterlimit="10" stroke-linecap="round"/>
<path d="M230.16 230.04V232.92" stroke="black" stroke-width="1.44" stroke-miterlimit="10" stroke-linecap="round"/>
<path d="M230.16 232.92L228.84 234.36" stroke="black" stroke-width="1.44" stroke-miterlimit="10" stroke-linecap="round"/>
<path d="M228.84 234.36H223.08" stroke="black" stroke-width="1.44" stroke-miterlimit="10" stroke-linecap="round"/>
<path d="M223.08 225.84L221.76 224.4" stroke="black" stroke-width="1.44" stroke-miterlimit="10" stroke-linecap="round"/>
<path d="M221.76 224.4V221.64" stroke="black" stroke-width="1.44" stroke-miterlimit="10" stroke-linecap="round"/>
<path d="M221.76 221.64L223.08 220.2" stroke="black" stroke-width="1.44" stroke-miterlimit="10" stroke-linecap="round"/>
<path d="M223.08 220.2H228.84" stroke="black" stroke-width="1.44" stroke-miterlimit="10" stroke-linecap="round"/>
<path d="M228.84 220.2L230.16 221.64" stroke="black" stroke-width="1.44" stroke-miterlimit="10" stroke-linecap="round"/>
<path d="M230.16 221.64V224.4" stroke="black" stroke-width="1.44" stroke-miterlimit="10" stroke-linecap="round"/>
<path d="M230.16 224.4L228.84 225.84" stroke="black" stroke-width="1.44" stroke-miterlimit="10" stroke-linecap="round"/>
<path d="M228.84 225.84H223.08" stroke="black" stroke-width="1.44" stroke-miterlimit="10" stroke-linecap="round"/>
<path d="M397.08 16.56H391.44" stroke="black" stroke-width="1.44" stroke-miterlimit="10" stroke-linecap="round"/>
<path d="M391.44 16.56L397.08 10.92" stroke="black" stroke-width="1.44" stroke-miterlimit="10" stroke-linecap="round"/>
<path d="M397.08 10.92V9.59998" stroke="black" stroke-width="1.44" stroke-miterlimit="10" stroke-linecap="round"/>
<path d="M397.08 9.59997L395.76 8.15997" stroke="black" stroke-width="1.44" stroke-miterlimit="10" stroke-linecap="round"/>
<path d="M395.76 8.15997H392.88" stroke="black" stroke-width="1.44" stroke-miterlimit="10" stroke-linecap="round"/>
<path d="M392.88 8.15997L391.44 9.59997" stroke="black" stroke-width="1.44" stroke-miterlimit="10" stroke-linecap="round"/>
<path d="M399.96 9.59997L401.4 8.15997" stroke="black" stroke-width="1.44" stroke-miterlimit="10" stroke-linecap="round"/>
<path d="M401.4 8.15997H404.16" stroke="black" stroke-width="1.44" stroke-miterlimit="10" stroke-linecap="round"/>
<path d="M404.16 8.15997L405.6 9.59997" stroke="black" stroke-width="1.44" stroke-miterlimit="10" stroke-linecap="round"/>
<path d="M405.6 9.59998V15.24" stroke="black" stroke-width="1.44" stroke-miterlimit="10" stroke-linecap="round"/>
<path d="M405.6 15.24L404.16 16.56" stroke="black" stroke-width="1.44" stroke-miterlimit="10" stroke-linecap="round"/>
<path d="M404.16 16.56H401.4" stroke="black" stroke-width="1.44" stroke-miterlimit="10" stroke-linecap="round"/>
<path d="M401.4 16.56L399.96 15.24" stroke="black" stroke-width="1.44" stroke-miterlimit="10" stroke-linecap="round"/>
<path d="M399.96 15.24V9.59998" stroke="black" stroke-width="1.44" stroke-miterlimit="10" stroke-linecap="round"/>
<path d="M408.48 16.56V15.24" stroke="black" stroke-width="1.44" stroke-miterlimit="10" stroke-linecap="round"/>
<path d="M408.48 15.24H409.8" stroke="black" stroke-width="1.44" stroke-miterlimit="10" stroke-linecap="round"/>
<path d="M409.8 15.24V16.56" stroke="black" stroke-width="1.44" stroke-miterlimit="10" stroke-linecap="round"/>
<path d="M409.8 16.56H408.48" stroke="black" stroke-width="1.44" stroke-miterlimit="10" stroke-linecap="round"/>
<path d="M421.08 8.15997H415.44" stroke="black" stroke-width="1.44" stroke-miterlimit="10" stroke-linecap="round"/>
<path d="M415.44 8.15997V12.36" stroke="black" stroke-width="1.44" stroke-miterlimit="10" stroke-linecap="round"/>
<path d="M415.44 12.36L418.32 10.92" stroke="black" stroke-width="1.44" stroke-miterlimit="10" stroke-linecap="round"/>
<path d="M418.32 10.92H419.76" stroke="black" stroke-width="1.44" stroke-miterlimit="10" stroke-linecap="round"/>
<path d="M419.76 10.92L421.08 12.36" stroke="black" stroke-width="1.44" stroke-miterlimit="10" stroke-linecap="round"/>
<path d="M421.08 12.36V15.24" stroke="black" stroke-width="1.44" stroke-miterlimit="10" stroke-linecap="round"/>
<path d="M421.08 15.24L419.76 16.56" stroke="black" stroke-width="1.44" stroke-miterlimit="10" stroke-linecap="round"/>
<path d="M419.76 16.56H416.88" stroke="black" stroke-width="1.44" stroke-miterlimit="10" stroke-linecap="round"/>
<path d="M416.88 16.56L415.44 15.24" stroke="black" stroke-width="1.44" stroke-miterlimit="10" stroke-linecap="round"/>
<path d="M423.96 9.59997L425.4 8.15997" stroke="black" stroke-width="1.44" stroke-miterlimit="10" stroke-linecap="round"/>
<path d="M425.4 8.15997H428.16" stroke="black" stroke-width="1.44" stroke-miterlimit="10" stroke-linecap="round"/>
<path d="M428.16 8.15997L429.6 9.59997" stroke="black" stroke-width="1.44" stroke-miterlimit="10" stroke-linecap="round"/>
<path d="M429.6 9.59998V15.24" stroke="black" stroke-width="1.44" stroke-miterlimit="10" stroke-linecap="round"/>
<path d="M429.6 15.24L428.16 16.56" stroke="black" stroke-width="1.44" stroke-miterlimit="10" stroke-linecap="round"/>
<path d="M428.16 16.56H425.4" stroke="black" stroke-width="1.44" stroke-miterlimit="10" stroke-linecap="round"/>
<path d="M425.4 16.56L423.96 15.24" stroke="black" stroke-width="1.44" stroke-miterlimit="10" stroke-linecap="round"/>
<path d="M423.96 15.24V9.59998" stroke="black" stroke-width="1.44" stroke-miterlimit="10" stroke-linecap="round"/>
</svg>
