M48
; DRILL file {KiCad (6.0.0)} date Thu Jun 30 15:43:38 2022
; FORMAT={-:-/ absolute / inch / decimal}
; #@! TF.CreationDate,2022-06-30T15:43:38+09:00
; #@! TF.GenerationSoftware,Kicad,Pcbnew,(6.0.0)
; #@! TF.FileFunction,Plated,1,2,PTH
FMAT,2
INCH
; #@! TA.AperFunction,Plated,PTH,ViaDrill
T1C0.0079
; #@! TA.AperFunction,Plated,PTH,ViaDrill
T2C0.0118
; #@! TA.AperFunction,Plated,PTH,ComponentDrill
T3C0.0315
; #@! TA.AperFunction,Plated,PTH,ComponentDrill
T4C0.0394
%
G90
G05
T1
X1.0698Y-4.5479
X1.1026Y-4.2673
X1.3419Y-4.3632
X1.3436Y-4.7454
T2
X0.9865Y-4.2074
X1.0632Y-4.3566
X1.0699Y-4.7405
X1.0986Y-4.3645
X1.1004Y-4.5565
X1.114Y-4.6465
X1.1169Y-4.446
X1.1419Y-4.7078
X1.1959Y-4.2295
X1.2297Y-4.2928
X1.2605Y-4.2129
X1.3437Y-4.5531
X1.3713Y-4.3697
X1.3714Y-4.5602
X1.3821Y-4.2621
X1.387Y-4.4508
X1.3876Y-4.6502
X1.417Y-4.7118
T3
X0.9325Y-3.044
X0.9325Y-3.1227
X0.9522Y-3.6614
X0.9522Y-3.7402
X1.0112Y-3.044
X1.0112Y-3.1227
X1.0309Y-3.6614
X1.0309Y-3.7402
X1.09Y-3.044
X1.09Y-3.1227
X1.1096Y-3.6614
X1.1096Y-3.7402
X1.1687Y-3.044
X1.1687Y-3.1227
X1.1884Y-3.6614
X1.1884Y-3.7402
X1.2474Y-3.044
X1.2474Y-3.1227
X1.2671Y-3.6614
X1.2671Y-3.7402
X1.3262Y-3.044
X1.3262Y-3.1227
X1.3459Y-3.6614
X1.3459Y-3.7402
X1.4049Y-3.044
X1.4049Y-3.1227
X1.4246Y-3.6614
X1.4246Y-3.7402
T4
X0.8396Y-4.0534
X0.8396Y-4.1534
X0.8396Y-4.2534
X0.8396Y-4.3534
X0.8396Y-4.4534
X0.8396Y-4.5534
X0.8396Y-4.6534
X0.8396Y-4.7534
X1.5388Y-4.0532
X1.5388Y-4.1532
X1.5388Y-4.2532
X1.5388Y-4.3532
X1.5388Y-4.4532
X1.5388Y-4.5532
X1.5388Y-4.6532
X1.5388Y-4.7532
T0
M30
