%TF.GenerationSoftware,KiCad,Pcbnew,(6.0.0)*%
%TF.CreationDate,2022-06-30T15:43:38+09:00*%
%TF.ProjectId,TipLets_Board,5469704c-6574-4735-9f42-6f6172642e6b,rev?*%
%TF.SameCoordinates,Original*%
%TF.FileFunction,Paste,Top*%
%TF.FilePolarity,Positive*%
%FSLAX46Y46*%
G04 Gerber Fmt 4.6, Leading zero omitted, Abs format (unit mm)*
G04 Created by KiCad (PCBNEW (6.0.0)) date 2022-06-30 15:43:38*
%MOMM*%
%LPD*%
G01*
G04 APERTURE LIST*
G04 Aperture macros list*
%AMRoundRect*
0 Rectangle with rounded corners*
0 $1 Rounding radius*
0 $2 $3 $4 $5 $6 $7 $8 $9 X,Y pos of 4 corners*
0 Add a 4 corners polygon primitive as box body*
4,1,4,$2,$3,$4,$5,$6,$7,$8,$9,$2,$3,0*
0 Add four circle primitives for the rounded corners*
1,1,$1+$1,$2,$3*
1,1,$1+$1,$4,$5*
1,1,$1+$1,$6,$7*
1,1,$1+$1,$8,$9*
0 Add four rect primitives between the rounded corners*
20,1,$1+$1,$2,$3,$4,$5,0*
20,1,$1+$1,$4,$5,$6,$7,0*
20,1,$1+$1,$6,$7,$8,$9,0*
20,1,$1+$1,$8,$9,$2,$3,0*%
G04 Aperture macros list end*
%ADD10RoundRect,0.140000X-0.140000X-0.170000X0.140000X-0.170000X0.140000X0.170000X-0.140000X0.170000X0*%
%ADD11RoundRect,0.200000X-0.350000X-0.200000X0.350000X-0.200000X0.350000X0.200000X-0.350000X0.200000X0*%
%ADD12RoundRect,0.140000X0.140000X0.170000X-0.140000X0.170000X-0.140000X-0.170000X0.140000X-0.170000X0*%
%ADD13RoundRect,0.200000X-0.200000X-0.275000X0.200000X-0.275000X0.200000X0.275000X-0.200000X0.275000X0*%
%ADD14RoundRect,0.200000X0.350000X0.200000X-0.350000X0.200000X-0.350000X-0.200000X0.350000X-0.200000X0*%
%ADD15C,0.240000*%
G04 APERTURE END LIST*
D10*
%TO.C,C1*%
X34078560Y-110008000D03*
X35038560Y-110008000D03*
%TD*%
D11*
%TO.C,M1*%
X21720134Y-53192000D03*
X21730134Y-54532000D03*
%TD*%
D12*
%TO.C,C6*%
X34070560Y-116612000D03*
X33110560Y-116612000D03*
%TD*%
D13*
%TO.C,R5*%
X30411560Y-118156000D03*
X32061560Y-118156000D03*
%TD*%
D10*
%TO.C,C3*%
X34126560Y-114834000D03*
X35086560Y-114834000D03*
%TD*%
D13*
%TO.C,R12*%
X23971560Y-119569000D03*
X25621560Y-119569000D03*
%TD*%
D14*
%TO.C,M4*%
X37579867Y-54562000D03*
X37569867Y-53222000D03*
%TD*%
D10*
%TO.C,C11*%
X27175000Y-119575170D03*
X28135000Y-119575170D03*
%TD*%
D13*
%TO.C,R3*%
X30411560Y-113330000D03*
X32061560Y-113330000D03*
%TD*%
D15*
%TO.C,U2*%
X34098560Y-112792800D03*
X33598560Y-113792800D03*
X34098560Y-113292800D03*
X33598560Y-113292800D03*
X33598560Y-112792800D03*
X34598560Y-112792800D03*
X34598560Y-113292800D03*
X34598560Y-113792800D03*
X34098560Y-113792800D03*
%TD*%
D13*
%TO.C,R8*%
X23971560Y-109917000D03*
X25621560Y-109917000D03*
%TD*%
D14*
%TO.C,M5*%
X37589867Y-61562000D03*
X37579867Y-60222000D03*
%TD*%
D15*
%TO.C,U4*%
X26905000Y-107881970D03*
X26405000Y-108881970D03*
X26905000Y-108381970D03*
X26405000Y-108381970D03*
X26405000Y-107881970D03*
X27405000Y-107881970D03*
X27405000Y-108381970D03*
X27405000Y-108881970D03*
X26905000Y-108881970D03*
%TD*%
D13*
%TO.C,R1*%
X30411560Y-108504000D03*
X32061560Y-108504000D03*
%TD*%
%TO.C,R2*%
X31231560Y-109990000D03*
X32881560Y-109990000D03*
%TD*%
D14*
%TO.C,M6*%
X37579867Y-68562000D03*
X37569867Y-67222000D03*
%TD*%
D12*
%TO.C,C4*%
X34098560Y-111786000D03*
X33138560Y-111786000D03*
%TD*%
D10*
%TO.C,C7*%
X26925000Y-109923170D03*
X27885000Y-109923170D03*
%TD*%
%TO.C,C9*%
X27175000Y-114749170D03*
X28135000Y-114749170D03*
%TD*%
D13*
%TO.C,R7*%
X23194560Y-108398000D03*
X24844560Y-108398000D03*
%TD*%
D12*
%TO.C,C10*%
X27119000Y-111701170D03*
X26159000Y-111701170D03*
%TD*%
D13*
%TO.C,R9*%
X23194560Y-113224000D03*
X24844560Y-113224000D03*
%TD*%
D12*
%TO.C,C12*%
X27091000Y-116527170D03*
X26131000Y-116527170D03*
%TD*%
D11*
%TO.C,M3*%
X21740134Y-67212000D03*
X21750134Y-68552000D03*
%TD*%
D15*
%TO.C,U6*%
X27147000Y-117533970D03*
X26647000Y-118533970D03*
X27147000Y-118033970D03*
X26647000Y-118033970D03*
X26647000Y-117533970D03*
X27647000Y-117533970D03*
X27647000Y-118033970D03*
X27647000Y-118533970D03*
X27147000Y-118533970D03*
%TD*%
%TO.C,U5*%
X27147000Y-112707970D03*
X26647000Y-113707970D03*
X27147000Y-113207970D03*
X26647000Y-113207970D03*
X26647000Y-112707970D03*
X27647000Y-112707970D03*
X27647000Y-113207970D03*
X27647000Y-113707970D03*
X27147000Y-113707970D03*
%TD*%
D13*
%TO.C,R4*%
X31231560Y-114816000D03*
X32881560Y-114816000D03*
%TD*%
%TO.C,R10*%
X23971560Y-114743000D03*
X25621560Y-114743000D03*
%TD*%
%TO.C,R11*%
X23194560Y-118050000D03*
X24844560Y-118050000D03*
%TD*%
D12*
%TO.C,C2*%
X34022560Y-106960000D03*
X33062560Y-106960000D03*
%TD*%
D15*
%TO.C,U1*%
X34050560Y-107966800D03*
X33550560Y-108966800D03*
X34050560Y-108466800D03*
X33550560Y-108466800D03*
X33550560Y-107966800D03*
X34550560Y-107966800D03*
X34550560Y-108466800D03*
X34550560Y-108966800D03*
X34050560Y-108966800D03*
%TD*%
%TO.C,U3*%
X34098560Y-117618800D03*
X33598560Y-118618800D03*
X34098560Y-118118800D03*
X33598560Y-118118800D03*
X33598560Y-117618800D03*
X34598560Y-117618800D03*
X34598560Y-118118800D03*
X34598560Y-118618800D03*
X34098560Y-118618800D03*
%TD*%
D11*
%TO.C,M2*%
X21730134Y-60192000D03*
X21740134Y-61532000D03*
%TD*%
D13*
%TO.C,R6*%
X31231560Y-119642000D03*
X32881560Y-119642000D03*
%TD*%
D10*
%TO.C,C5*%
X34126560Y-119660000D03*
X35086560Y-119660000D03*
%TD*%
D12*
%TO.C,C8*%
X26885000Y-106875170D03*
X25925000Y-106875170D03*
%TD*%
M02*
