%TF.GenerationSoftware,KiCad,Pcbnew,(6.0.0)*%
%TF.CreationDate,2022-06-29T15:28:05+09:00*%
%TF.ProjectId,TipLets_Board,5469704c-6574-4735-9f42-6f6172642e6b,rev?*%
%TF.SameCoordinates,Original*%
%TF.FileFunction,Profile,NP*%
%FSLAX46Y46*%
G04 Gerber Fmt 4.6, Leading zero omitted, Abs format (unit mm)*
G04 Created by KiCad (PCBNEW (6.0.0)) date 2022-06-29 15:28:05*
%MOMM*%
%LPD*%
G01*
G04 APERTURE LIST*
%TA.AperFunction,Profile*%
%ADD10C,0.100000*%
%TD*%
G04 APERTURE END LIST*
D10*
X20685000Y-50817000D02*
X21685000Y-50817000D01*
X17685000Y-82817000D02*
X17685000Y-53817000D01*
X37685001Y-50817001D02*
X38685000Y-50817000D01*
X36685000Y-70817000D02*
X36685001Y-51817001D01*
X38685000Y-85817000D02*
X20685000Y-85817000D01*
X22685000Y-70817000D02*
G75*
G03*
X23685000Y-71817000I999999J-1D01*
G01*
X20685000Y-50817000D02*
G75*
G03*
X17685000Y-53817000I1J-3000001D01*
G01*
X35685000Y-71817000D02*
G75*
G03*
X36685000Y-70817000I1J999999D01*
G01*
X22685000Y-51817000D02*
X22685000Y-70817000D01*
X41685000Y-53817000D02*
X41685000Y-82817000D01*
X23685000Y-71817000D02*
X35685000Y-71817000D01*
X17685000Y-82817000D02*
G75*
G03*
X20685000Y-85817000I3000001J1D01*
G01*
X38685000Y-85817000D02*
G75*
G03*
X41685000Y-82817000I-1J3000001D01*
G01*
X41685000Y-53817000D02*
G75*
G03*
X38685000Y-50817000I-3000001J-1D01*
G01*
X37685001Y-50817001D02*
G75*
G03*
X36685001Y-51817001I-1J-999999D01*
G01*
X22685000Y-51817000D02*
G75*
G03*
X21685000Y-50817000I-999999J1D01*
G01*
X44500000Y-126000000D02*
X44500000Y-94500000D01*
X16000000Y-94500000D02*
X16000000Y-126000000D01*
X21000000Y-131000000D02*
X39500000Y-131000000D01*
X39500000Y-131000000D02*
G75*
G03*
X44500000Y-126000000I0J5000000D01*
G01*
X21000000Y-89500000D02*
G75*
G03*
X16000000Y-94500000I0J-5000000D01*
G01*
X16000000Y-126000000D02*
G75*
G03*
X21000000Y-131000000I5000000J0D01*
G01*
X21000000Y-89500000D02*
X39500000Y-89500000D01*
X44500000Y-94500000D02*
G75*
G03*
X39500000Y-89500000I-5000000J0D01*
G01*
M02*
