%TF.GenerationSoftware,KiCad,Pcbnew,(6.0.0)*%
%TF.CreationDate,2022-06-29T15:28:05+09:00*%
%TF.ProjectId,TipLets_Board,5469704c-6574-4735-9f42-6f6172642e6b,rev?*%
%TF.SameCoordinates,Original*%
%TF.FileFunction,Copper,L1,Top*%
%TF.FilePolarity,Positive*%
%FSLAX46Y46*%
G04 Gerber Fmt 4.6, Leading zero omitted, Abs format (unit mm)*
G04 Created by KiCad (PCBNEW (6.0.0)) date 2022-06-29 15:28:05*
%MOMM*%
%LPD*%
G01*
G04 APERTURE LIST*
G04 Aperture macros list*
%AMRoundRect*
0 Rectangle with rounded corners*
0 $1 Rounding radius*
0 $2 $3 $4 $5 $6 $7 $8 $9 X,Y pos of 4 corners*
0 Add a 4 corners polygon primitive as box body*
4,1,4,$2,$3,$4,$5,$6,$7,$8,$9,$2,$3,0*
0 Add four circle primitives for the rounded corners*
1,1,$1+$1,$2,$3*
1,1,$1+$1,$4,$5*
1,1,$1+$1,$6,$7*
1,1,$1+$1,$8,$9*
0 Add four rect primitives between the rounded corners*
20,1,$1+$1,$2,$3,$4,$5,0*
20,1,$1+$1,$4,$5,$6,$7,0*
20,1,$1+$1,$6,$7,$8,$9,0*
20,1,$1+$1,$8,$9,$2,$3,0*%
G04 Aperture macros list end*
%TA.AperFunction,SMDPad,CuDef*%
%ADD10RoundRect,0.200000X0.350000X0.200000X-0.350000X0.200000X-0.350000X-0.200000X0.350000X-0.200000X0*%
%TD*%
%TA.AperFunction,SMDPad,CuDef*%
%ADD11RoundRect,0.200000X-0.350000X-0.200000X0.350000X-0.200000X0.350000X0.200000X-0.350000X0.200000X0*%
%TD*%
%TA.AperFunction,ComponentPad*%
%ADD12R,1.350000X1.350000*%
%TD*%
%TA.AperFunction,ComponentPad*%
%ADD13O,1.350000X1.350000*%
%TD*%
%TA.AperFunction,SMDPad,CuDef*%
%ADD14RoundRect,0.140000X-0.140000X-0.170000X0.140000X-0.170000X0.140000X0.170000X-0.140000X0.170000X0*%
%TD*%
%TA.AperFunction,SMDPad,CuDef*%
%ADD15RoundRect,0.140000X0.140000X0.170000X-0.140000X0.170000X-0.140000X-0.170000X0.140000X-0.170000X0*%
%TD*%
%TA.AperFunction,ComponentPad*%
%ADD16O,1.700000X1.700000*%
%TD*%
%TA.AperFunction,ComponentPad*%
%ADD17R,1.700000X1.700000*%
%TD*%
%TA.AperFunction,SMDPad,CuDef*%
%ADD18RoundRect,0.200000X-0.200000X-0.275000X0.200000X-0.275000X0.200000X0.275000X-0.200000X0.275000X0*%
%TD*%
%TA.AperFunction,SMDPad,CuDef*%
%ADD19C,0.240000*%
%TD*%
%TA.AperFunction,ViaPad*%
%ADD20C,0.600000*%
%TD*%
%TA.AperFunction,ViaPad*%
%ADD21C,0.500000*%
%TD*%
%TA.AperFunction,Conductor*%
%ADD22C,0.300000*%
%TD*%
%TA.AperFunction,Conductor*%
%ADD23C,0.100000*%
%TD*%
%TA.AperFunction,Conductor*%
%ADD24C,0.150000*%
%TD*%
%TA.AperFunction,Conductor*%
%ADD25C,0.127000*%
%TD*%
%TA.AperFunction,Conductor*%
%ADD26C,0.250000*%
%TD*%
%TA.AperFunction,Conductor*%
%ADD27C,0.080000*%
%TD*%
G04 APERTURE END LIST*
D10*
%TO.P,M6,1*%
%TO.N,IN11*%
X37579867Y-68562000D03*
%TO.P,M6,2*%
%TO.N,IN12*%
X37569867Y-67222000D03*
%TD*%
D11*
%TO.P,M1,1*%
%TO.N,IN1*%
X21720134Y-53192000D03*
%TO.P,M1,2*%
%TO.N,IN2*%
X21730134Y-54532000D03*
%TD*%
D10*
%TO.P,M4,1*%
%TO.N,IN7*%
X37579867Y-54562000D03*
%TO.P,M4,2*%
%TO.N,IN8*%
X37569867Y-53222000D03*
%TD*%
%TO.P,M5,1*%
%TO.N,IN9*%
X37589867Y-61562000D03*
%TO.P,M5,2*%
%TO.N,IN10*%
X37579867Y-60222000D03*
%TD*%
D11*
%TO.P,M3,1*%
%TO.N,IN5*%
X21740134Y-67212000D03*
%TO.P,M3,2*%
%TO.N,IN6*%
X21750134Y-68552000D03*
%TD*%
%TO.P,M2,1*%
%TO.N,IN3*%
X21730134Y-60192000D03*
%TO.P,M2,2*%
%TO.N,IN4*%
X21740134Y-61532000D03*
%TD*%
D12*
%TO.P,J3,1,Pin_1*%
%TO.N,IN5*%
X23685000Y-79317000D03*
D13*
%TO.P,J3,2,Pin_2*%
%TO.N,IN6*%
X23685000Y-77317000D03*
%TO.P,J3,3,Pin_3*%
%TO.N,IN3*%
X25685000Y-79317000D03*
%TO.P,J3,4,Pin_4*%
%TO.N,IN4*%
X25685000Y-77317000D03*
%TO.P,J3,5,Pin_5*%
%TO.N,IN1*%
X27685000Y-79317000D03*
%TO.P,J3,6,Pin_6*%
%TO.N,IN2*%
X27685000Y-77317000D03*
%TO.P,J3,7,Pin_7*%
%TO.N,IN8*%
X29685000Y-79317000D03*
%TO.P,J3,8,Pin_8*%
%TO.N,IN7*%
X29685000Y-77317000D03*
%TO.P,J3,9,Pin_9*%
%TO.N,IN10*%
X31685000Y-79317000D03*
%TO.P,J3,10,Pin_10*%
%TO.N,IN9*%
X31685000Y-77317000D03*
%TO.P,J3,11,Pin_11*%
%TO.N,IN12*%
X33685000Y-79317000D03*
%TO.P,J3,12,Pin_12*%
%TO.N,IN11*%
X33685000Y-77317000D03*
%TO.P,J3,13,Pin_13*%
%TO.N,unconnected-(J3-Pad13)*%
X35685000Y-79317000D03*
%TO.P,J3,14,Pin_14*%
%TO.N,unconnected-(J3-Pad14)*%
X35685000Y-77317000D03*
%TD*%
D14*
%TO.P,C1,2*%
%TO.N,GND*%
X35038560Y-110008000D03*
%TO.P,C1,1*%
%TO.N,BAT*%
X34078560Y-110008000D03*
%TD*%
D15*
%TO.P,C6,2*%
%TO.N,GND*%
X33110560Y-116612000D03*
%TO.P,C6,1*%
%TO.N,Net-(C6-Pad1)*%
X34070560Y-116612000D03*
%TD*%
D16*
%TO.P,J1,8,Pin_8*%
%TO.N,BAT*%
X21325000Y-120737000D03*
%TO.P,J1,7,Pin_7*%
%TO.N,GND*%
X21325000Y-118197000D03*
%TO.P,J1,6,Pin_6*%
%TO.N,unconnected-(J1-Pad6)*%
X21325000Y-115657000D03*
%TO.P,J1,5,Pin_5*%
%TO.N,unconnected-(J1-Pad5)*%
X21325000Y-113117000D03*
%TO.P,J1,4,Pin_4*%
%TO.N,unconnected-(J1-Pad4)*%
X21325000Y-110577000D03*
%TO.P,J1,3,Pin_3*%
%TO.N,SDA*%
X21325000Y-108037000D03*
%TO.P,J1,2,Pin_2*%
%TO.N,SCL*%
X21325000Y-105497000D03*
D17*
%TO.P,J1,1,Pin_1*%
%TO.N,unconnected-(J1-Pad1)*%
X21325000Y-102957000D03*
%TD*%
D18*
%TO.P,R5,2*%
%TO.N,Net-(R5-Pad2)*%
X32061560Y-118156000D03*
%TO.P,R5,1*%
%TO.N,SDA*%
X30411560Y-118156000D03*
%TD*%
D14*
%TO.P,C3,2*%
%TO.N,GND*%
X35086560Y-114834000D03*
%TO.P,C3,1*%
%TO.N,BAT*%
X34126560Y-114834000D03*
%TD*%
D18*
%TO.P,R12,2*%
%TO.N,Net-(R12-Pad2)*%
X25621560Y-119569000D03*
%TO.P,R12,1*%
%TO.N,SCL*%
X23971560Y-119569000D03*
%TD*%
D14*
%TO.P,C11,2*%
%TO.N,GND*%
X28135000Y-119575170D03*
%TO.P,C11,1*%
%TO.N,BAT*%
X27175000Y-119575170D03*
%TD*%
D18*
%TO.P,R3,2*%
%TO.N,Net-(R3-Pad2)*%
X32061560Y-113330000D03*
%TO.P,R3,1*%
%TO.N,SDA*%
X30411560Y-113330000D03*
%TD*%
D19*
%TO.P,U2,10,VDD*%
%TO.N,BAT*%
X34098560Y-113792800D03*
%TO.P,U2,9,OUT-*%
%TO.N,OUT4*%
X34598560Y-113792800D03*
%TO.P,U2,8,GND*%
%TO.N,GND*%
X34598560Y-113292800D03*
%TO.P,U2,7,OUT+*%
%TO.N,OUT3*%
X34598560Y-112792800D03*
%TO.P,U2,5,EN*%
%TO.N,EN2*%
X33598560Y-112792800D03*
%TO.P,U2,4,IN/TRIG*%
%TO.N,unconnected-(U2-Pad4)*%
X33598560Y-113292800D03*
%TO.P,U2,3,SDA*%
%TO.N,Net-(R3-Pad2)*%
X34098560Y-113292800D03*
%TO.P,U2,2,SCL*%
%TO.N,Net-(R4-Pad2)*%
X33598560Y-113792800D03*
%TO.P,U2,1,REG*%
%TO.N,Net-(C4-Pad1)*%
X34098560Y-112792800D03*
%TD*%
D13*
%TO.P,J4,14,Pin_14*%
%TO.N,unconnected-(J4-Pad14)*%
X36185000Y-93000000D03*
%TO.P,J4,13,Pin_13*%
%TO.N,unconnected-(J4-Pad13)*%
X36185000Y-95000000D03*
%TO.P,J4,12,Pin_12*%
%TO.N,OUT5*%
X34185000Y-93000000D03*
%TO.P,J4,11,Pin_11*%
%TO.N,OUT6*%
X34185000Y-95000000D03*
%TO.P,J4,10,Pin_10*%
%TO.N,OUT3*%
X32185000Y-93000000D03*
%TO.P,J4,9,Pin_9*%
%TO.N,OUT4*%
X32185000Y-95000000D03*
%TO.P,J4,8,Pin_8*%
%TO.N,OUT1*%
X30185000Y-93000000D03*
%TO.P,J4,7,Pin_7*%
%TO.N,OUT2*%
X30185000Y-95000000D03*
%TO.P,J4,6,Pin_6*%
%TO.N,OUT11*%
X28185000Y-93000000D03*
%TO.P,J4,5,Pin_5*%
%TO.N,OUT12*%
X28185000Y-95000000D03*
%TO.P,J4,4,Pin_4*%
%TO.N,OUT9*%
X26185000Y-93000000D03*
%TO.P,J4,3,Pin_3*%
%TO.N,OUT10*%
X26185000Y-95000000D03*
%TO.P,J4,2,Pin_2*%
%TO.N,OUT7*%
X24185000Y-93000000D03*
D12*
%TO.P,J4,1,Pin_1*%
%TO.N,OUT8*%
X24185000Y-95000000D03*
%TD*%
D18*
%TO.P,R8,2*%
%TO.N,Net-(R8-Pad2)*%
X25621560Y-109917000D03*
%TO.P,R8,1*%
%TO.N,SCL*%
X23971560Y-109917000D03*
%TD*%
D19*
%TO.P,U4,10,VDD*%
%TO.N,BAT*%
X26905000Y-108881970D03*
%TO.P,U4,9,OUT-*%
%TO.N,OUT8*%
X27405000Y-108881970D03*
%TO.P,U4,8,GND*%
%TO.N,GND*%
X27405000Y-108381970D03*
%TO.P,U4,7,OUT+*%
%TO.N,OUT7*%
X27405000Y-107881970D03*
%TO.P,U4,5,EN*%
%TO.N,EN4*%
X26405000Y-107881970D03*
%TO.P,U4,4,IN/TRIG*%
%TO.N,unconnected-(U4-Pad4)*%
X26405000Y-108381970D03*
%TO.P,U4,3,SDA*%
%TO.N,Net-(R7-Pad2)*%
X26905000Y-108381970D03*
%TO.P,U4,2,SCL*%
%TO.N,Net-(R8-Pad2)*%
X26405000Y-108881970D03*
%TO.P,U4,1,REG*%
%TO.N,Net-(C8-Pad1)*%
X26905000Y-107881970D03*
%TD*%
D18*
%TO.P,R1,2*%
%TO.N,Net-(R1-Pad2)*%
X32061560Y-108504000D03*
%TO.P,R1,1*%
%TO.N,SDA*%
X30411560Y-108504000D03*
%TD*%
%TO.P,R2,2*%
%TO.N,Net-(R2-Pad2)*%
X32881560Y-109990000D03*
%TO.P,R2,1*%
%TO.N,SCL*%
X31231560Y-109990000D03*
%TD*%
D15*
%TO.P,C4,2*%
%TO.N,GND*%
X33138560Y-111786000D03*
%TO.P,C4,1*%
%TO.N,Net-(C4-Pad1)*%
X34098560Y-111786000D03*
%TD*%
D14*
%TO.P,C7,2*%
%TO.N,GND*%
X27885000Y-109923170D03*
%TO.P,C7,1*%
%TO.N,BAT*%
X26925000Y-109923170D03*
%TD*%
%TO.P,C9,2*%
%TO.N,GND*%
X28135000Y-114749170D03*
%TO.P,C9,1*%
%TO.N,BAT*%
X27175000Y-114749170D03*
%TD*%
D18*
%TO.P,R7,2*%
%TO.N,Net-(R7-Pad2)*%
X24844560Y-108398000D03*
%TO.P,R7,1*%
%TO.N,SDA*%
X23194560Y-108398000D03*
%TD*%
D15*
%TO.P,C10,2*%
%TO.N,GND*%
X26159000Y-111701170D03*
%TO.P,C10,1*%
%TO.N,Net-(C10-Pad1)*%
X27119000Y-111701170D03*
%TD*%
D18*
%TO.P,R9,2*%
%TO.N,Net-(R9-Pad2)*%
X24844560Y-113224000D03*
%TO.P,R9,1*%
%TO.N,SDA*%
X23194560Y-113224000D03*
%TD*%
D15*
%TO.P,C12,2*%
%TO.N,GND*%
X26131000Y-116527170D03*
%TO.P,C12,1*%
%TO.N,Net-(C12-Pad1)*%
X27091000Y-116527170D03*
%TD*%
D19*
%TO.P,U6,10,VDD*%
%TO.N,BAT*%
X27147000Y-118533970D03*
%TO.P,U6,9,OUT-*%
%TO.N,OUT12*%
X27647000Y-118533970D03*
%TO.P,U6,8,GND*%
%TO.N,GND*%
X27647000Y-118033970D03*
%TO.P,U6,7,OUT+*%
%TO.N,OUT11*%
X27647000Y-117533970D03*
%TO.P,U6,5,EN*%
%TO.N,EN6*%
X26647000Y-117533970D03*
%TO.P,U6,4,IN/TRIG*%
%TO.N,unconnected-(U6-Pad4)*%
X26647000Y-118033970D03*
%TO.P,U6,3,SDA*%
%TO.N,Net-(R11-Pad2)*%
X27147000Y-118033970D03*
%TO.P,U6,2,SCL*%
%TO.N,Net-(R12-Pad2)*%
X26647000Y-118533970D03*
%TO.P,U6,1,REG*%
%TO.N,Net-(C12-Pad1)*%
X27147000Y-117533970D03*
%TD*%
%TO.P,U5,10,VDD*%
%TO.N,BAT*%
X27147000Y-113707970D03*
%TO.P,U5,9,OUT-*%
%TO.N,OUT10*%
X27647000Y-113707970D03*
%TO.P,U5,8,GND*%
%TO.N,GND*%
X27647000Y-113207970D03*
%TO.P,U5,7,OUT+*%
%TO.N,OUT9*%
X27647000Y-112707970D03*
%TO.P,U5,5,EN*%
%TO.N,EN5*%
X26647000Y-112707970D03*
%TO.P,U5,4,IN/TRIG*%
%TO.N,unconnected-(U5-Pad4)*%
X26647000Y-113207970D03*
%TO.P,U5,3,SDA*%
%TO.N,Net-(R9-Pad2)*%
X27147000Y-113207970D03*
%TO.P,U5,2,SCL*%
%TO.N,Net-(R10-Pad2)*%
X26647000Y-113707970D03*
%TO.P,U5,1,REG*%
%TO.N,Net-(C10-Pad1)*%
X27147000Y-112707970D03*
%TD*%
D18*
%TO.P,R4,2*%
%TO.N,Net-(R4-Pad2)*%
X32881560Y-114816000D03*
%TO.P,R4,1*%
%TO.N,SCL*%
X31231560Y-114816000D03*
%TD*%
%TO.P,R10,2*%
%TO.N,Net-(R10-Pad2)*%
X25621560Y-114743000D03*
%TO.P,R10,1*%
%TO.N,SCL*%
X23971560Y-114743000D03*
%TD*%
%TO.P,R11,2*%
%TO.N,Net-(R11-Pad2)*%
X24844560Y-118050000D03*
%TO.P,R11,1*%
%TO.N,SDA*%
X23194560Y-118050000D03*
%TD*%
D16*
%TO.P,J2,8,Pin_8*%
%TO.N,EN3*%
X39085000Y-102952000D03*
%TO.P,J2,7,Pin_7*%
%TO.N,EN2*%
X39085000Y-105492000D03*
%TO.P,J2,6,Pin_6*%
%TO.N,EN1*%
X39085000Y-108032000D03*
%TO.P,J2,5,Pin_5*%
%TO.N,EN6*%
X39085000Y-110572000D03*
%TO.P,J2,4,Pin_4*%
%TO.N,EN5*%
X39085000Y-113112000D03*
%TO.P,J2,3,Pin_3*%
%TO.N,EN4*%
X39085000Y-115652000D03*
%TO.P,J2,2,Pin_2*%
%TO.N,unconnected-(J2-Pad2)*%
X39085000Y-118192000D03*
D17*
%TO.P,J2,1,Pin_1*%
%TO.N,GND*%
X39085000Y-120732000D03*
%TD*%
D15*
%TO.P,C2,2*%
%TO.N,GND*%
X33062560Y-106960000D03*
%TO.P,C2,1*%
%TO.N,Net-(C2-Pad1)*%
X34022560Y-106960000D03*
%TD*%
D19*
%TO.P,U1,10,VDD*%
%TO.N,BAT*%
X34050560Y-108966800D03*
%TO.P,U1,9,OUT-*%
%TO.N,OUT2*%
X34550560Y-108966800D03*
%TO.P,U1,8,GND*%
%TO.N,GND*%
X34550560Y-108466800D03*
%TO.P,U1,7,OUT+*%
%TO.N,OUT1*%
X34550560Y-107966800D03*
%TO.P,U1,5,EN*%
%TO.N,EN1*%
X33550560Y-107966800D03*
%TO.P,U1,4,IN/TRIG*%
%TO.N,unconnected-(U1-Pad4)*%
X33550560Y-108466800D03*
%TO.P,U1,3,SDA*%
%TO.N,Net-(R1-Pad2)*%
X34050560Y-108466800D03*
%TO.P,U1,2,SCL*%
%TO.N,Net-(R2-Pad2)*%
X33550560Y-108966800D03*
%TO.P,U1,1,REG*%
%TO.N,Net-(C2-Pad1)*%
X34050560Y-107966800D03*
%TD*%
%TO.P,U3,10,VDD*%
%TO.N,BAT*%
X34098560Y-118618800D03*
%TO.P,U3,9,OUT-*%
%TO.N,OUT6*%
X34598560Y-118618800D03*
%TO.P,U3,8,GND*%
%TO.N,GND*%
X34598560Y-118118800D03*
%TO.P,U3,7,OUT+*%
%TO.N,OUT5*%
X34598560Y-117618800D03*
%TO.P,U3,5,EN*%
%TO.N,EN3*%
X33598560Y-117618800D03*
%TO.P,U3,4,IN/TRIG*%
%TO.N,unconnected-(U3-Pad4)*%
X33598560Y-118118800D03*
%TO.P,U3,3,SDA*%
%TO.N,Net-(R5-Pad2)*%
X34098560Y-118118800D03*
%TO.P,U3,2,SCL*%
%TO.N,Net-(R6-Pad2)*%
X33598560Y-118618800D03*
%TO.P,U3,1,REG*%
%TO.N,Net-(C6-Pad1)*%
X34098560Y-117618800D03*
%TD*%
D18*
%TO.P,R6,2*%
%TO.N,Net-(R6-Pad2)*%
X32881560Y-119642000D03*
%TO.P,R6,1*%
%TO.N,SCL*%
X31231560Y-119642000D03*
%TD*%
D14*
%TO.P,C5,2*%
%TO.N,GND*%
X35086560Y-119660000D03*
%TO.P,C5,1*%
%TO.N,BAT*%
X34126560Y-119660000D03*
%TD*%
D15*
%TO.P,C8,2*%
%TO.N,GND*%
X25925000Y-106875170D03*
%TO.P,C8,1*%
%TO.N,Net-(C8-Pad1)*%
X26885000Y-106875170D03*
%TD*%
D20*
%TO.N,GND*%
X35105000Y-108258170D03*
X35993000Y-119680170D03*
X27951000Y-115735170D03*
X35245560Y-118114000D03*
X29005000Y-119577170D03*
X27905000Y-110858170D03*
X25058000Y-106868170D03*
X28368540Y-112928170D03*
X34833037Y-115828439D03*
X34832000Y-110991170D03*
X28296000Y-118021170D03*
D21*
X28005000Y-108388170D03*
D20*
X35231000Y-113050170D03*
X32017000Y-107007170D03*
%TO.N,BAT*%
X34129000Y-115649170D03*
D21*
X34127000Y-120534170D03*
X27173000Y-115516170D03*
D20*
X27176000Y-120408170D03*
D21*
X34085000Y-110826170D03*
D20*
X27005000Y-110658170D03*
%TO.N,SCL*%
X31235000Y-109038170D03*
%TO.N,SDA*%
X30375000Y-107428170D03*
%TD*%
D22*
%TO.N,IN1*%
X27685000Y-82277000D02*
X27685000Y-79317000D01*
X25165000Y-84797000D02*
X25175000Y-84797000D01*
X19055000Y-55152067D02*
X19055000Y-82797480D01*
%TO.N,IN2*%
X21730134Y-54532000D02*
X20850067Y-54532000D01*
X19505000Y-55877067D02*
X19505000Y-82547000D01*
X26685000Y-82417000D02*
X26685000Y-78317000D01*
%TO.N,IN3*%
X25685000Y-79317000D02*
X25685000Y-82557000D01*
X25685000Y-82557000D02*
X24385000Y-83857000D01*
%TO.N,IN2*%
X26685000Y-78317000D02*
X27685000Y-77317000D01*
%TO.N,IN1*%
X25145000Y-84817000D02*
X25165000Y-84797000D01*
X19055000Y-82797480D02*
X21074520Y-84817000D01*
%TO.N,IN2*%
X20850067Y-54532000D02*
X19505000Y-55877067D01*
X21324520Y-84366520D02*
X24735480Y-84366520D01*
%TO.N,IN1*%
X21015067Y-53192000D02*
X19055000Y-55152067D01*
X25165000Y-84797000D02*
X27685000Y-82277000D01*
X21074520Y-84817000D02*
X25145000Y-84817000D01*
%TO.N,IN2*%
X24735480Y-84366520D02*
X26685000Y-82417000D01*
X19505000Y-82547000D02*
X21324520Y-84366520D01*
%TO.N,IN3*%
X21310000Y-60192000D02*
X21730134Y-60192000D01*
X19931520Y-61570480D02*
X21310000Y-60192000D01*
%TO.N,IN1*%
X21720134Y-53192000D02*
X21015067Y-53192000D01*
%TO.N,IN3*%
X21505000Y-83857000D02*
X19931520Y-82283520D01*
X19931520Y-82283520D02*
X19931520Y-61570480D01*
%TO.N,IN4*%
X21740134Y-61532000D02*
X21355067Y-61532000D01*
%TO.N,IN5*%
X20923614Y-78925614D02*
X21315000Y-79317000D01*
%TO.N,IN6*%
X21750134Y-68552000D02*
X21350134Y-68952000D01*
%TO.N,IN4*%
X24685000Y-82817000D02*
X24685000Y-78317000D01*
%TO.N,IN5*%
X21740134Y-67212000D02*
X21515067Y-67212000D01*
%TO.N,IN7*%
X32211190Y-84210000D02*
X36920000Y-84210000D01*
%TO.N,IN5*%
X21315000Y-79317000D02*
X23685000Y-79317000D01*
%TO.N,IN7*%
X30609511Y-78241511D02*
X30609511Y-82608321D01*
%TO.N,IN10*%
X39271520Y-81178480D02*
X39271520Y-61403520D01*
%TO.N,IN12*%
X38040000Y-67222000D02*
X38406387Y-67588387D01*
%TO.N,IN9*%
X37970000Y-61562000D02*
X37589867Y-61562000D01*
%TO.N,IN8*%
X31700000Y-84700000D02*
X29685000Y-82685000D01*
%TO.N,IN7*%
X30609511Y-82608321D02*
X32211190Y-84210000D01*
%TO.N,IN8*%
X38090000Y-53222000D02*
X40124560Y-55256560D01*
%TO.N,IN6*%
X21350134Y-68952000D02*
X21350134Y-74982134D01*
%TO.N,IN8*%
X29685000Y-82685000D02*
X29685000Y-79317000D01*
%TO.N,IN9*%
X32609511Y-78241511D02*
X32609511Y-82496471D01*
%TO.N,IN10*%
X31685000Y-82817000D02*
X32628000Y-83760000D01*
%TO.N,IN4*%
X21355067Y-61532000D02*
X20405000Y-62482067D01*
%TO.N,IN7*%
X29685000Y-77317000D02*
X30609511Y-78241511D01*
%TO.N,IN3*%
X24385000Y-83857000D02*
X21505000Y-83857000D01*
%TO.N,IN7*%
X39698040Y-81431960D02*
X39698040Y-56060040D01*
%TO.N,IN8*%
X40124560Y-55256560D02*
X40124560Y-81715440D01*
%TO.N,IN9*%
X38845000Y-80969994D02*
X38845000Y-62437000D01*
%TO.N,IN5*%
X20923614Y-67803453D02*
X20923614Y-78925614D01*
%TO.N,IN8*%
X37569867Y-53222000D02*
X38090000Y-53222000D01*
%TO.N,IN10*%
X36690000Y-83760000D02*
X39271520Y-81178480D01*
X31685000Y-79317000D02*
X31685000Y-82817000D01*
%TO.N,IN4*%
X24115000Y-83387000D02*
X24685000Y-82817000D01*
%TO.N,IN7*%
X36920000Y-84210000D02*
X39698040Y-81431960D01*
X39698040Y-56060040D02*
X38200000Y-54562000D01*
%TO.N,IN9*%
X33443040Y-83330000D02*
X36484994Y-83330000D01*
X31685000Y-77317000D02*
X32609511Y-78241511D01*
%TO.N,IN6*%
X21350134Y-74982134D02*
X23685000Y-77317000D01*
%TO.N,IN4*%
X24685000Y-78317000D02*
X25685000Y-77317000D01*
%TO.N,IN5*%
X21515067Y-67212000D02*
X20923614Y-67803453D01*
%TO.N,IN10*%
X32628000Y-83760000D02*
X36690000Y-83760000D01*
%TO.N,IN11*%
X37979867Y-71672133D02*
X33685000Y-75967000D01*
%TO.N,IN4*%
X21785000Y-83387000D02*
X24115000Y-83387000D01*
%TO.N,IN10*%
X38090000Y-60222000D02*
X37579867Y-60222000D01*
%TO.N,IN8*%
X40124560Y-81715440D02*
X37140000Y-84700000D01*
%TO.N,IN11*%
X33685000Y-75967000D02*
X33685000Y-77317000D01*
%TO.N,IN12*%
X38406387Y-67588387D02*
X38406387Y-80705613D01*
%TO.N,IN9*%
X32609511Y-82496471D02*
X33443040Y-83330000D01*
X36484994Y-83330000D02*
X38845000Y-80969994D01*
%TO.N,IN4*%
X20405000Y-62482067D02*
X20405000Y-82007000D01*
%TO.N,IN10*%
X39271520Y-61403520D02*
X38090000Y-60222000D01*
%TO.N,IN11*%
X37579867Y-68562000D02*
X37979867Y-68962000D01*
%TO.N,IN8*%
X37140000Y-84700000D02*
X31700000Y-84700000D01*
%TO.N,IN7*%
X38200000Y-54562000D02*
X37579867Y-54562000D01*
%TO.N,IN9*%
X38845000Y-62437000D02*
X37970000Y-61562000D01*
%TO.N,IN11*%
X37979867Y-68962000D02*
X37979867Y-71672133D01*
%TO.N,IN4*%
X20405000Y-82007000D02*
X21785000Y-83387000D01*
%TO.N,IN12*%
X37569867Y-67222000D02*
X38040000Y-67222000D01*
X36192000Y-82920000D02*
X34605000Y-82920000D01*
X33685000Y-82000000D02*
X33685000Y-79317000D01*
X34605000Y-82920000D02*
X33685000Y-82000000D01*
X38406387Y-80705613D02*
X36192000Y-82920000D01*
D23*
%TO.N,GND*%
X27951000Y-115735170D02*
X27730989Y-115955181D01*
D24*
X28088740Y-113207970D02*
X27647000Y-113207970D01*
D25*
X34598560Y-113292800D02*
X34988370Y-113292800D01*
D24*
X27905000Y-110858170D02*
X27951000Y-110812170D01*
X29005000Y-119577170D02*
X28137000Y-119577170D01*
D23*
X26702989Y-115955181D02*
X26131000Y-116527170D01*
D25*
X35245560Y-118114000D02*
X34603360Y-118114000D01*
D24*
X28137000Y-119577170D02*
X28135000Y-119575170D01*
X25058000Y-106868170D02*
X25918000Y-106868170D01*
D25*
X34896370Y-108466800D02*
X35105000Y-108258170D01*
D23*
X33110560Y-116612000D02*
X33622080Y-116100480D01*
X35086560Y-115574916D02*
X35086560Y-114834000D01*
D25*
X27405000Y-108381970D02*
X27998800Y-108381970D01*
X27998800Y-108381970D02*
X28005000Y-108388170D01*
X34603360Y-118114000D02*
X34598560Y-118118800D01*
D23*
X28135000Y-115551170D02*
X28135000Y-114749170D01*
D24*
X28368540Y-112928170D02*
X28088740Y-113207970D01*
D23*
X35038560Y-110784610D02*
X35038560Y-110008000D01*
D25*
X33062560Y-106960000D02*
X32064170Y-106960000D01*
X27951000Y-115735170D02*
X28135000Y-115551170D01*
D23*
X26670520Y-111189650D02*
X26159000Y-111701170D01*
D25*
X34988370Y-113292800D02*
X35231000Y-113050170D01*
D23*
X27951000Y-110812170D02*
X27951000Y-109989170D01*
X27573520Y-111189650D02*
X26670520Y-111189650D01*
X33622080Y-116100480D02*
X34560996Y-116100480D01*
X34560996Y-116100480D02*
X34833037Y-115828439D01*
D25*
X35106730Y-119680170D02*
X35086560Y-119660000D01*
D23*
X34548690Y-111274480D02*
X33650080Y-111274480D01*
D25*
X35993000Y-119680170D02*
X35106730Y-119680170D01*
D23*
X34832000Y-110991170D02*
X35038560Y-110784610D01*
D24*
X27659800Y-118021170D02*
X27647000Y-118033970D01*
D23*
X34833037Y-115828439D02*
X35086560Y-115574916D01*
X33650080Y-111274480D02*
X33138560Y-111786000D01*
X27730989Y-115955181D02*
X26702989Y-115955181D01*
D25*
X34550560Y-108466800D02*
X34896370Y-108466800D01*
D23*
X27905000Y-110858170D02*
X27573520Y-111189650D01*
D24*
X25918000Y-106868170D02*
X25925000Y-106875170D01*
X28296000Y-118021170D02*
X27659800Y-118021170D01*
D23*
X34832000Y-110991170D02*
X34548690Y-111274480D01*
D25*
X32064170Y-106960000D02*
X32017000Y-107007170D01*
%TO.N,BAT*%
X34098560Y-114806000D02*
X34126560Y-114834000D01*
X26905000Y-108881970D02*
X26905000Y-109903170D01*
X27175000Y-113735970D02*
X27147000Y-113707970D01*
X34098560Y-113792800D02*
X34098560Y-114806000D01*
X26925000Y-110578170D02*
X26925000Y-109923170D01*
X27147000Y-118533970D02*
X27147000Y-119547170D01*
X34126560Y-115646730D02*
X34129000Y-115649170D01*
X34126560Y-119660000D02*
X34126560Y-120533730D01*
X27175000Y-114749170D02*
X27175000Y-115514170D01*
X34126560Y-118646800D02*
X34098560Y-118618800D01*
X27147000Y-113707970D02*
X27147000Y-114721170D01*
X26925000Y-108901970D02*
X26905000Y-108881970D01*
X27005000Y-110658170D02*
X26925000Y-110578170D01*
X34126560Y-120533730D02*
X34127000Y-120534170D01*
X27175000Y-119575170D02*
X27175000Y-120407170D01*
X34050560Y-109980000D02*
X34078560Y-110008000D01*
X34126560Y-114834000D02*
X34126560Y-115646730D01*
X34098560Y-118618800D02*
X34098560Y-119632000D01*
X27147000Y-114721170D02*
X27175000Y-114749170D01*
X27175000Y-115514170D02*
X27173000Y-115516170D01*
X34126560Y-113820800D02*
X34098560Y-113792800D01*
X34050560Y-108966800D02*
X34050560Y-109980000D01*
X34078560Y-108994800D02*
X34050560Y-108966800D01*
X27175000Y-120407170D02*
X27176000Y-120408170D01*
X34078560Y-110008000D02*
X34078560Y-110819730D01*
X26905000Y-109903170D02*
X26925000Y-109923170D01*
X34098560Y-119632000D02*
X34126560Y-119660000D01*
X27147000Y-119547170D02*
X27175000Y-119575170D01*
X34078560Y-110819730D02*
X34085000Y-110826170D01*
X27175000Y-118561970D02*
X27147000Y-118533970D01*
%TO.N,Net-(C2-Pad1)*%
X34022560Y-107938800D02*
X34050560Y-107966800D01*
X34050560Y-106988000D02*
X34022560Y-106960000D01*
X34050560Y-107966800D02*
X34050560Y-106988000D01*
D23*
%TO.N,Net-(C4-Pad1)*%
X34098560Y-112792800D02*
X34098560Y-111786000D01*
D25*
%TO.N,Net-(C6-Pad1)*%
X34098560Y-116640000D02*
X34070560Y-116612000D01*
X34098560Y-117618800D02*
X34098560Y-116640000D01*
X34070560Y-117590800D02*
X34098560Y-117618800D01*
%TO.N,SCL*%
X22370117Y-105485830D02*
X21168036Y-105485830D01*
X31231560Y-109990000D02*
X31014560Y-110207000D01*
X31001560Y-119412000D02*
X31231560Y-119642000D01*
X23971560Y-107087273D02*
X22370117Y-105485830D01*
X23971560Y-109917000D02*
X23757580Y-110130980D01*
X23775000Y-114956980D02*
X23775000Y-119355020D01*
X23971560Y-109917000D02*
X23971560Y-107087273D01*
D23*
X31235000Y-109986560D02*
X31231560Y-109990000D01*
D25*
X23784580Y-109730020D02*
X23971560Y-109917000D01*
X31014560Y-110207000D02*
X31014560Y-114599000D01*
X23757580Y-114529020D02*
X23971560Y-114743000D01*
X31231560Y-114816000D02*
X31001560Y-115046000D01*
X23757580Y-119355020D02*
X23971560Y-119569000D01*
X23971560Y-114743000D02*
X23757580Y-114956980D01*
D23*
X31235000Y-109038170D02*
X31235000Y-109986560D01*
X31015000Y-115046000D02*
X31015000Y-119412000D01*
D25*
X23757580Y-110130980D02*
X23757580Y-114529020D01*
X31014560Y-114599000D02*
X31231560Y-114816000D01*
%TO.N,SDA*%
X23138830Y-108050000D02*
X23508000Y-108419170D01*
X30375000Y-108467440D02*
X30411560Y-108504000D01*
X30411560Y-113330000D02*
X30411560Y-118156000D01*
D26*
X30474560Y-108356800D02*
X30542560Y-108424800D01*
D25*
X30375000Y-107428170D02*
X30375000Y-108467440D01*
X23194560Y-108398000D02*
X22822390Y-108025830D01*
X22822390Y-108025830D02*
X21168036Y-108025830D01*
X23194560Y-108398000D02*
X23194560Y-118050000D01*
X30411560Y-108504000D02*
X30411560Y-113330000D01*
D23*
%TO.N,EN6*%
X25015000Y-119931735D02*
X26655110Y-121571845D01*
X25845000Y-118217000D02*
X25015000Y-119047000D01*
X37485960Y-112023346D02*
X39146476Y-110362830D01*
X37485960Y-120542665D02*
X37485960Y-112023346D01*
X25845000Y-117857000D02*
X25845000Y-118217000D01*
X26168030Y-117533970D02*
X25845000Y-117857000D01*
X26647000Y-117533970D02*
X26168030Y-117533970D01*
X36456780Y-121571845D02*
X37485960Y-120542665D01*
X26655110Y-121571845D02*
X36456780Y-121571845D01*
X25015000Y-119047000D02*
X25015000Y-119931735D01*
%TO.N,EN5*%
X37685480Y-114363826D02*
X39146476Y-112902830D01*
X37685480Y-120668485D02*
X37685480Y-114363826D01*
X24934000Y-114278000D02*
X24934000Y-115953737D01*
X26164030Y-112707970D02*
X25855000Y-113017000D01*
X25855000Y-113217000D02*
X25855000Y-113357000D01*
X24245000Y-118516007D02*
X24805000Y-119076007D01*
X25855000Y-113357000D02*
X24934000Y-114278000D01*
X26572467Y-121771365D02*
X36582600Y-121771365D01*
X24805000Y-119076007D02*
X24805000Y-120003898D01*
X36582600Y-121771365D02*
X37685480Y-120668485D01*
X24245000Y-116642737D02*
X24245000Y-118516007D01*
X26647000Y-112707970D02*
X26164030Y-112707970D01*
X25855000Y-113017000D02*
X25855000Y-113217000D01*
X24934000Y-115953737D02*
X24245000Y-116642737D01*
X24805000Y-120003898D02*
X26572467Y-121771365D01*
%TO.N,EN4*%
X24700000Y-115905574D02*
X24700000Y-114273170D01*
X39146476Y-115442830D02*
X37885000Y-116704306D01*
X25605000Y-108817000D02*
X24815000Y-109607000D01*
X37885000Y-120751128D02*
X36665244Y-121970884D01*
X26489823Y-121970884D02*
X24585000Y-120066061D01*
X25605000Y-108157000D02*
X25605000Y-108817000D01*
X24093000Y-113666170D02*
X24093000Y-111024170D01*
X24093000Y-111024170D02*
X24815000Y-110302170D01*
X24815000Y-110302170D02*
X24815000Y-109727000D01*
X24815000Y-109607000D02*
X24815000Y-109727000D01*
X24700000Y-114273170D02*
X24093000Y-113666170D01*
X37885000Y-116704306D02*
X37885000Y-120751128D01*
X25880030Y-107881970D02*
X25605000Y-108157000D01*
X36665244Y-121970884D02*
X26489823Y-121970884D01*
X24585000Y-119138170D02*
X24015000Y-118568170D01*
X24585000Y-120066061D02*
X24585000Y-119138170D01*
D27*
X26405000Y-107988170D02*
X26405000Y-107881970D01*
D23*
X24015000Y-116590574D02*
X24700000Y-115905574D01*
X24015000Y-118568170D02*
X24015000Y-116590574D01*
X26405000Y-107881970D02*
X25880030Y-107881970D01*
%TO.N,EN3*%
X32865000Y-117817000D02*
X32865000Y-118507000D01*
X32865000Y-118507000D02*
X32275000Y-119097000D01*
X39146476Y-102742830D02*
X36887400Y-105001906D01*
X33598560Y-117618800D02*
X33063200Y-117618800D01*
X33063200Y-117618800D02*
X32865000Y-117817000D01*
X36887400Y-120294734D02*
X36208847Y-120973287D01*
X36208847Y-120973287D02*
X32810983Y-120973287D01*
X32810983Y-120973287D02*
X32275000Y-120437304D01*
X32275000Y-120437304D02*
X32275000Y-119107000D01*
X32275000Y-119097000D02*
X32275000Y-119107000D01*
X36887400Y-105001906D02*
X36887400Y-120294734D01*
%TO.N,EN2*%
X33598560Y-112792800D02*
X33189200Y-112792800D01*
X32075000Y-115809164D02*
X32075000Y-114477000D01*
X39146476Y-105282830D02*
X37086920Y-107342386D01*
X32728339Y-121172806D02*
X32065000Y-120509467D01*
X32065000Y-119168804D02*
X31455000Y-118558804D01*
X32935000Y-113617000D02*
X32935000Y-113507000D01*
X31455000Y-116429164D02*
X32075000Y-115809164D01*
X32935000Y-113047000D02*
X32935000Y-113507000D01*
X33189200Y-112792800D02*
X32935000Y-113047000D01*
X31455000Y-118558804D02*
X31455000Y-116429164D01*
X37086920Y-107342386D02*
X37086920Y-120377378D01*
X32075000Y-114477000D02*
X32935000Y-113617000D01*
X32065000Y-120509467D02*
X32065000Y-119168804D01*
X37086920Y-120377378D02*
X36291492Y-121172806D01*
X36291492Y-121172806D02*
X32728339Y-121172806D01*
%TO.N,EN1*%
X31244580Y-113626580D02*
X31865000Y-114247000D01*
X33033760Y-107966800D02*
X32743524Y-108257036D01*
X31865000Y-114247000D02*
X31865000Y-115737000D01*
X36374137Y-121372325D02*
X37286440Y-120460022D01*
X33550560Y-107966800D02*
X33033760Y-107966800D01*
X37286440Y-120460022D02*
X37286440Y-109682866D01*
X32043524Y-109641170D02*
X32043524Y-110701076D01*
X31244580Y-111500020D02*
X31244580Y-113626580D01*
X31865000Y-115737000D02*
X31235000Y-116367000D01*
X32743524Y-108257036D02*
X32743524Y-108941170D01*
X32043524Y-110701076D02*
X31244580Y-111500020D01*
X31865481Y-120592112D02*
X32645694Y-121372325D01*
X31865480Y-119251448D02*
X31865481Y-120592112D01*
X37286440Y-109682866D02*
X39146476Y-107822830D01*
X32743524Y-108941170D02*
X32043524Y-109641170D01*
X31235000Y-116367000D02*
X31235000Y-118620968D01*
X32645694Y-121372325D02*
X36374137Y-121372325D01*
X31235000Y-118620968D02*
X31865480Y-119251448D01*
D25*
%TO.N,OUT1*%
X30185000Y-93000000D02*
X29185000Y-94000000D01*
X35346269Y-106898269D02*
X35346269Y-107171091D01*
X29185000Y-100737000D02*
X35346269Y-106898269D01*
X29185000Y-94000000D02*
X29185000Y-100737000D01*
X35346269Y-107171091D02*
X34550560Y-107966800D01*
%TO.N,OUT2*%
X35599789Y-106793257D02*
X35599789Y-108563381D01*
X35196370Y-108966800D02*
X34550560Y-108966800D01*
X35599789Y-108563381D02*
X35196370Y-108966800D01*
X29438520Y-100631988D02*
X35599789Y-106793257D01*
X30185000Y-95000000D02*
X29438520Y-95746480D01*
X29438520Y-95746480D02*
X29438520Y-100631988D01*
%TO.N,OUT3*%
X31185000Y-94000000D02*
X31185000Y-102019936D01*
X32185000Y-93000000D02*
X31185000Y-94000000D01*
X31185000Y-102019936D02*
X35853309Y-106688245D01*
X35853309Y-106688245D02*
X35853309Y-111538051D01*
X35853309Y-111538051D02*
X34598560Y-112792800D01*
%TO.N,OUT4*%
X31438520Y-101914924D02*
X36106829Y-106583233D01*
X31438520Y-95746480D02*
X31438520Y-101914924D01*
X36106829Y-106583233D02*
X36106829Y-113052341D01*
X32185000Y-95000000D02*
X31438520Y-95746480D01*
X36106829Y-113052341D02*
X35366370Y-113792800D01*
X35366370Y-113792800D02*
X34598560Y-113792800D01*
%TO.N,OUT5*%
X34185000Y-93000000D02*
X33185000Y-94000000D01*
X36360349Y-106478221D02*
X36360349Y-115857011D01*
X33185000Y-94000000D02*
X33185000Y-103302872D01*
X33185000Y-103302872D02*
X35192064Y-105309936D01*
X35135000Y-105252872D02*
X35192064Y-105309936D01*
X35192064Y-105309936D02*
X36360349Y-106478221D01*
X36360349Y-115857011D02*
X34598560Y-117618800D01*
%TO.N,OUT6*%
X36613869Y-106373209D02*
X36613869Y-117474691D01*
X34185000Y-95000000D02*
X33438520Y-95746480D01*
X33438520Y-103197860D02*
X36613869Y-106373209D01*
X35469760Y-118618800D02*
X34598560Y-118618800D01*
X33438520Y-95746480D02*
X33438520Y-103197860D01*
X36613869Y-117474691D02*
X35469760Y-118618800D01*
%TO.N,OUT7*%
X28237400Y-106542372D02*
X28237400Y-107049570D01*
X22685000Y-94500000D02*
X22685000Y-100989971D01*
X22685000Y-100989971D02*
X28237400Y-106542372D01*
X24185000Y-93000000D02*
X22685000Y-94500000D01*
X28237400Y-107049570D02*
X27405000Y-107881970D01*
%TO.N,OUT8*%
X28490920Y-108672250D02*
X28281200Y-108881970D01*
X22938520Y-96561480D02*
X22938520Y-100884960D01*
X24185000Y-95000000D02*
X22938520Y-96246480D01*
X22938520Y-100884960D02*
X28490920Y-106437360D01*
X28490920Y-106437360D02*
X28490920Y-108672250D01*
X28281200Y-108881970D02*
X27405000Y-108881970D01*
X22938520Y-96246480D02*
X22938520Y-96561480D01*
%TO.N,OUT9*%
X28744440Y-106332348D02*
X28744440Y-111610530D01*
X25185000Y-94000000D02*
X25185000Y-102772908D01*
X28744440Y-111610530D02*
X27647000Y-112707970D01*
X25185000Y-102772908D02*
X28744440Y-106332348D01*
X26185000Y-93000000D02*
X25185000Y-94000000D01*
%TO.N,OUT10*%
X28451200Y-113707970D02*
X27647000Y-113707970D01*
X25438520Y-95746480D02*
X25438520Y-102667896D01*
X28997960Y-106227336D02*
X28997960Y-113161210D01*
X26185000Y-95000000D02*
X25438520Y-95746480D01*
X28997960Y-113161210D02*
X28451200Y-113707970D01*
X25438520Y-102667896D02*
X28997960Y-106227336D01*
%TO.N,OUT11*%
X29251480Y-106250520D02*
X29251480Y-115929490D01*
X27185000Y-94000000D02*
X27185000Y-95815000D01*
X29251480Y-106122325D02*
X29251480Y-106250520D01*
X27185000Y-104055844D02*
X29251480Y-106122324D01*
X29251480Y-106122324D02*
X29251480Y-106250520D01*
X27185000Y-95815000D02*
X27185000Y-104055844D01*
X29251480Y-115929490D02*
X27647000Y-117533970D01*
X29131480Y-106002324D02*
X29251480Y-106122325D01*
X28185000Y-93000000D02*
X27185000Y-94000000D01*
%TO.N,OUT12*%
X27438520Y-103950832D02*
X29505000Y-106017312D01*
X29505000Y-106017312D02*
X29505000Y-106997000D01*
X28509200Y-118533970D02*
X29505000Y-117538170D01*
X29505000Y-117538170D02*
X29505000Y-106997000D01*
X27438520Y-95746480D02*
X27438520Y-103950832D01*
X29505000Y-106997000D02*
X29505000Y-106637000D01*
X27647000Y-118533970D02*
X28509200Y-118533970D01*
X28185000Y-95000000D02*
X27438520Y-95746480D01*
D27*
%TO.N,Net-(R1-Pad2)*%
X34050560Y-108466800D02*
X33801560Y-108217800D01*
X33801560Y-108217800D02*
X33801560Y-107773000D01*
X32263871Y-108706311D02*
X32061560Y-108504000D01*
X33651560Y-107623000D02*
X32942560Y-107623000D01*
X33801560Y-107773000D02*
X33651560Y-107623000D01*
X32942560Y-107623000D02*
X32061560Y-108504000D01*
D25*
%TO.N,Net-(R2-Pad2)*%
X32881560Y-109990000D02*
X32881560Y-109635800D01*
X32881560Y-109635800D02*
X33550560Y-108966800D01*
D27*
%TO.N,Net-(R3-Pad2)*%
X33847560Y-112594000D02*
X33668560Y-112415000D01*
X34098560Y-113292800D02*
X33847560Y-113041800D01*
X32976560Y-112415000D02*
X32061560Y-113330000D01*
X32263871Y-113532311D02*
X32061560Y-113330000D01*
X33847560Y-113041800D02*
X33847560Y-112594000D01*
X33668560Y-112415000D02*
X32976560Y-112415000D01*
D25*
%TO.N,Net-(R4-Pad2)*%
X32881560Y-114816000D02*
X32881560Y-114509800D01*
X32881560Y-114509800D02*
X33598560Y-113792800D01*
D27*
%TO.N,Net-(R5-Pad2)*%
X33848560Y-117382000D02*
X33715560Y-117249000D01*
X33848560Y-117868800D02*
X33848560Y-117382000D01*
X32263871Y-118358311D02*
X32061560Y-118156000D01*
X34098560Y-118118800D02*
X33848560Y-117868800D01*
X33715560Y-117249000D02*
X32968560Y-117249000D01*
X32968560Y-117249000D02*
X32061560Y-118156000D01*
D25*
%TO.N,Net-(R6-Pad2)*%
X32881560Y-119335800D02*
X33598560Y-118618800D01*
X32881560Y-119642000D02*
X32881560Y-119335800D01*
D27*
%TO.N,Net-(R7-Pad2)*%
X26655000Y-108131970D02*
X26655000Y-107658170D01*
X25768560Y-107474000D02*
X24844560Y-108398000D01*
X25068041Y-108621481D02*
X24844560Y-108398000D01*
X26470830Y-107474000D02*
X25768560Y-107474000D01*
X26905000Y-108381970D02*
X26655000Y-108131970D01*
X26655000Y-107658170D02*
X26470830Y-107474000D01*
%TO.N,Net-(R8-Pad2)*%
X25621560Y-109665410D02*
X25621560Y-109917000D01*
X26405000Y-108881970D02*
X25621560Y-109665410D01*
%TO.N,Net-(R9-Pad2)*%
X27147000Y-113207970D02*
X26895560Y-112956530D01*
X25709560Y-112359000D02*
X24844560Y-113224000D01*
X25068041Y-113447481D02*
X24844560Y-113224000D01*
X26712560Y-112359000D02*
X25709560Y-112359000D01*
X26895560Y-112542000D02*
X26712560Y-112359000D01*
X26895560Y-112956530D02*
X26895560Y-112542000D01*
%TO.N,Net-(R10-Pad2)*%
X26647000Y-113707970D02*
X25621560Y-114733410D01*
X25621560Y-114733410D02*
X25621560Y-114743000D01*
%TO.N,Net-(R11-Pad2)*%
X25068041Y-118273481D02*
X24844560Y-118050000D01*
X26693560Y-117136000D02*
X25758560Y-117136000D01*
X27147000Y-118033970D02*
X26898560Y-117785530D01*
X26898560Y-117341000D02*
X26693560Y-117136000D01*
X25758560Y-117136000D02*
X24844560Y-118050000D01*
X26898560Y-117785530D02*
X26898560Y-117341000D01*
%TO.N,Net-(R12-Pad2)*%
X26647000Y-118533970D02*
X25621560Y-119559410D01*
X25621560Y-119559410D02*
X25621560Y-119569000D01*
D23*
%TO.N,Net-(C8-Pad1)*%
X26905000Y-106895170D02*
X26885000Y-106875170D01*
X26905000Y-107881970D02*
X26905000Y-106895170D01*
D25*
%TO.N,Net-(C10-Pad1)*%
X27147000Y-111729170D02*
X27119000Y-111701170D01*
X27147000Y-112707970D02*
X27147000Y-111729170D01*
X27119000Y-112679970D02*
X27147000Y-112707970D01*
D23*
%TO.N,Net-(C12-Pad1)*%
X27147000Y-116583170D02*
X27091000Y-116527170D01*
X27147000Y-117533970D02*
X27147000Y-116583170D01*
%TD*%
%TA.AperFunction,Conductor*%
%TO.N,GND*%
G36*
X39470057Y-90009500D02*
G01*
X39484858Y-90011805D01*
X39484861Y-90011805D01*
X39493730Y-90013186D01*
X39514158Y-90010515D01*
X39535983Y-90009571D01*
X39886007Y-90024853D01*
X39896958Y-90025811D01*
X40274579Y-90075527D01*
X40285403Y-90077436D01*
X40657243Y-90159870D01*
X40667860Y-90162715D01*
X41031110Y-90277248D01*
X41041425Y-90281001D01*
X41393334Y-90426766D01*
X41403269Y-90431399D01*
X41741128Y-90607278D01*
X41750637Y-90612768D01*
X42071860Y-90817410D01*
X42080864Y-90823714D01*
X42383043Y-91055583D01*
X42391463Y-91062649D01*
X42672268Y-91319959D01*
X42680041Y-91327732D01*
X42937351Y-91608537D01*
X42944417Y-91616957D01*
X43176286Y-91919136D01*
X43182590Y-91928140D01*
X43192730Y-91944057D01*
X43347104Y-92186374D01*
X43387232Y-92249363D01*
X43392722Y-92258872D01*
X43568601Y-92596731D01*
X43573234Y-92606666D01*
X43646439Y-92783400D01*
X43718996Y-92958568D01*
X43722751Y-92968887D01*
X43814317Y-93259294D01*
X43837285Y-93332139D01*
X43840130Y-93342757D01*
X43922564Y-93714597D01*
X43924473Y-93725421D01*
X43974189Y-94103042D01*
X43975147Y-94113993D01*
X43985890Y-94360050D01*
X43990104Y-94456583D01*
X43988724Y-94481461D01*
X43986814Y-94493730D01*
X43988638Y-94507678D01*
X43990936Y-94525251D01*
X43992000Y-94541589D01*
X43992000Y-125950672D01*
X43990500Y-125970056D01*
X43986814Y-125993730D01*
X43989485Y-126014158D01*
X43990429Y-126035983D01*
X43975147Y-126386006D01*
X43975147Y-126386007D01*
X43974189Y-126396958D01*
X43924473Y-126774579D01*
X43922564Y-126785403D01*
X43840130Y-127157243D01*
X43837285Y-127167861D01*
X43722755Y-127531103D01*
X43718996Y-127541432D01*
X43573238Y-127893325D01*
X43568601Y-127903269D01*
X43392722Y-128241128D01*
X43387232Y-128250637D01*
X43182590Y-128571860D01*
X43176286Y-128580864D01*
X42944417Y-128883043D01*
X42937351Y-128891463D01*
X42680041Y-129172268D01*
X42672268Y-129180041D01*
X42391463Y-129437351D01*
X42383043Y-129444417D01*
X42080864Y-129676286D01*
X42071860Y-129682590D01*
X41750637Y-129887232D01*
X41741128Y-129892722D01*
X41403269Y-130068601D01*
X41393334Y-130073234D01*
X41041425Y-130218999D01*
X41031110Y-130222752D01*
X40667861Y-130337285D01*
X40657243Y-130340130D01*
X40285403Y-130422564D01*
X40274579Y-130424473D01*
X39896958Y-130474189D01*
X39886007Y-130475147D01*
X39543417Y-130490104D01*
X39518539Y-130488724D01*
X39518160Y-130488665D01*
X39506270Y-130486814D01*
X39474749Y-130490936D01*
X39458411Y-130492000D01*
X21049328Y-130492000D01*
X21029943Y-130490500D01*
X21015142Y-130488195D01*
X21015139Y-130488195D01*
X21006270Y-130486814D01*
X20985842Y-130489485D01*
X20964017Y-130490429D01*
X20613993Y-130475147D01*
X20603042Y-130474189D01*
X20225421Y-130424473D01*
X20214597Y-130422564D01*
X19842757Y-130340130D01*
X19832139Y-130337285D01*
X19468890Y-130222752D01*
X19458575Y-130218999D01*
X19106666Y-130073234D01*
X19096731Y-130068601D01*
X18758872Y-129892722D01*
X18749363Y-129887232D01*
X18428140Y-129682590D01*
X18419136Y-129676286D01*
X18116957Y-129444417D01*
X18108537Y-129437351D01*
X17827732Y-129180041D01*
X17819959Y-129172268D01*
X17562649Y-128891463D01*
X17555583Y-128883043D01*
X17323714Y-128580864D01*
X17317410Y-128571860D01*
X17112768Y-128250637D01*
X17107278Y-128241128D01*
X16931399Y-127903269D01*
X16926762Y-127893325D01*
X16781004Y-127541432D01*
X16777245Y-127531103D01*
X16662715Y-127167861D01*
X16659870Y-127157243D01*
X16577436Y-126785403D01*
X16575527Y-126774579D01*
X16525811Y-126396957D01*
X16524853Y-126386006D01*
X16510059Y-126047173D01*
X16511686Y-126020769D01*
X16512263Y-126017342D01*
X16512263Y-126017340D01*
X16513071Y-126012539D01*
X16513224Y-126000000D01*
X16509273Y-125972412D01*
X16508000Y-125954549D01*
X16508000Y-120703695D01*
X19962251Y-120703695D01*
X19962548Y-120708848D01*
X19962548Y-120708851D01*
X19969340Y-120826644D01*
X19975110Y-120926715D01*
X19976247Y-120931761D01*
X19976248Y-120931767D01*
X19994633Y-121013345D01*
X20024222Y-121144639D01*
X20108266Y-121351616D01*
X20224987Y-121542088D01*
X20371250Y-121710938D01*
X20543126Y-121853632D01*
X20736000Y-121966338D01*
X20944692Y-122046030D01*
X20949760Y-122047061D01*
X20949763Y-122047062D01*
X21057017Y-122068883D01*
X21163597Y-122090567D01*
X21168772Y-122090757D01*
X21168774Y-122090757D01*
X21381673Y-122098564D01*
X21381677Y-122098564D01*
X21386837Y-122098753D01*
X21391957Y-122098097D01*
X21391959Y-122098097D01*
X21603288Y-122071025D01*
X21603289Y-122071025D01*
X21608416Y-122070368D01*
X21613366Y-122068883D01*
X21817429Y-122007661D01*
X21817434Y-122007659D01*
X21822384Y-122006174D01*
X22022994Y-121907896D01*
X22204860Y-121778173D01*
X22363096Y-121620489D01*
X22422594Y-121537689D01*
X22490435Y-121443277D01*
X22493453Y-121439077D01*
X22592430Y-121238811D01*
X22657370Y-121025069D01*
X22686529Y-120803590D01*
X22686964Y-120785779D01*
X22688074Y-120740365D01*
X22688074Y-120740361D01*
X22688156Y-120737000D01*
X22669852Y-120514361D01*
X22615431Y-120297702D01*
X22526354Y-120092840D01*
X22447371Y-119970751D01*
X22407822Y-119909617D01*
X22407820Y-119909614D01*
X22405014Y-119905277D01*
X22254670Y-119740051D01*
X22250619Y-119736852D01*
X22250615Y-119736848D01*
X22083414Y-119604800D01*
X22083410Y-119604798D01*
X22079359Y-119601598D01*
X22037569Y-119578529D01*
X21987598Y-119528097D01*
X21972826Y-119458654D01*
X21997942Y-119392248D01*
X22025294Y-119365641D01*
X22200328Y-119240792D01*
X22208200Y-119234139D01*
X22359052Y-119083812D01*
X22365730Y-119075965D01*
X22449698Y-118959111D01*
X22505692Y-118915463D01*
X22576396Y-118909017D01*
X22617291Y-118924861D01*
X22683480Y-118964946D01*
X22700861Y-118975472D01*
X22708108Y-118977743D01*
X22708110Y-118977744D01*
X22768204Y-118996576D01*
X22864498Y-119026753D01*
X22937925Y-119033500D01*
X22943684Y-119033500D01*
X23011805Y-119053502D01*
X23058298Y-119107158D01*
X23069155Y-119171028D01*
X23066885Y-119195735D01*
X23063060Y-119237365D01*
X23063061Y-119900634D01*
X23063324Y-119903492D01*
X23063324Y-119903501D01*
X23065795Y-119930391D01*
X23069807Y-119974062D01*
X23071806Y-119980440D01*
X23071806Y-119980441D01*
X23108519Y-120097590D01*
X23121088Y-120137699D01*
X23209921Y-120284381D01*
X23331179Y-120405639D01*
X23477861Y-120494472D01*
X23485108Y-120496743D01*
X23485110Y-120496744D01*
X23551396Y-120517517D01*
X23641498Y-120545753D01*
X23714925Y-120552500D01*
X23717823Y-120552500D01*
X24228194Y-120552499D01*
X24228194Y-120553696D01*
X24292582Y-120569457D01*
X24318452Y-120589351D01*
X26084178Y-122355078D01*
X26087831Y-122358887D01*
X26130475Y-122405262D01*
X26158748Y-122422792D01*
X26168064Y-122428568D01*
X26177847Y-122435292D01*
X26206230Y-122456836D01*
X26206232Y-122456837D01*
X26213076Y-122462032D01*
X26221067Y-122465196D01*
X26221071Y-122465198D01*
X26227410Y-122467708D01*
X26247426Y-122477775D01*
X26253221Y-122481368D01*
X26253226Y-122481370D01*
X26260525Y-122485896D01*
X26283763Y-122492647D01*
X26302992Y-122498234D01*
X26314222Y-122502079D01*
X26347361Y-122515200D01*
X26347368Y-122515202D01*
X26355350Y-122518362D01*
X26363892Y-122519260D01*
X26363893Y-122519260D01*
X26368836Y-122519779D01*
X26370680Y-122519973D01*
X26392664Y-122524286D01*
X26407469Y-122528587D01*
X26414046Y-122529070D01*
X26416015Y-122529215D01*
X26416026Y-122529215D01*
X26418322Y-122529384D01*
X26453610Y-122529384D01*
X26466781Y-122530074D01*
X26507531Y-122534357D01*
X26526509Y-122531147D01*
X26547511Y-122529384D01*
X36650082Y-122529384D01*
X36655358Y-122529495D01*
X36669173Y-122530074D01*
X36718298Y-122532133D01*
X36761366Y-122522032D01*
X36773027Y-122519871D01*
X36792479Y-122517206D01*
X36808337Y-122515034D01*
X36808338Y-122515034D01*
X36816848Y-122513868D01*
X36824731Y-122510456D01*
X36824733Y-122510456D01*
X36830998Y-122507745D01*
X36852270Y-122500710D01*
X36858911Y-122499153D01*
X36858915Y-122499152D01*
X36867274Y-122497191D01*
X36906037Y-122475881D01*
X36916697Y-122470659D01*
X36949400Y-122456507D01*
X36949401Y-122456507D01*
X36957282Y-122453096D01*
X36963955Y-122447693D01*
X36963959Y-122447690D01*
X36969263Y-122443395D01*
X36987853Y-122430903D01*
X36995576Y-122426657D01*
X36995579Y-122426655D01*
X37001367Y-122423473D01*
X37006362Y-122419161D01*
X37006366Y-122419158D01*
X37007852Y-122417875D01*
X37007860Y-122417868D01*
X37009604Y-122416362D01*
X37034553Y-122391413D01*
X37044354Y-122382587D01*
X37069525Y-122362204D01*
X37076201Y-122356798D01*
X37087347Y-122341114D01*
X37100958Y-122325008D01*
X37601816Y-121824150D01*
X37664128Y-121790124D01*
X37734943Y-121795189D01*
X37791738Y-121837681D01*
X37866716Y-121937725D01*
X37879276Y-121950285D01*
X37981351Y-122026786D01*
X37996946Y-122035324D01*
X38117394Y-122080478D01*
X38132649Y-122084105D01*
X38183514Y-122089631D01*
X38190328Y-122090000D01*
X38812885Y-122090000D01*
X38828124Y-122085525D01*
X38829329Y-122084135D01*
X38831000Y-122076452D01*
X38831000Y-122071884D01*
X39339000Y-122071884D01*
X39343475Y-122087123D01*
X39344865Y-122088328D01*
X39352548Y-122089999D01*
X39979669Y-122089999D01*
X39986490Y-122089629D01*
X40037352Y-122084105D01*
X40052604Y-122080479D01*
X40173054Y-122035324D01*
X40188649Y-122026786D01*
X40290724Y-121950285D01*
X40303285Y-121937724D01*
X40379786Y-121835649D01*
X40388324Y-121820054D01*
X40433478Y-121699606D01*
X40437105Y-121684351D01*
X40442631Y-121633486D01*
X40443000Y-121626672D01*
X40443000Y-121004115D01*
X40438525Y-120988876D01*
X40437135Y-120987671D01*
X40429452Y-120986000D01*
X39357115Y-120986000D01*
X39341876Y-120990475D01*
X39340671Y-120991865D01*
X39339000Y-120999548D01*
X39339000Y-122071884D01*
X38831000Y-122071884D01*
X38831000Y-120604000D01*
X38851002Y-120535879D01*
X38904658Y-120489386D01*
X38957000Y-120478000D01*
X40424884Y-120478000D01*
X40440123Y-120473525D01*
X40441328Y-120472135D01*
X40442999Y-120464452D01*
X40442999Y-119837331D01*
X40442629Y-119830510D01*
X40437105Y-119779648D01*
X40433479Y-119764396D01*
X40388324Y-119643946D01*
X40379786Y-119628351D01*
X40303285Y-119526276D01*
X40290724Y-119513715D01*
X40188649Y-119437214D01*
X40173054Y-119428676D01*
X40062813Y-119387348D01*
X40006049Y-119344706D01*
X39981349Y-119278145D01*
X39996557Y-119208796D01*
X40018104Y-119180115D01*
X40119430Y-119079144D01*
X40119440Y-119079132D01*
X40123096Y-119075489D01*
X40157677Y-119027365D01*
X40250435Y-118898277D01*
X40253453Y-118894077D01*
X40324829Y-118749659D01*
X40350136Y-118698453D01*
X40350137Y-118698451D01*
X40352430Y-118693811D01*
X40407473Y-118512645D01*
X40415865Y-118485023D01*
X40415865Y-118485021D01*
X40417370Y-118480069D01*
X40446529Y-118258590D01*
X40448156Y-118192000D01*
X40429852Y-117969361D01*
X40375431Y-117752702D01*
X40286354Y-117547840D01*
X40165014Y-117360277D01*
X40014670Y-117195051D01*
X40010619Y-117191852D01*
X40010615Y-117191848D01*
X39843414Y-117059800D01*
X39843410Y-117059798D01*
X39839359Y-117056598D01*
X39798053Y-117033796D01*
X39748084Y-116983364D01*
X39733312Y-116913921D01*
X39758428Y-116847516D01*
X39785780Y-116820909D01*
X39856693Y-116770327D01*
X39964860Y-116693173D01*
X39997646Y-116660502D01*
X40119435Y-116539137D01*
X40123096Y-116535489D01*
X40133717Y-116520709D01*
X40250435Y-116358277D01*
X40253453Y-116354077D01*
X40273713Y-116313085D01*
X40350136Y-116158453D01*
X40350137Y-116158451D01*
X40352430Y-116153811D01*
X40402065Y-115990443D01*
X40415865Y-115945023D01*
X40415865Y-115945021D01*
X40417370Y-115940069D01*
X40446529Y-115718590D01*
X40448156Y-115652000D01*
X40429852Y-115429361D01*
X40375431Y-115212702D01*
X40286354Y-115007840D01*
X40165014Y-114820277D01*
X40014670Y-114655051D01*
X40010619Y-114651852D01*
X40010615Y-114651848D01*
X39843414Y-114519800D01*
X39843410Y-114519798D01*
X39839359Y-114516598D01*
X39798053Y-114493796D01*
X39748084Y-114443364D01*
X39733312Y-114373921D01*
X39758428Y-114307516D01*
X39785780Y-114280909D01*
X39856693Y-114230327D01*
X39964860Y-114153173D01*
X40123096Y-113995489D01*
X40163414Y-113939381D01*
X40250435Y-113818277D01*
X40253453Y-113814077D01*
X40296574Y-113726829D01*
X40350136Y-113618453D01*
X40350137Y-113618451D01*
X40352430Y-113613811D01*
X40417370Y-113400069D01*
X40446529Y-113178590D01*
X40446611Y-113175240D01*
X40448074Y-113115365D01*
X40448074Y-113115361D01*
X40448156Y-113112000D01*
X40429852Y-112889361D01*
X40375431Y-112672702D01*
X40286354Y-112467840D01*
X40207856Y-112346500D01*
X40167822Y-112284617D01*
X40167820Y-112284614D01*
X40165014Y-112280277D01*
X40014670Y-112115051D01*
X40010619Y-112111852D01*
X40010615Y-112111848D01*
X39843414Y-111979800D01*
X39843410Y-111979798D01*
X39839359Y-111976598D01*
X39798053Y-111953796D01*
X39748084Y-111903364D01*
X39733312Y-111833921D01*
X39758428Y-111767516D01*
X39785780Y-111740909D01*
X39856693Y-111690327D01*
X39964860Y-111613173D01*
X39972402Y-111605658D01*
X40057528Y-111520828D01*
X40123096Y-111455489D01*
X40146578Y-111422811D01*
X40250435Y-111278277D01*
X40253453Y-111274077D01*
X40262631Y-111255508D01*
X40350136Y-111078453D01*
X40350137Y-111078451D01*
X40352430Y-111073811D01*
X40417370Y-110860069D01*
X40446529Y-110638590D01*
X40448156Y-110572000D01*
X40429852Y-110349361D01*
X40375431Y-110132702D01*
X40286354Y-109927840D01*
X40221543Y-109827658D01*
X40167822Y-109744617D01*
X40167820Y-109744614D01*
X40165014Y-109740277D01*
X40014670Y-109575051D01*
X40010619Y-109571852D01*
X40010615Y-109571848D01*
X39843414Y-109439800D01*
X39843410Y-109439798D01*
X39839359Y-109436598D01*
X39798053Y-109413796D01*
X39748084Y-109363364D01*
X39733312Y-109293921D01*
X39758428Y-109227516D01*
X39785780Y-109200909D01*
X39917604Y-109106880D01*
X39964860Y-109073173D01*
X40003979Y-109034191D01*
X40119435Y-108919137D01*
X40123096Y-108915489D01*
X40253453Y-108734077D01*
X40296574Y-108646829D01*
X40350136Y-108538453D01*
X40350137Y-108538451D01*
X40352430Y-108533811D01*
X40417370Y-108320069D01*
X40446529Y-108098590D01*
X40448156Y-108032000D01*
X40429852Y-107809361D01*
X40375431Y-107592702D01*
X40286354Y-107387840D01*
X40208740Y-107267867D01*
X40167822Y-107204617D01*
X40167820Y-107204614D01*
X40165014Y-107200277D01*
X40014670Y-107035051D01*
X40010619Y-107031852D01*
X40010615Y-107031848D01*
X39843414Y-106899800D01*
X39843410Y-106899798D01*
X39839359Y-106896598D01*
X39798053Y-106873796D01*
X39748084Y-106823364D01*
X39733312Y-106753921D01*
X39758428Y-106687516D01*
X39785780Y-106660909D01*
X39849570Y-106615408D01*
X39964860Y-106533173D01*
X39995380Y-106502760D01*
X40119435Y-106379137D01*
X40123096Y-106375489D01*
X40196374Y-106273512D01*
X40250435Y-106198277D01*
X40253453Y-106194077D01*
X40256120Y-106188682D01*
X40350136Y-105998453D01*
X40350137Y-105998451D01*
X40352430Y-105993811D01*
X40392976Y-105860359D01*
X40415865Y-105785023D01*
X40415865Y-105785021D01*
X40417370Y-105780069D01*
X40446529Y-105558590D01*
X40448156Y-105492000D01*
X40429852Y-105269361D01*
X40375431Y-105052702D01*
X40286354Y-104847840D01*
X40229207Y-104759504D01*
X40167822Y-104664617D01*
X40167820Y-104664614D01*
X40165014Y-104660277D01*
X40014670Y-104495051D01*
X40010619Y-104491852D01*
X40010615Y-104491848D01*
X39843414Y-104359800D01*
X39843410Y-104359798D01*
X39839359Y-104356598D01*
X39798053Y-104333796D01*
X39748084Y-104283364D01*
X39733312Y-104213921D01*
X39758428Y-104147516D01*
X39785780Y-104120909D01*
X39869922Y-104060891D01*
X39964860Y-103993173D01*
X40123096Y-103835489D01*
X40253453Y-103654077D01*
X40352430Y-103453811D01*
X40417370Y-103240069D01*
X40446529Y-103018590D01*
X40448156Y-102952000D01*
X40429852Y-102729361D01*
X40375431Y-102512702D01*
X40286354Y-102307840D01*
X40165014Y-102120277D01*
X40014670Y-101955051D01*
X40010619Y-101951852D01*
X40010615Y-101951848D01*
X39843414Y-101819800D01*
X39843410Y-101819798D01*
X39839359Y-101816598D01*
X39643789Y-101708638D01*
X39638920Y-101706914D01*
X39638916Y-101706912D01*
X39438087Y-101635795D01*
X39438083Y-101635794D01*
X39433212Y-101634069D01*
X39428119Y-101633162D01*
X39428116Y-101633161D01*
X39218373Y-101595800D01*
X39218367Y-101595799D01*
X39213284Y-101594894D01*
X39139452Y-101593992D01*
X38995081Y-101592228D01*
X38995079Y-101592228D01*
X38989911Y-101592165D01*
X38769091Y-101625955D01*
X38556756Y-101695357D01*
X38358607Y-101798507D01*
X38354474Y-101801610D01*
X38354471Y-101801612D01*
X38184100Y-101929530D01*
X38179965Y-101932635D01*
X38025629Y-102094138D01*
X37899743Y-102278680D01*
X37805688Y-102481305D01*
X37745989Y-102696570D01*
X37722251Y-102918695D01*
X37722548Y-102923848D01*
X37722548Y-102923851D01*
X37728011Y-103018590D01*
X37735110Y-103141715D01*
X37736247Y-103146761D01*
X37736248Y-103146767D01*
X37760797Y-103255697D01*
X37756261Y-103326549D01*
X37726975Y-103372493D01*
X36503219Y-104596249D01*
X36499410Y-104599902D01*
X36453022Y-104642558D01*
X36448497Y-104649856D01*
X36429718Y-104680144D01*
X36422993Y-104689928D01*
X36401447Y-104718314D01*
X36401445Y-104718317D01*
X36396252Y-104725159D01*
X36393089Y-104733148D01*
X36390576Y-104739494D01*
X36380512Y-104759504D01*
X36376917Y-104765302D01*
X36376915Y-104765307D01*
X36372388Y-104772608D01*
X36369991Y-104780859D01*
X36360048Y-104815083D01*
X36356203Y-104826312D01*
X36343084Y-104859447D01*
X36343083Y-104859453D01*
X36339923Y-104867433D01*
X36339026Y-104875971D01*
X36339024Y-104875977D01*
X36338310Y-104882768D01*
X36334000Y-104904740D01*
X36329697Y-104919552D01*
X36328900Y-104930405D01*
X36328900Y-104965696D01*
X36328210Y-104978862D01*
X36327314Y-104987390D01*
X36300304Y-105053048D01*
X36242084Y-105093679D01*
X36171139Y-105096385D01*
X36112909Y-105063319D01*
X34047425Y-102997835D01*
X34013399Y-102935523D01*
X34010520Y-102908740D01*
X34010520Y-96308690D01*
X34030522Y-96240569D01*
X34084178Y-96194076D01*
X34141466Y-96182787D01*
X34183134Y-96184424D01*
X34247205Y-96186941D01*
X34462466Y-96155730D01*
X34467930Y-96153875D01*
X34467935Y-96153874D01*
X34662963Y-96087671D01*
X34662968Y-96087669D01*
X34668435Y-96085813D01*
X34858213Y-95979532D01*
X35025446Y-95840446D01*
X35085252Y-95768537D01*
X35144189Y-95728953D01*
X35215171Y-95727517D01*
X35277913Y-95767258D01*
X35281204Y-95771914D01*
X35285347Y-95775950D01*
X35285348Y-95775951D01*
X35351554Y-95840446D01*
X35437009Y-95923692D01*
X35617863Y-96044536D01*
X35623171Y-96046817D01*
X35623172Y-96046817D01*
X35812409Y-96128119D01*
X35812412Y-96128120D01*
X35817712Y-96130397D01*
X35823342Y-96131671D01*
X35948099Y-96159901D01*
X36029860Y-96178402D01*
X36035631Y-96178629D01*
X36035633Y-96178629D01*
X36108620Y-96181496D01*
X36247205Y-96186941D01*
X36462466Y-96155730D01*
X36467930Y-96153875D01*
X36467935Y-96153874D01*
X36662963Y-96087671D01*
X36662968Y-96087669D01*
X36668435Y-96085813D01*
X36858213Y-95979532D01*
X37025446Y-95840446D01*
X37164532Y-95673213D01*
X37270813Y-95483435D01*
X37272669Y-95477968D01*
X37272671Y-95477963D01*
X37338874Y-95282935D01*
X37338875Y-95282930D01*
X37340730Y-95277466D01*
X37371941Y-95062205D01*
X37373570Y-95000000D01*
X37353667Y-94783400D01*
X37294626Y-94574055D01*
X37198423Y-94378974D01*
X37183409Y-94358867D01*
X37071733Y-94209315D01*
X37071732Y-94209314D01*
X37068280Y-94204691D01*
X36946078Y-94091729D01*
X36909633Y-94030800D01*
X36911914Y-93959840D01*
X36951038Y-93902330D01*
X37021008Y-93844137D01*
X37025446Y-93840446D01*
X37164532Y-93673213D01*
X37270813Y-93483435D01*
X37272669Y-93477968D01*
X37272671Y-93477963D01*
X37338874Y-93282935D01*
X37338875Y-93282930D01*
X37340730Y-93277466D01*
X37371941Y-93062205D01*
X37373570Y-93000000D01*
X37353667Y-92783400D01*
X37294626Y-92574055D01*
X37198423Y-92378974D01*
X37085100Y-92227215D01*
X37071733Y-92209315D01*
X37071732Y-92209314D01*
X37068280Y-92204691D01*
X36908556Y-92057044D01*
X36724599Y-91940976D01*
X36522572Y-91860376D01*
X36309239Y-91817941D01*
X36303464Y-91817865D01*
X36303460Y-91817865D01*
X36194419Y-91816438D01*
X36091746Y-91815094D01*
X36086049Y-91816073D01*
X36086048Y-91816073D01*
X35883065Y-91850952D01*
X35883062Y-91850953D01*
X35877375Y-91851930D01*
X35673307Y-91927214D01*
X35486376Y-92038427D01*
X35322842Y-92181842D01*
X35319270Y-92186372D01*
X35319269Y-92186374D01*
X35285007Y-92229834D01*
X35227125Y-92270947D01*
X35156205Y-92274239D01*
X35094763Y-92238667D01*
X35085100Y-92227215D01*
X35071737Y-92209319D01*
X35071730Y-92209312D01*
X35068280Y-92204691D01*
X34908556Y-92057044D01*
X34724599Y-91940976D01*
X34522572Y-91860376D01*
X34309239Y-91817941D01*
X34303464Y-91817865D01*
X34303460Y-91817865D01*
X34194419Y-91816438D01*
X34091746Y-91815094D01*
X34086049Y-91816073D01*
X34086048Y-91816073D01*
X33883065Y-91850952D01*
X33883062Y-91850953D01*
X33877375Y-91851930D01*
X33673307Y-91927214D01*
X33486376Y-92038427D01*
X33322842Y-92181842D01*
X33319270Y-92186372D01*
X33319269Y-92186374D01*
X33285007Y-92229834D01*
X33227125Y-92270947D01*
X33156205Y-92274239D01*
X33094763Y-92238667D01*
X33085100Y-92227215D01*
X33071737Y-92209319D01*
X33071730Y-92209312D01*
X33068280Y-92204691D01*
X32908556Y-92057044D01*
X32724599Y-91940976D01*
X32522572Y-91860376D01*
X32309239Y-91817941D01*
X32303464Y-91817865D01*
X32303460Y-91817865D01*
X32194419Y-91816438D01*
X32091746Y-91815094D01*
X32086049Y-91816073D01*
X32086048Y-91816073D01*
X31883065Y-91850952D01*
X31883062Y-91850953D01*
X31877375Y-91851930D01*
X31673307Y-91927214D01*
X31486376Y-92038427D01*
X31322842Y-92181842D01*
X31319270Y-92186372D01*
X31319269Y-92186374D01*
X31285007Y-92229834D01*
X31227125Y-92270947D01*
X31156205Y-92274239D01*
X31094763Y-92238667D01*
X31085100Y-92227215D01*
X31071737Y-92209319D01*
X31071730Y-92209312D01*
X31068280Y-92204691D01*
X30908556Y-92057044D01*
X30724599Y-91940976D01*
X30522572Y-91860376D01*
X30309239Y-91817941D01*
X30303464Y-91817865D01*
X30303460Y-91817865D01*
X30194419Y-91816438D01*
X30091746Y-91815094D01*
X30086049Y-91816073D01*
X30086048Y-91816073D01*
X29883065Y-91850952D01*
X29883062Y-91850953D01*
X29877375Y-91851930D01*
X29673307Y-91927214D01*
X29486376Y-92038427D01*
X29322842Y-92181842D01*
X29319270Y-92186372D01*
X29319269Y-92186374D01*
X29285007Y-92229834D01*
X29227125Y-92270947D01*
X29156205Y-92274239D01*
X29094763Y-92238667D01*
X29085100Y-92227215D01*
X29071737Y-92209319D01*
X29071730Y-92209312D01*
X29068280Y-92204691D01*
X28908556Y-92057044D01*
X28724599Y-91940976D01*
X28522572Y-91860376D01*
X28309239Y-91817941D01*
X28303464Y-91817865D01*
X28303460Y-91817865D01*
X28194419Y-91816438D01*
X28091746Y-91815094D01*
X28086049Y-91816073D01*
X28086048Y-91816073D01*
X27883065Y-91850952D01*
X27883062Y-91850953D01*
X27877375Y-91851930D01*
X27673307Y-91927214D01*
X27486376Y-92038427D01*
X27322842Y-92181842D01*
X27319270Y-92186372D01*
X27319269Y-92186374D01*
X27285007Y-92229834D01*
X27227125Y-92270947D01*
X27156205Y-92274239D01*
X27094763Y-92238667D01*
X27085100Y-92227215D01*
X27071737Y-92209319D01*
X27071730Y-92209312D01*
X27068280Y-92204691D01*
X26908556Y-92057044D01*
X26724599Y-91940976D01*
X26522572Y-91860376D01*
X26309239Y-91817941D01*
X26303464Y-91817865D01*
X26303460Y-91817865D01*
X26194419Y-91816438D01*
X26091746Y-91815094D01*
X26086049Y-91816073D01*
X26086048Y-91816073D01*
X25883065Y-91850952D01*
X25883062Y-91850953D01*
X25877375Y-91851930D01*
X25673307Y-91927214D01*
X25486376Y-92038427D01*
X25322842Y-92181842D01*
X25319270Y-92186372D01*
X25319269Y-92186374D01*
X25285007Y-92229834D01*
X25227125Y-92270947D01*
X25156205Y-92274239D01*
X25094763Y-92238667D01*
X25085100Y-92227215D01*
X25071737Y-92209319D01*
X25071730Y-92209312D01*
X25068280Y-92204691D01*
X24908556Y-92057044D01*
X24724599Y-91940976D01*
X24522572Y-91860376D01*
X24309239Y-91817941D01*
X24303464Y-91817865D01*
X24303460Y-91817865D01*
X24194419Y-91816438D01*
X24091746Y-91815094D01*
X24086049Y-91816073D01*
X24086048Y-91816073D01*
X23883065Y-91850952D01*
X23883062Y-91850953D01*
X23877375Y-91851930D01*
X23673307Y-91927214D01*
X23486376Y-92038427D01*
X23322842Y-92181842D01*
X23319270Y-92186373D01*
X23269613Y-92249363D01*
X23188181Y-92352658D01*
X23086905Y-92545154D01*
X23022403Y-92752882D01*
X22996837Y-92968887D01*
X23011063Y-93185933D01*
X23012486Y-93191535D01*
X23029694Y-93259294D01*
X23027075Y-93330242D01*
X22996666Y-93379404D01*
X22312886Y-94063184D01*
X22300495Y-94074051D01*
X22277045Y-94092045D01*
X22254025Y-94122045D01*
X22254024Y-94122046D01*
X22254019Y-94122053D01*
X22210781Y-94178401D01*
X22210781Y-94178402D01*
X22185359Y-94211532D01*
X22182200Y-94219158D01*
X22182199Y-94219160D01*
X22159385Y-94274239D01*
X22127723Y-94350678D01*
X22113000Y-94462508D01*
X22113000Y-94462514D01*
X22108065Y-94500000D01*
X22109143Y-94508188D01*
X22109143Y-94508189D01*
X22111922Y-94529298D01*
X22113000Y-94545744D01*
X22113000Y-100944227D01*
X22111922Y-100960673D01*
X22108065Y-100989971D01*
X22113000Y-101027457D01*
X22113000Y-101027463D01*
X22124519Y-101114954D01*
X22127723Y-101139293D01*
X22185359Y-101278439D01*
X22190386Y-101284990D01*
X22190387Y-101284992D01*
X22246138Y-101357647D01*
X22275411Y-101395796D01*
X22301012Y-101462016D01*
X22286748Y-101531565D01*
X22237147Y-101582361D01*
X22175449Y-101598500D01*
X20426866Y-101598500D01*
X20364684Y-101605255D01*
X20228295Y-101656385D01*
X20111739Y-101743739D01*
X20024385Y-101860295D01*
X19973255Y-101996684D01*
X19966500Y-102058866D01*
X19966500Y-103855134D01*
X19973255Y-103917316D01*
X20024385Y-104053705D01*
X20111739Y-104170261D01*
X20228295Y-104257615D01*
X20236704Y-104260767D01*
X20236705Y-104260768D01*
X20345451Y-104301535D01*
X20402216Y-104344176D01*
X20426916Y-104410738D01*
X20411709Y-104480087D01*
X20392316Y-104506568D01*
X20265629Y-104639138D01*
X20262715Y-104643410D01*
X20262714Y-104643411D01*
X20234210Y-104685197D01*
X20139743Y-104823680D01*
X20107127Y-104893946D01*
X20063752Y-104987390D01*
X20045688Y-105026305D01*
X19985989Y-105241570D01*
X19962251Y-105463695D01*
X19962548Y-105468848D01*
X19962548Y-105468851D01*
X19969322Y-105586337D01*
X19975110Y-105686715D01*
X19976247Y-105691761D01*
X19976248Y-105691767D01*
X20000304Y-105798508D01*
X20024222Y-105904639D01*
X20073299Y-106025501D01*
X20105692Y-106105276D01*
X20108266Y-106111616D01*
X20128352Y-106144394D01*
X20207476Y-106273512D01*
X20224987Y-106302088D01*
X20371250Y-106470938D01*
X20543126Y-106613632D01*
X20585534Y-106638413D01*
X20616445Y-106656476D01*
X20665169Y-106708114D01*
X20678240Y-106777897D01*
X20651509Y-106843669D01*
X20611055Y-106877027D01*
X20598607Y-106883507D01*
X20594474Y-106886610D01*
X20594471Y-106886612D01*
X20435694Y-107005825D01*
X20419965Y-107017635D01*
X20363599Y-107076618D01*
X20285042Y-107158824D01*
X20265629Y-107179138D01*
X20262715Y-107183410D01*
X20262714Y-107183411D01*
X20213938Y-107254914D01*
X20139743Y-107363680D01*
X20111636Y-107424232D01*
X20064102Y-107526636D01*
X20045688Y-107566305D01*
X19985989Y-107781570D01*
X19962251Y-108003695D01*
X19962548Y-108008848D01*
X19962548Y-108008851D01*
X19967914Y-108101908D01*
X19975110Y-108226715D01*
X19976247Y-108231761D01*
X19976248Y-108231767D01*
X19997265Y-108325023D01*
X20024222Y-108444639D01*
X20108266Y-108651616D01*
X20224987Y-108842088D01*
X20371250Y-109010938D01*
X20543126Y-109153632D01*
X20613595Y-109194811D01*
X20616445Y-109196476D01*
X20665169Y-109248114D01*
X20678240Y-109317897D01*
X20651509Y-109383669D01*
X20611055Y-109417027D01*
X20598607Y-109423507D01*
X20594474Y-109426610D01*
X20594471Y-109426612D01*
X20438478Y-109543735D01*
X20419965Y-109557635D01*
X20416393Y-109561373D01*
X20313380Y-109669170D01*
X20265629Y-109719138D01*
X20262715Y-109723410D01*
X20262714Y-109723411D01*
X20248248Y-109744617D01*
X20139743Y-109903680D01*
X20045688Y-110106305D01*
X19985989Y-110321570D01*
X19962251Y-110543695D01*
X19962548Y-110548848D01*
X19962548Y-110548851D01*
X19974812Y-110761547D01*
X19975110Y-110766715D01*
X19976247Y-110771761D01*
X19976248Y-110771767D01*
X19996247Y-110860508D01*
X20024222Y-110984639D01*
X20108266Y-111191616D01*
X20143389Y-111248931D01*
X20219786Y-111373600D01*
X20224987Y-111382088D01*
X20371250Y-111550938D01*
X20543126Y-111693632D01*
X20580424Y-111715427D01*
X20616445Y-111736476D01*
X20665169Y-111788114D01*
X20678240Y-111857897D01*
X20651509Y-111923669D01*
X20611055Y-111957027D01*
X20598607Y-111963507D01*
X20594474Y-111966610D01*
X20594471Y-111966612D01*
X20424100Y-112094530D01*
X20419965Y-112097635D01*
X20265629Y-112259138D01*
X20262715Y-112263410D01*
X20262714Y-112263411D01*
X20248248Y-112284617D01*
X20139743Y-112443680D01*
X20045688Y-112646305D01*
X19985989Y-112861570D01*
X19962251Y-113083695D01*
X19962548Y-113088848D01*
X19962548Y-113088851D01*
X19967914Y-113181908D01*
X19975110Y-113306715D01*
X19976247Y-113311761D01*
X19976248Y-113311767D01*
X19997265Y-113405023D01*
X20024222Y-113524639D01*
X20108266Y-113731616D01*
X20224987Y-113922088D01*
X20371250Y-114090938D01*
X20543126Y-114233632D01*
X20597229Y-114265247D01*
X20616445Y-114276476D01*
X20665169Y-114328114D01*
X20678240Y-114397897D01*
X20651509Y-114463669D01*
X20611055Y-114497027D01*
X20598607Y-114503507D01*
X20594474Y-114506610D01*
X20594471Y-114506612D01*
X20441894Y-114621170D01*
X20419965Y-114637635D01*
X20265629Y-114799138D01*
X20262715Y-114803410D01*
X20262714Y-114803411D01*
X20248248Y-114824617D01*
X20139743Y-114983680D01*
X20045688Y-115186305D01*
X19985989Y-115401570D01*
X19962251Y-115623695D01*
X19962548Y-115628848D01*
X19962548Y-115628851D01*
X19968666Y-115734958D01*
X19975110Y-115846715D01*
X19976247Y-115851761D01*
X19976248Y-115851767D01*
X19996953Y-115943638D01*
X20024222Y-116064639D01*
X20075132Y-116190016D01*
X20091565Y-116230485D01*
X20108266Y-116271616D01*
X20120565Y-116291686D01*
X20206340Y-116431658D01*
X20224987Y-116462088D01*
X20371250Y-116630938D01*
X20543126Y-116773632D01*
X20603355Y-116808827D01*
X20616955Y-116816774D01*
X20665679Y-116868412D01*
X20678750Y-116938195D01*
X20652019Y-117003967D01*
X20611562Y-117037327D01*
X20603457Y-117041546D01*
X20594738Y-117047036D01*
X20424433Y-117174905D01*
X20416726Y-117181748D01*
X20269590Y-117335717D01*
X20263104Y-117343727D01*
X20143098Y-117519649D01*
X20138000Y-117528623D01*
X20048338Y-117721783D01*
X20044775Y-117731470D01*
X19989389Y-117931183D01*
X19990912Y-117939607D01*
X20003292Y-117943000D01*
X21453000Y-117943000D01*
X21521121Y-117963002D01*
X21567614Y-118016658D01*
X21579000Y-118069000D01*
X21579000Y-118325000D01*
X21558998Y-118393121D01*
X21505342Y-118439614D01*
X21453000Y-118451000D01*
X20008225Y-118451000D01*
X19994694Y-118454973D01*
X19993257Y-118464966D01*
X20023565Y-118599446D01*
X20026645Y-118609275D01*
X20106770Y-118806603D01*
X20111413Y-118815794D01*
X20222694Y-118997388D01*
X20228777Y-119005699D01*
X20368213Y-119166667D01*
X20375580Y-119173883D01*
X20539434Y-119309916D01*
X20547881Y-119315831D01*
X20616969Y-119356203D01*
X20665693Y-119407842D01*
X20678764Y-119477625D01*
X20652033Y-119543396D01*
X20611584Y-119576752D01*
X20598607Y-119583507D01*
X20594474Y-119586610D01*
X20594471Y-119586612D01*
X20424100Y-119714530D01*
X20419965Y-119717635D01*
X20416393Y-119721373D01*
X20290102Y-119853529D01*
X20265629Y-119879138D01*
X20262715Y-119883410D01*
X20262714Y-119883411D01*
X20229396Y-119932254D01*
X20139743Y-120063680D01*
X20102369Y-120144196D01*
X20066597Y-120221261D01*
X20045688Y-120266305D01*
X19985989Y-120481570D01*
X19962251Y-120703695D01*
X16508000Y-120703695D01*
X16508000Y-94553207D01*
X16509746Y-94532303D01*
X16512264Y-94517335D01*
X16513071Y-94512539D01*
X16513224Y-94500000D01*
X16510885Y-94483664D01*
X16509733Y-94460311D01*
X16514111Y-94360050D01*
X16524853Y-94113993D01*
X16525811Y-94103042D01*
X16575527Y-93725421D01*
X16577436Y-93714597D01*
X16659870Y-93342757D01*
X16662715Y-93332139D01*
X16685683Y-93259294D01*
X16777249Y-92968887D01*
X16781004Y-92958568D01*
X16853561Y-92783400D01*
X16926766Y-92606666D01*
X16931399Y-92596731D01*
X17107278Y-92258872D01*
X17112768Y-92249363D01*
X17152897Y-92186374D01*
X17307270Y-91944057D01*
X17317410Y-91928140D01*
X17323714Y-91919136D01*
X17555583Y-91616957D01*
X17562649Y-91608537D01*
X17819959Y-91327732D01*
X17827732Y-91319959D01*
X18108537Y-91062649D01*
X18116957Y-91055583D01*
X18419136Y-90823714D01*
X18428140Y-90817410D01*
X18749363Y-90612768D01*
X18758872Y-90607278D01*
X19096731Y-90431399D01*
X19106666Y-90426766D01*
X19458575Y-90281001D01*
X19468890Y-90277248D01*
X19832140Y-90162715D01*
X19842757Y-90159870D01*
X20214597Y-90077436D01*
X20225421Y-90075527D01*
X20603042Y-90025811D01*
X20613993Y-90024853D01*
X20881226Y-90013186D01*
X20956583Y-90009896D01*
X20981462Y-90011276D01*
X20993730Y-90013186D01*
X21025252Y-90009064D01*
X21041589Y-90008000D01*
X39450672Y-90008000D01*
X39470057Y-90009500D01*
G37*
%TD.AperFunction*%
%TA.AperFunction,Conductor*%
G36*
X29443621Y-118512645D02*
G01*
X29500457Y-118555192D01*
X29519822Y-118593021D01*
X29561088Y-118724699D01*
X29649921Y-118871381D01*
X29771179Y-118992639D01*
X29917861Y-119081472D01*
X29925108Y-119083743D01*
X29925110Y-119083744D01*
X29991396Y-119104517D01*
X30081498Y-119132753D01*
X30154925Y-119139500D01*
X30200652Y-119139500D01*
X30268773Y-119159502D01*
X30315266Y-119213158D01*
X30326123Y-119277029D01*
X30325287Y-119286131D01*
X30323060Y-119310365D01*
X30323061Y-119973634D01*
X30329807Y-120047062D01*
X30331806Y-120053440D01*
X30331806Y-120053441D01*
X30345642Y-120097590D01*
X30381088Y-120210699D01*
X30469921Y-120357381D01*
X30591179Y-120478639D01*
X30737861Y-120567472D01*
X30745108Y-120569743D01*
X30745110Y-120569744D01*
X30807677Y-120589351D01*
X30901498Y-120618753D01*
X30974925Y-120625500D01*
X30983500Y-120625500D01*
X31196387Y-120625499D01*
X31264507Y-120645501D01*
X31311000Y-120699156D01*
X31321220Y-120734396D01*
X31322497Y-120743716D01*
X31325909Y-120751599D01*
X31325909Y-120751601D01*
X31328620Y-120757866D01*
X31335655Y-120779138D01*
X31337212Y-120785779D01*
X31337213Y-120785783D01*
X31339174Y-120794142D01*
X31352081Y-120817619D01*
X31357042Y-120826644D01*
X31372331Y-120895975D01*
X31347710Y-120962566D01*
X31290996Y-121005275D01*
X31246627Y-121013345D01*
X27979646Y-121013345D01*
X27911525Y-120993343D01*
X27865032Y-120939687D01*
X27854928Y-120869413D01*
X27874697Y-120817619D01*
X27881813Y-120806908D01*
X27899643Y-120780072D01*
X27958360Y-120625500D01*
X27961555Y-120617090D01*
X27961556Y-120617088D01*
X27964055Y-120610508D01*
X27965035Y-120603536D01*
X27988748Y-120434809D01*
X27988748Y-120434806D01*
X27989299Y-120430887D01*
X27989616Y-120408170D01*
X27985192Y-120368728D01*
X28389000Y-120368728D01*
X28392973Y-120382259D01*
X28400871Y-120383394D01*
X28526784Y-120346813D01*
X28541220Y-120340566D01*
X28668499Y-120265294D01*
X28680926Y-120255654D01*
X28785484Y-120151096D01*
X28795124Y-120138669D01*
X28870396Y-120011390D01*
X28876643Y-119996954D01*
X28918312Y-119853529D01*
X28919768Y-119845561D01*
X28916948Y-119832139D01*
X28905487Y-119829170D01*
X28407115Y-119829170D01*
X28391876Y-119833645D01*
X28390671Y-119835035D01*
X28389000Y-119842718D01*
X28389000Y-120368728D01*
X27985192Y-120368728D01*
X27969397Y-120227915D01*
X27960878Y-120203450D01*
X27917564Y-120079071D01*
X27915558Y-120002481D01*
X27923106Y-119976501D01*
X27960606Y-119847424D01*
X27961164Y-119840342D01*
X27963307Y-119813110D01*
X27963307Y-119813102D01*
X27963500Y-119810654D01*
X27963500Y-119447170D01*
X27983502Y-119379049D01*
X28037158Y-119332556D01*
X28089500Y-119321170D01*
X28903424Y-119321170D01*
X28918219Y-119316826D01*
X28920063Y-119306395D01*
X28918312Y-119296811D01*
X28876643Y-119153386D01*
X28870394Y-119138946D01*
X28861688Y-119124224D01*
X28844229Y-119055407D01*
X28866747Y-118988076D01*
X28893435Y-118960126D01*
X28917155Y-118941925D01*
X28935153Y-118918470D01*
X28946020Y-118906080D01*
X29310494Y-118541606D01*
X29372806Y-118507580D01*
X29443621Y-118512645D01*
G37*
%TD.AperFunction*%
%TA.AperFunction,Conductor*%
G36*
X36246932Y-118754724D02*
G01*
X36303768Y-118797271D01*
X36328579Y-118863791D01*
X36328900Y-118872780D01*
X36328900Y-120011206D01*
X36308898Y-120079327D01*
X36291995Y-120100301D01*
X36014414Y-120377882D01*
X35952102Y-120411908D01*
X35925319Y-120414787D01*
X35854458Y-120414787D01*
X35786337Y-120394785D01*
X35739844Y-120341129D01*
X35729740Y-120270855D01*
X35746004Y-120224648D01*
X35821956Y-120096220D01*
X35828203Y-120081784D01*
X35869872Y-119938359D01*
X35871328Y-119930391D01*
X35868508Y-119916969D01*
X35857047Y-119914000D01*
X35041060Y-119914000D01*
X34972939Y-119893998D01*
X34926446Y-119840342D01*
X34915060Y-119788000D01*
X34915060Y-119532000D01*
X34935062Y-119463879D01*
X34988718Y-119417386D01*
X35041060Y-119406000D01*
X35854984Y-119406000D01*
X35869779Y-119401656D01*
X35871623Y-119391225D01*
X35869872Y-119381641D01*
X35828203Y-119238216D01*
X35821958Y-119223786D01*
X35816057Y-119213808D01*
X35798597Y-119144992D01*
X35821113Y-119077660D01*
X35847806Y-119049705D01*
X35868780Y-119033611D01*
X35877715Y-119026755D01*
X35895713Y-119003300D01*
X35906580Y-118990910D01*
X36113805Y-118783685D01*
X36176117Y-118749659D01*
X36246932Y-118754724D01*
G37*
%TD.AperFunction*%
%TA.AperFunction,Conductor*%
G36*
X33224181Y-116378002D02*
G01*
X33270674Y-116431658D01*
X33282060Y-116484000D01*
X33282060Y-116574500D01*
X33262058Y-116642621D01*
X33208402Y-116689114D01*
X33156060Y-116700500D01*
X32983505Y-116700500D01*
X32978229Y-116700389D01*
X32973669Y-116700198D01*
X32916456Y-116697800D01*
X32908091Y-116699762D01*
X32874263Y-116707696D01*
X32862591Y-116709859D01*
X32828183Y-116714572D01*
X32828182Y-116714572D01*
X32819671Y-116715738D01*
X32807293Y-116721095D01*
X32805963Y-116721670D01*
X32784693Y-116728704D01*
X32770147Y-116732116D01*
X32762622Y-116736253D01*
X32762619Y-116736254D01*
X32732170Y-116752994D01*
X32721510Y-116758216D01*
X32689634Y-116772010D01*
X32689630Y-116772012D01*
X32681751Y-116775422D01*
X32675076Y-116780827D01*
X32670140Y-116784824D01*
X32651557Y-116797311D01*
X32638456Y-116804514D01*
X32630372Y-116811492D01*
X32612769Y-116829095D01*
X32550457Y-116863121D01*
X32523674Y-116866000D01*
X32342136Y-116866000D01*
X32327341Y-116870344D01*
X32325497Y-116880775D01*
X32327248Y-116890359D01*
X32356944Y-116992573D01*
X32356741Y-117063569D01*
X32325040Y-117116824D01*
X32306265Y-117135598D01*
X32243952Y-117169621D01*
X32217174Y-117172500D01*
X32194425Y-117172500D01*
X32139500Y-117172501D01*
X32071381Y-117152500D01*
X32024887Y-117098845D01*
X32013500Y-117046501D01*
X32013500Y-116712692D01*
X32033502Y-116644571D01*
X32050405Y-116623597D01*
X32279097Y-116394905D01*
X32341409Y-116360879D01*
X32368192Y-116358000D01*
X33156060Y-116358000D01*
X33224181Y-116378002D01*
G37*
%TD.AperFunction*%
%TA.AperFunction,Conductor*%
G36*
X35282681Y-114600002D02*
G01*
X35329174Y-114653658D01*
X35340560Y-114706000D01*
X35340560Y-115627558D01*
X35344533Y-115641089D01*
X35352431Y-115642224D01*
X35464394Y-115609696D01*
X35535391Y-115609899D01*
X35595007Y-115648453D01*
X35624315Y-115713118D01*
X35614011Y-115783363D01*
X35588642Y-115819788D01*
X35054661Y-116353769D01*
X34992349Y-116387795D01*
X34921534Y-116382730D01*
X34864698Y-116340183D01*
X34844569Y-116299827D01*
X34812666Y-116190016D01*
X34812665Y-116190014D01*
X34810454Y-116182403D01*
X34810760Y-116182314D01*
X34802634Y-116116467D01*
X34822018Y-116067166D01*
X34852643Y-116021072D01*
X34896117Y-115906627D01*
X34914555Y-115858090D01*
X34914556Y-115858088D01*
X34917055Y-115851508D01*
X34918455Y-115841547D01*
X34941748Y-115675809D01*
X34941748Y-115675806D01*
X34942299Y-115671887D01*
X34942616Y-115649170D01*
X34922397Y-115468915D01*
X34877648Y-115340412D01*
X34872603Y-115325926D01*
X34870597Y-115249336D01*
X34879782Y-115217720D01*
X34912166Y-115106254D01*
X34915060Y-115069484D01*
X34915060Y-114706000D01*
X34935062Y-114637879D01*
X34988718Y-114591386D01*
X35041060Y-114580000D01*
X35214560Y-114580000D01*
X35282681Y-114600002D01*
G37*
%TD.AperFunction*%
%TA.AperFunction,Conductor*%
G36*
X28331121Y-114515172D02*
G01*
X28377614Y-114568828D01*
X28389000Y-114621170D01*
X28389000Y-115542728D01*
X28392973Y-115556259D01*
X28400871Y-115557394D01*
X28512834Y-115524866D01*
X28583831Y-115525069D01*
X28643447Y-115563623D01*
X28672755Y-115628288D01*
X28662451Y-115698533D01*
X28637082Y-115734958D01*
X28081404Y-116290636D01*
X28019092Y-116324662D01*
X27948277Y-116319597D01*
X27891441Y-116277050D01*
X27871312Y-116236694D01*
X27833106Y-116105186D01*
X27833105Y-116105184D01*
X27830894Y-116097573D01*
X27823998Y-116085912D01*
X27808270Y-116059317D01*
X27790810Y-115990501D01*
X27811774Y-115925452D01*
X27851891Y-115865072D01*
X27912319Y-115705995D01*
X27936001Y-115537483D01*
X27936175Y-115525069D01*
X27936244Y-115520131D01*
X27936244Y-115520125D01*
X27936299Y-115516170D01*
X27917331Y-115347062D01*
X27898776Y-115293780D01*
X27895262Y-115222870D01*
X27909313Y-115188205D01*
X27914894Y-115178767D01*
X27960606Y-115021424D01*
X27961302Y-115012590D01*
X27963307Y-114987110D01*
X27963307Y-114987102D01*
X27963500Y-114984654D01*
X27963500Y-114621170D01*
X27983502Y-114553049D01*
X28037158Y-114506556D01*
X28089500Y-114495170D01*
X28263000Y-114495170D01*
X28331121Y-114515172D01*
G37*
%TD.AperFunction*%
%TA.AperFunction,Conductor*%
G36*
X32276150Y-111362454D02*
G01*
X32332986Y-111405001D01*
X32357797Y-111471521D01*
X32356068Y-111503145D01*
X32353792Y-111515608D01*
X32356612Y-111529031D01*
X32368073Y-111532000D01*
X33184060Y-111532000D01*
X33252181Y-111552002D01*
X33298674Y-111605658D01*
X33310060Y-111658000D01*
X33310060Y-111740500D01*
X33290058Y-111808621D01*
X33236402Y-111855114D01*
X33184060Y-111866500D01*
X32991513Y-111866500D01*
X32986238Y-111866390D01*
X32924456Y-111863801D01*
X32916092Y-111865763D01*
X32916088Y-111865763D01*
X32882277Y-111873693D01*
X32870609Y-111875856D01*
X32838868Y-111880204D01*
X32827671Y-111881738D01*
X32819787Y-111885150D01*
X32819786Y-111885150D01*
X32813961Y-111887671D01*
X32792688Y-111894706D01*
X32786509Y-111896155D01*
X32786505Y-111896157D01*
X32778147Y-111898117D01*
X32759507Y-111908364D01*
X32740165Y-111918997D01*
X32729508Y-111924217D01*
X32697637Y-111938009D01*
X32697635Y-111938010D01*
X32689751Y-111941422D01*
X32683079Y-111946825D01*
X32683071Y-111946830D01*
X32678146Y-111950819D01*
X32659548Y-111963316D01*
X32652250Y-111967328D01*
X32652247Y-111967330D01*
X32646455Y-111970514D01*
X32638372Y-111977492D01*
X32613946Y-112001918D01*
X32604128Y-112010757D01*
X32602674Y-112011934D01*
X32537142Y-112039248D01*
X32523397Y-112040000D01*
X32370136Y-112040000D01*
X32355341Y-112044344D01*
X32353497Y-112054775D01*
X32355248Y-112064359D01*
X32378640Y-112144876D01*
X32378437Y-112215872D01*
X32346740Y-112269123D01*
X32306270Y-112309594D01*
X32243958Y-112343620D01*
X32217173Y-112346500D01*
X32131909Y-112346500D01*
X31929079Y-112346501D01*
X31860960Y-112326499D01*
X31814467Y-112272844D01*
X31803080Y-112220501D01*
X31803080Y-111783548D01*
X31823082Y-111715427D01*
X31839985Y-111694453D01*
X32143023Y-111391415D01*
X32205335Y-111357389D01*
X32276150Y-111362454D01*
G37*
%TD.AperFunction*%
%TA.AperFunction,Conductor*%
G36*
X25152460Y-110850181D02*
G01*
X25291498Y-110893753D01*
X25364925Y-110900500D01*
X25429070Y-110900500D01*
X25497191Y-110920502D01*
X25543684Y-110974158D01*
X25553788Y-111044432D01*
X25524294Y-111109012D01*
X25518165Y-111115595D01*
X25508516Y-111125244D01*
X25498876Y-111137671D01*
X25423604Y-111264950D01*
X25417357Y-111279386D01*
X25375688Y-111422811D01*
X25374232Y-111430779D01*
X25377052Y-111444201D01*
X25388513Y-111447170D01*
X26204500Y-111447170D01*
X26272621Y-111467172D01*
X26319114Y-111520828D01*
X26330500Y-111573170D01*
X26330500Y-111684500D01*
X26310498Y-111752621D01*
X26256842Y-111799114D01*
X26204500Y-111810500D01*
X25724505Y-111810500D01*
X25719229Y-111810389D01*
X25714669Y-111810198D01*
X25657456Y-111807800D01*
X25649091Y-111809762D01*
X25615263Y-111817696D01*
X25603591Y-111819859D01*
X25569183Y-111824572D01*
X25569182Y-111824572D01*
X25560671Y-111825738D01*
X25548293Y-111831095D01*
X25546963Y-111831670D01*
X25525693Y-111838704D01*
X25511147Y-111842116D01*
X25503622Y-111846253D01*
X25503619Y-111846254D01*
X25473170Y-111862994D01*
X25462510Y-111868216D01*
X25430634Y-111882010D01*
X25430630Y-111882012D01*
X25422751Y-111885422D01*
X25416076Y-111890827D01*
X25411140Y-111894824D01*
X25392557Y-111907311D01*
X25379456Y-111914514D01*
X25371372Y-111921492D01*
X25346946Y-111945918D01*
X25337146Y-111954743D01*
X25305961Y-111979996D01*
X25300987Y-111986995D01*
X25300985Y-111986997D01*
X25295123Y-111995245D01*
X25281514Y-112011349D01*
X25172813Y-112120051D01*
X25089269Y-112203595D01*
X25026957Y-112237620D01*
X25000174Y-112240500D01*
X24934956Y-112240500D01*
X24777500Y-112240501D01*
X24709380Y-112220499D01*
X24662887Y-112166844D01*
X24651500Y-112114501D01*
X24651500Y-111307698D01*
X24671502Y-111239577D01*
X24688405Y-111218603D01*
X25025688Y-110881320D01*
X25088000Y-110847294D01*
X25152460Y-110850181D01*
G37*
%TD.AperFunction*%
%TA.AperFunction,Conductor*%
G36*
X35223430Y-109774002D02*
G01*
X35269923Y-109827658D01*
X35281309Y-109880000D01*
X35281309Y-111248931D01*
X35261307Y-111317052D01*
X35244404Y-111338026D01*
X35076357Y-111506073D01*
X35014045Y-111540099D01*
X34943230Y-111535034D01*
X34886394Y-111492487D01*
X34866265Y-111452130D01*
X34840667Y-111364018D01*
X34840665Y-111364013D01*
X34838454Y-111356403D01*
X34834418Y-111349578D01*
X34834416Y-111349574D01*
X34781980Y-111260909D01*
X34764520Y-111192093D01*
X34772645Y-111152026D01*
X34778216Y-111137362D01*
X34824319Y-111015995D01*
X34848001Y-110847483D01*
X34848299Y-110826170D01*
X34829331Y-110657062D01*
X34822899Y-110638590D01*
X34796433Y-110562592D01*
X34792919Y-110491683D01*
X34806970Y-110457017D01*
X34814417Y-110444424D01*
X34814418Y-110444421D01*
X34818454Y-110437597D01*
X34864166Y-110280254D01*
X34867060Y-110243484D01*
X34867060Y-109880000D01*
X34887062Y-109811879D01*
X34940718Y-109765386D01*
X34993060Y-109754000D01*
X35155309Y-109754000D01*
X35223430Y-109774002D01*
G37*
%TD.AperFunction*%
%TA.AperFunction,Conductor*%
G36*
X28081121Y-109689172D02*
G01*
X28127614Y-109742828D01*
X28139000Y-109795170D01*
X28139000Y-110716728D01*
X28148888Y-110750404D01*
X28167336Y-110779109D01*
X28172440Y-110814608D01*
X28172440Y-111321410D01*
X28152438Y-111389531D01*
X28135535Y-111410505D01*
X28103101Y-111442939D01*
X28040789Y-111476965D01*
X27969974Y-111471900D01*
X27913138Y-111429353D01*
X27893009Y-111388997D01*
X27861106Y-111279186D01*
X27861105Y-111279184D01*
X27858894Y-111271573D01*
X27775488Y-111130541D01*
X27769882Y-111124935D01*
X27765026Y-111118675D01*
X27766558Y-111117486D01*
X27737494Y-111064261D01*
X27742827Y-110992734D01*
X27790555Y-110867091D01*
X27790556Y-110867086D01*
X27793055Y-110860508D01*
X27794336Y-110851393D01*
X27817748Y-110684809D01*
X27817748Y-110684806D01*
X27818299Y-110680887D01*
X27818616Y-110658170D01*
X27798397Y-110477915D01*
X27738745Y-110306618D01*
X27735010Y-110300640D01*
X27726603Y-110287185D01*
X27707469Y-110218815D01*
X27709303Y-110199911D01*
X27710606Y-110195424D01*
X27711111Y-110189011D01*
X27713307Y-110161110D01*
X27713307Y-110161102D01*
X27713500Y-110158654D01*
X27713500Y-109795170D01*
X27733502Y-109727049D01*
X27787158Y-109680556D01*
X27839500Y-109669170D01*
X28013000Y-109669170D01*
X28081121Y-109689172D01*
G37*
%TD.AperFunction*%
%TA.AperFunction,Conductor*%
G36*
X28462594Y-96156611D02*
G01*
X28528485Y-96159901D01*
X28586222Y-96201216D01*
X28612457Y-96267188D01*
X28613000Y-96278876D01*
X28613000Y-100691256D01*
X28611922Y-100707702D01*
X28608065Y-100737000D01*
X28613000Y-100774486D01*
X28613000Y-100774492D01*
X28627723Y-100886322D01*
X28685359Y-101025468D01*
X28777045Y-101144955D01*
X28783595Y-101149981D01*
X28800495Y-101162949D01*
X28812886Y-101173816D01*
X33637682Y-105998612D01*
X33671708Y-106060924D01*
X33666643Y-106131739D01*
X33624096Y-106188575D01*
X33612724Y-106196161D01*
X33609147Y-106198277D01*
X33606199Y-106200020D01*
X33537381Y-106217474D01*
X33477932Y-106200016D01*
X33468782Y-106194605D01*
X33454344Y-106188357D01*
X33333955Y-106153381D01*
X33319855Y-106153421D01*
X33316560Y-106160691D01*
X33316560Y-106438621D01*
X33299014Y-106502760D01*
X33282666Y-106530403D01*
X33280455Y-106538014D01*
X33280454Y-106538016D01*
X33270990Y-106570591D01*
X33236954Y-106687746D01*
X33236450Y-106694151D01*
X33236449Y-106694156D01*
X33234271Y-106721837D01*
X33234060Y-106724516D01*
X33234060Y-106948500D01*
X33214058Y-107016621D01*
X33160402Y-107063114D01*
X33108060Y-107074500D01*
X32957505Y-107074500D01*
X32952229Y-107074389D01*
X32947669Y-107074198D01*
X32890456Y-107071800D01*
X32882091Y-107073762D01*
X32848263Y-107081696D01*
X32836591Y-107083859D01*
X32802183Y-107088572D01*
X32802182Y-107088572D01*
X32793671Y-107089738D01*
X32783961Y-107093940D01*
X32779963Y-107095670D01*
X32758693Y-107102704D01*
X32744147Y-107106116D01*
X32736622Y-107110253D01*
X32736619Y-107110254D01*
X32711179Y-107124240D01*
X32709088Y-107125390D01*
X32706170Y-107126994D01*
X32695510Y-107132216D01*
X32663634Y-107146010D01*
X32663630Y-107146012D01*
X32655751Y-107149422D01*
X32649076Y-107154827D01*
X32644140Y-107158824D01*
X32625557Y-107171311D01*
X32612456Y-107178514D01*
X32607461Y-107182826D01*
X32607459Y-107182827D01*
X32606821Y-107183378D01*
X32606375Y-107183581D01*
X32602032Y-107186599D01*
X32601480Y-107185805D01*
X32542185Y-107212751D01*
X32524486Y-107214000D01*
X32294136Y-107214000D01*
X32279341Y-107218344D01*
X32277497Y-107228775D01*
X32279247Y-107238356D01*
X32314399Y-107359346D01*
X32314197Y-107430342D01*
X32275643Y-107489959D01*
X32210978Y-107519268D01*
X32193402Y-107520500D01*
X31821908Y-107520501D01*
X31804926Y-107520501D01*
X31802068Y-107520764D01*
X31802059Y-107520764D01*
X31766556Y-107524026D01*
X31731498Y-107527247D01*
X31725120Y-107529246D01*
X31725119Y-107529246D01*
X31575110Y-107576256D01*
X31575108Y-107576257D01*
X31567861Y-107578528D01*
X31421179Y-107667361D01*
X31381098Y-107707442D01*
X31318786Y-107741468D01*
X31247971Y-107736403D01*
X31191135Y-107693856D01*
X31166324Y-107627336D01*
X31167229Y-107600812D01*
X31187748Y-107454812D01*
X31187749Y-107454802D01*
X31188299Y-107450887D01*
X31188616Y-107428170D01*
X31168397Y-107247915D01*
X31151504Y-107199405D01*
X31111064Y-107083276D01*
X31111062Y-107083273D01*
X31108745Y-107076618D01*
X31071255Y-107016621D01*
X31016359Y-106928768D01*
X31012626Y-106922794D01*
X31007664Y-106917797D01*
X30889778Y-106799085D01*
X30889774Y-106799082D01*
X30884815Y-106794088D01*
X30876228Y-106788638D01*
X30821522Y-106753921D01*
X30731666Y-106696897D01*
X30711199Y-106689609D01*
X32277792Y-106689609D01*
X32280612Y-106703031D01*
X32292073Y-106706000D01*
X32790445Y-106706000D01*
X32805684Y-106701525D01*
X32806889Y-106700135D01*
X32808560Y-106692452D01*
X32808560Y-106166442D01*
X32804587Y-106152911D01*
X32796689Y-106151776D01*
X32670776Y-106188357D01*
X32656340Y-106194604D01*
X32529061Y-106269876D01*
X32516634Y-106279516D01*
X32412076Y-106384074D01*
X32402436Y-106396501D01*
X32327164Y-106523780D01*
X32320917Y-106538216D01*
X32279248Y-106681641D01*
X32277792Y-106689609D01*
X30711199Y-106689609D01*
X30688620Y-106681569D01*
X30567425Y-106638413D01*
X30567420Y-106638412D01*
X30560790Y-106636051D01*
X30553802Y-106635218D01*
X30553799Y-106635217D01*
X30418577Y-106619093D01*
X30380680Y-106614574D01*
X30373677Y-106615310D01*
X30373676Y-106615310D01*
X30328253Y-106620084D01*
X30216170Y-106631865D01*
X30146333Y-106619093D01*
X30094486Y-106570591D01*
X30077000Y-106506555D01*
X30077000Y-106063056D01*
X30078078Y-106046610D01*
X30080857Y-106025501D01*
X30080857Y-106025500D01*
X30081935Y-106017312D01*
X30077000Y-105979826D01*
X30077000Y-105979820D01*
X30062277Y-105867990D01*
X30004641Y-105728844D01*
X29972314Y-105686715D01*
X29935976Y-105639358D01*
X29935975Y-105639357D01*
X29912955Y-105609357D01*
X29889505Y-105591363D01*
X29877114Y-105580496D01*
X28047425Y-103750807D01*
X28013399Y-103688495D01*
X28010520Y-103661712D01*
X28010520Y-96308690D01*
X28030522Y-96240569D01*
X28084178Y-96194076D01*
X28141466Y-96182787D01*
X28183134Y-96184424D01*
X28247205Y-96186941D01*
X28462466Y-96155730D01*
X28462594Y-96156611D01*
G37*
%TD.AperFunction*%
%TA.AperFunction,Conductor*%
G36*
X22892012Y-102006367D02*
G01*
X22898593Y-102012494D01*
X24875627Y-103989529D01*
X26730298Y-105844200D01*
X26764324Y-105906512D01*
X26759259Y-105977328D01*
X26716712Y-106034163D01*
X26655387Y-106057288D01*
X26655499Y-106057901D01*
X26652127Y-106058517D01*
X26651095Y-106058906D01*
X26649164Y-106059058D01*
X26649156Y-106059060D01*
X26642746Y-106059564D01*
X26566856Y-106081612D01*
X26493016Y-106103064D01*
X26493014Y-106103065D01*
X26485403Y-106105276D01*
X26478576Y-106109313D01*
X26478577Y-106109313D01*
X26468647Y-106115185D01*
X26399830Y-106132644D01*
X26340372Y-106115186D01*
X26331222Y-106109775D01*
X26316784Y-106103527D01*
X26196395Y-106068551D01*
X26182295Y-106068591D01*
X26179000Y-106075861D01*
X26179000Y-106353791D01*
X26161454Y-106417930D01*
X26145106Y-106445573D01*
X26142895Y-106453184D01*
X26142894Y-106453186D01*
X26128492Y-106502760D01*
X26099394Y-106602916D01*
X26098890Y-106609321D01*
X26098889Y-106609326D01*
X26096786Y-106636051D01*
X26096500Y-106639686D01*
X26096500Y-106799500D01*
X26076498Y-106867621D01*
X26022842Y-106914114D01*
X25970500Y-106925500D01*
X25783513Y-106925500D01*
X25778238Y-106925390D01*
X25716456Y-106922801D01*
X25708091Y-106924763D01*
X25674272Y-106932695D01*
X25662598Y-106934858D01*
X25619671Y-106940738D01*
X25611784Y-106944151D01*
X25611785Y-106944151D01*
X25605965Y-106946669D01*
X25584692Y-106953704D01*
X25578516Y-106955152D01*
X25578507Y-106955155D01*
X25570147Y-106957116D01*
X25552455Y-106966842D01*
X25532164Y-106977997D01*
X25521505Y-106983219D01*
X25481751Y-107000422D01*
X25475081Y-107005823D01*
X25475078Y-107005825D01*
X25470144Y-107009821D01*
X25451555Y-107022312D01*
X25438455Y-107029514D01*
X25430372Y-107036492D01*
X25405946Y-107060918D01*
X25396146Y-107069743D01*
X25364961Y-107094996D01*
X25364106Y-107093940D01*
X25310576Y-107125390D01*
X25279943Y-107129170D01*
X25156576Y-107129170D01*
X25141781Y-107133514D01*
X25139937Y-107143946D01*
X25141687Y-107153529D01*
X25159540Y-107214978D01*
X25159337Y-107285974D01*
X25127638Y-107339226D01*
X25089269Y-107377595D01*
X25026957Y-107411621D01*
X25000174Y-107414500D01*
X24871238Y-107414500D01*
X24669559Y-107414501D01*
X24601440Y-107394499D01*
X24554947Y-107340844D01*
X24543560Y-107288501D01*
X24543560Y-107133017D01*
X24544638Y-107116571D01*
X24546273Y-107104154D01*
X24548495Y-107087273D01*
X24543560Y-107049787D01*
X24543560Y-107049781D01*
X24528837Y-106937951D01*
X24471201Y-106798805D01*
X24460311Y-106784613D01*
X24414198Y-106724516D01*
X24402559Y-106709347D01*
X24402548Y-106709334D01*
X24402536Y-106709318D01*
X24402531Y-106709313D01*
X24379515Y-106679318D01*
X24356070Y-106661328D01*
X24343679Y-106650461D01*
X24297997Y-106604779D01*
X25140232Y-106604779D01*
X25143052Y-106618201D01*
X25154513Y-106621170D01*
X25652885Y-106621170D01*
X25668124Y-106616695D01*
X25669329Y-106615305D01*
X25671000Y-106607622D01*
X25671000Y-106081612D01*
X25667027Y-106068081D01*
X25659129Y-106066946D01*
X25533216Y-106103527D01*
X25518780Y-106109774D01*
X25391501Y-106185046D01*
X25379074Y-106194686D01*
X25274516Y-106299244D01*
X25264876Y-106311671D01*
X25189604Y-106438950D01*
X25183357Y-106453386D01*
X25141688Y-106596811D01*
X25140232Y-106604779D01*
X24297997Y-106604779D01*
X22806934Y-105113716D01*
X22796068Y-105101327D01*
X22783095Y-105084421D01*
X22778072Y-105077875D01*
X22704562Y-105021468D01*
X22658585Y-104986189D01*
X22650955Y-104983029D01*
X22650949Y-104983025D01*
X22615057Y-104968158D01*
X22559776Y-104923610D01*
X22547727Y-104901994D01*
X22547700Y-104901932D01*
X22526354Y-104852840D01*
X22448922Y-104733148D01*
X22407822Y-104669617D01*
X22407820Y-104669614D01*
X22405014Y-104665277D01*
X22401532Y-104661450D01*
X22257798Y-104503488D01*
X22226746Y-104439642D01*
X22235141Y-104369143D01*
X22280317Y-104314375D01*
X22306761Y-104300706D01*
X22413297Y-104260767D01*
X22421705Y-104257615D01*
X22538261Y-104170261D01*
X22625615Y-104053705D01*
X22676745Y-103917316D01*
X22683500Y-103855134D01*
X22683500Y-102101591D01*
X22703502Y-102033470D01*
X22757158Y-101986977D01*
X22827432Y-101976873D01*
X22892012Y-102006367D01*
G37*
%TD.AperFunction*%
%TD*%
M02*
