%TF.GenerationSoftware,KiCad,Pcbnew,(6.0.0)*%
%TF.CreationDate,2022-06-29T15:28:05+09:00*%
%TF.ProjectId,TipLets_Board,5469704c-6574-4735-9f42-6f6172642e6b,rev?*%
%TF.SameCoordinates,Original*%
%TF.FileFunction,Legend,Top*%
%TF.FilePolarity,Positive*%
%FSLAX46Y46*%
G04 Gerber Fmt 4.6, Leading zero omitted, Abs format (unit mm)*
G04 Created by KiCad (PCBNEW (6.0.0)) date 2022-06-29 15:28:05*
%MOMM*%
%LPD*%
G01*
G04 APERTURE LIST*
G04 Aperture macros list*
%AMRoundRect*
0 Rectangle with rounded corners*
0 $1 Rounding radius*
0 $2 $3 $4 $5 $6 $7 $8 $9 X,Y pos of 4 corners*
0 Add a 4 corners polygon primitive as box body*
4,1,4,$2,$3,$4,$5,$6,$7,$8,$9,$2,$3,0*
0 Add four circle primitives for the rounded corners*
1,1,$1+$1,$2,$3*
1,1,$1+$1,$4,$5*
1,1,$1+$1,$6,$7*
1,1,$1+$1,$8,$9*
0 Add four rect primitives between the rounded corners*
20,1,$1+$1,$2,$3,$4,$5,0*
20,1,$1+$1,$4,$5,$6,$7,0*
20,1,$1+$1,$6,$7,$8,$9,0*
20,1,$1+$1,$8,$9,$2,$3,0*%
G04 Aperture macros list end*
%ADD10C,0.150000*%
%ADD11C,0.120000*%
%ADD12C,0.200000*%
%ADD13RoundRect,0.200000X0.350000X0.200000X-0.350000X0.200000X-0.350000X-0.200000X0.350000X-0.200000X0*%
%ADD14RoundRect,0.200000X-0.350000X-0.200000X0.350000X-0.200000X0.350000X0.200000X-0.350000X0.200000X0*%
%ADD15R,1.350000X1.350000*%
%ADD16O,1.350000X1.350000*%
%ADD17RoundRect,0.140000X-0.140000X-0.170000X0.140000X-0.170000X0.140000X0.170000X-0.140000X0.170000X0*%
%ADD18RoundRect,0.140000X0.140000X0.170000X-0.140000X0.170000X-0.140000X-0.170000X0.140000X-0.170000X0*%
%ADD19O,1.700000X1.700000*%
%ADD20R,1.700000X1.700000*%
%ADD21RoundRect,0.200000X-0.200000X-0.275000X0.200000X-0.275000X0.200000X0.275000X-0.200000X0.275000X0*%
%ADD22C,0.240000*%
%ADD23C,0.600000*%
%ADD24C,0.500000*%
G04 APERTURE END LIST*
D10*
%TO.C,M6*%
X32520343Y-68844380D02*
X32520343Y-67844380D01*
X32853676Y-68558666D01*
X33187009Y-67844380D01*
X33187009Y-68844380D01*
X34091771Y-67844380D02*
X33901295Y-67844380D01*
X33806057Y-67892000D01*
X33758438Y-67939619D01*
X33663200Y-68082476D01*
X33615581Y-68272952D01*
X33615581Y-68653904D01*
X33663200Y-68749142D01*
X33710819Y-68796761D01*
X33806057Y-68844380D01*
X33996533Y-68844380D01*
X34091771Y-68796761D01*
X34139390Y-68749142D01*
X34187009Y-68653904D01*
X34187009Y-68415809D01*
X34139390Y-68320571D01*
X34091771Y-68272952D01*
X33996533Y-68225333D01*
X33806057Y-68225333D01*
X33710819Y-68272952D01*
X33663200Y-68320571D01*
X33615581Y-68415809D01*
%TO.C,M1*%
X25160610Y-53814380D02*
X25160610Y-52814380D01*
X25493943Y-53528666D01*
X25827276Y-52814380D01*
X25827276Y-53814380D01*
X26827276Y-53814380D02*
X26255848Y-53814380D01*
X26541562Y-53814380D02*
X26541562Y-52814380D01*
X26446324Y-52957238D01*
X26351086Y-53052476D01*
X26255848Y-53100095D01*
%TO.C,M4*%
X32520343Y-54844380D02*
X32520343Y-53844380D01*
X32853676Y-54558666D01*
X33187009Y-53844380D01*
X33187009Y-54844380D01*
X34091771Y-54177714D02*
X34091771Y-54844380D01*
X33853676Y-53796761D02*
X33615581Y-54511047D01*
X34234628Y-54511047D01*
%TO.C,M5*%
X32530343Y-61844380D02*
X32530343Y-60844380D01*
X32863676Y-61558666D01*
X33197009Y-60844380D01*
X33197009Y-61844380D01*
X34149390Y-60844380D02*
X33673200Y-60844380D01*
X33625581Y-61320571D01*
X33673200Y-61272952D01*
X33768438Y-61225333D01*
X34006533Y-61225333D01*
X34101771Y-61272952D01*
X34149390Y-61320571D01*
X34197009Y-61415809D01*
X34197009Y-61653904D01*
X34149390Y-61749142D01*
X34101771Y-61796761D01*
X34006533Y-61844380D01*
X33768438Y-61844380D01*
X33673200Y-61796761D01*
X33625581Y-61749142D01*
%TO.C,M3*%
X25180610Y-67834380D02*
X25180610Y-66834380D01*
X25513943Y-67548666D01*
X25847276Y-66834380D01*
X25847276Y-67834380D01*
X26228229Y-66834380D02*
X26847276Y-66834380D01*
X26513943Y-67215333D01*
X26656800Y-67215333D01*
X26752038Y-67262952D01*
X26799657Y-67310571D01*
X26847276Y-67405809D01*
X26847276Y-67643904D01*
X26799657Y-67739142D01*
X26752038Y-67786761D01*
X26656800Y-67834380D01*
X26371086Y-67834380D01*
X26275848Y-67786761D01*
X26228229Y-67739142D01*
%TO.C,M2*%
X25170610Y-60814380D02*
X25170610Y-59814380D01*
X25503943Y-60528666D01*
X25837276Y-59814380D01*
X25837276Y-60814380D01*
X26265848Y-59909619D02*
X26313467Y-59862000D01*
X26408705Y-59814380D01*
X26646800Y-59814380D01*
X26742038Y-59862000D01*
X26789657Y-59909619D01*
X26837276Y-60004857D01*
X26837276Y-60100095D01*
X26789657Y-60242952D01*
X26218229Y-60814380D01*
X26837276Y-60814380D01*
%TO.C,J3*%
X21077380Y-78650333D02*
X21791666Y-78650333D01*
X21934523Y-78697952D01*
X22029761Y-78793190D01*
X22077380Y-78936047D01*
X22077380Y-79031285D01*
X21077380Y-78269380D02*
X21077380Y-77650333D01*
X21458333Y-77983666D01*
X21458333Y-77840809D01*
X21505952Y-77745571D01*
X21553571Y-77697952D01*
X21648809Y-77650333D01*
X21886904Y-77650333D01*
X21982142Y-77697952D01*
X22029761Y-77745571D01*
X22077380Y-77840809D01*
X22077380Y-78126523D01*
X22029761Y-78221761D01*
X21982142Y-78269380D01*
%TO.C,C1*%
X34391893Y-109205142D02*
X34344274Y-109252761D01*
X34201417Y-109300380D01*
X34106179Y-109300380D01*
X33963321Y-109252761D01*
X33868083Y-109157523D01*
X33820464Y-109062285D01*
X33772845Y-108871809D01*
X33772845Y-108728952D01*
X33820464Y-108538476D01*
X33868083Y-108443238D01*
X33963321Y-108348000D01*
X34106179Y-108300380D01*
X34201417Y-108300380D01*
X34344274Y-108348000D01*
X34391893Y-108395619D01*
X35344274Y-109300380D02*
X34772845Y-109300380D01*
X35058560Y-109300380D02*
X35058560Y-108300380D01*
X34963321Y-108443238D01*
X34868083Y-108538476D01*
X34772845Y-108586095D01*
%TO.C,C6*%
X33423893Y-118129142D02*
X33376274Y-118176761D01*
X33233417Y-118224380D01*
X33138179Y-118224380D01*
X32995321Y-118176761D01*
X32900083Y-118081523D01*
X32852464Y-117986285D01*
X32804845Y-117795809D01*
X32804845Y-117652952D01*
X32852464Y-117462476D01*
X32900083Y-117367238D01*
X32995321Y-117272000D01*
X33138179Y-117224380D01*
X33233417Y-117224380D01*
X33376274Y-117272000D01*
X33423893Y-117319619D01*
X34281036Y-117224380D02*
X34090560Y-117224380D01*
X33995321Y-117272000D01*
X33947702Y-117319619D01*
X33852464Y-117462476D01*
X33804845Y-117652952D01*
X33804845Y-118033904D01*
X33852464Y-118129142D01*
X33900083Y-118176761D01*
X33995321Y-118224380D01*
X34185798Y-118224380D01*
X34281036Y-118176761D01*
X34328655Y-118129142D01*
X34376274Y-118033904D01*
X34376274Y-117795809D01*
X34328655Y-117700571D01*
X34281036Y-117652952D01*
X34185798Y-117605333D01*
X33995321Y-117605333D01*
X33900083Y-117652952D01*
X33852464Y-117700571D01*
X33804845Y-117795809D01*
%TO.C,J1*%
X20991666Y-100079380D02*
X20991666Y-100793666D01*
X20944047Y-100936523D01*
X20848809Y-101031761D01*
X20705952Y-101079380D01*
X20610714Y-101079380D01*
X21991666Y-101079380D02*
X21420238Y-101079380D01*
X21705952Y-101079380D02*
X21705952Y-100079380D01*
X21610714Y-100222238D01*
X21515476Y-100317476D01*
X21420238Y-100365095D01*
%TO.C,R5*%
X31069893Y-117178380D02*
X30736560Y-116702190D01*
X30498464Y-117178380D02*
X30498464Y-116178380D01*
X30879417Y-116178380D01*
X30974655Y-116226000D01*
X31022274Y-116273619D01*
X31069893Y-116368857D01*
X31069893Y-116511714D01*
X31022274Y-116606952D01*
X30974655Y-116654571D01*
X30879417Y-116702190D01*
X30498464Y-116702190D01*
X31974655Y-116178380D02*
X31498464Y-116178380D01*
X31450845Y-116654571D01*
X31498464Y-116606952D01*
X31593702Y-116559333D01*
X31831798Y-116559333D01*
X31927036Y-116606952D01*
X31974655Y-116654571D01*
X32022274Y-116749809D01*
X32022274Y-116987904D01*
X31974655Y-117083142D01*
X31927036Y-117130761D01*
X31831798Y-117178380D01*
X31593702Y-117178380D01*
X31498464Y-117130761D01*
X31450845Y-117083142D01*
%TO.C,C3*%
X34439893Y-113671142D02*
X34392274Y-113718761D01*
X34249417Y-113766380D01*
X34154179Y-113766380D01*
X34011321Y-113718761D01*
X33916083Y-113623523D01*
X33868464Y-113528285D01*
X33820845Y-113337809D01*
X33820845Y-113194952D01*
X33868464Y-113004476D01*
X33916083Y-112909238D01*
X34011321Y-112814000D01*
X34154179Y-112766380D01*
X34249417Y-112766380D01*
X34392274Y-112814000D01*
X34439893Y-112861619D01*
X34773226Y-112766380D02*
X35392274Y-112766380D01*
X35058940Y-113147333D01*
X35201798Y-113147333D01*
X35297036Y-113194952D01*
X35344655Y-113242571D01*
X35392274Y-113337809D01*
X35392274Y-113575904D01*
X35344655Y-113671142D01*
X35297036Y-113718761D01*
X35201798Y-113766380D01*
X34916083Y-113766380D01*
X34820845Y-113718761D01*
X34773226Y-113671142D01*
%TO.C,R12*%
X24153702Y-118591380D02*
X23820369Y-118115190D01*
X23582274Y-118591380D02*
X23582274Y-117591380D01*
X23963226Y-117591380D01*
X24058464Y-117639000D01*
X24106083Y-117686619D01*
X24153702Y-117781857D01*
X24153702Y-117924714D01*
X24106083Y-118019952D01*
X24058464Y-118067571D01*
X23963226Y-118115190D01*
X23582274Y-118115190D01*
X25106083Y-118591380D02*
X24534655Y-118591380D01*
X24820369Y-118591380D02*
X24820369Y-117591380D01*
X24725131Y-117734238D01*
X24629893Y-117829476D01*
X24534655Y-117877095D01*
X25487036Y-117686619D02*
X25534655Y-117639000D01*
X25629893Y-117591380D01*
X25867988Y-117591380D01*
X25963226Y-117639000D01*
X26010845Y-117686619D01*
X26058464Y-117781857D01*
X26058464Y-117877095D01*
X26010845Y-118019952D01*
X25439417Y-118591380D01*
X26058464Y-118591380D01*
%TO.C,C11*%
X27012142Y-118772312D02*
X26964523Y-118819931D01*
X26821666Y-118867550D01*
X26726428Y-118867550D01*
X26583571Y-118819931D01*
X26488333Y-118724693D01*
X26440714Y-118629455D01*
X26393095Y-118438979D01*
X26393095Y-118296122D01*
X26440714Y-118105646D01*
X26488333Y-118010408D01*
X26583571Y-117915170D01*
X26726428Y-117867550D01*
X26821666Y-117867550D01*
X26964523Y-117915170D01*
X27012142Y-117962789D01*
X27964523Y-118867550D02*
X27393095Y-118867550D01*
X27678809Y-118867550D02*
X27678809Y-117867550D01*
X27583571Y-118010408D01*
X27488333Y-118105646D01*
X27393095Y-118153265D01*
X28916904Y-118867550D02*
X28345476Y-118867550D01*
X28631190Y-118867550D02*
X28631190Y-117867550D01*
X28535952Y-118010408D01*
X28440714Y-118105646D01*
X28345476Y-118153265D01*
%TO.C,R3*%
X31069893Y-112352380D02*
X30736560Y-111876190D01*
X30498464Y-112352380D02*
X30498464Y-111352380D01*
X30879417Y-111352380D01*
X30974655Y-111400000D01*
X31022274Y-111447619D01*
X31069893Y-111542857D01*
X31069893Y-111685714D01*
X31022274Y-111780952D01*
X30974655Y-111828571D01*
X30879417Y-111876190D01*
X30498464Y-111876190D01*
X31403226Y-111352380D02*
X32022274Y-111352380D01*
X31688940Y-111733333D01*
X31831798Y-111733333D01*
X31927036Y-111780952D01*
X31974655Y-111828571D01*
X32022274Y-111923809D01*
X32022274Y-112161904D01*
X31974655Y-112257142D01*
X31927036Y-112304761D01*
X31831798Y-112352380D01*
X31546083Y-112352380D01*
X31450845Y-112304761D01*
X31403226Y-112257142D01*
%TO.C,U2*%
X39932179Y-112548095D02*
X39122655Y-112548095D01*
X39027417Y-112595714D01*
X38979798Y-112643333D01*
X38932179Y-112738571D01*
X38932179Y-112929047D01*
X38979798Y-113024285D01*
X39027417Y-113071904D01*
X39122655Y-113119523D01*
X39932179Y-113119523D01*
X39836940Y-113548095D02*
X39884560Y-113595714D01*
X39932179Y-113690952D01*
X39932179Y-113929047D01*
X39884560Y-114024285D01*
X39836940Y-114071904D01*
X39741702Y-114119523D01*
X39646464Y-114119523D01*
X39503607Y-114071904D01*
X38932179Y-113500476D01*
X38932179Y-114119523D01*
%TO.C,J4*%
X21577380Y-94333333D02*
X22291666Y-94333333D01*
X22434523Y-94380952D01*
X22529761Y-94476190D01*
X22577380Y-94619047D01*
X22577380Y-94714285D01*
X21910714Y-93428571D02*
X22577380Y-93428571D01*
X21529761Y-93666666D02*
X22244047Y-93904761D01*
X22244047Y-93285714D01*
%TO.C,R8*%
X24629893Y-108939380D02*
X24296560Y-108463190D01*
X24058464Y-108939380D02*
X24058464Y-107939380D01*
X24439417Y-107939380D01*
X24534655Y-107987000D01*
X24582274Y-108034619D01*
X24629893Y-108129857D01*
X24629893Y-108272714D01*
X24582274Y-108367952D01*
X24534655Y-108415571D01*
X24439417Y-108463190D01*
X24058464Y-108463190D01*
X25201321Y-108367952D02*
X25106083Y-108320333D01*
X25058464Y-108272714D01*
X25010845Y-108177476D01*
X25010845Y-108129857D01*
X25058464Y-108034619D01*
X25106083Y-107987000D01*
X25201321Y-107939380D01*
X25391798Y-107939380D01*
X25487036Y-107987000D01*
X25534655Y-108034619D01*
X25582274Y-108129857D01*
X25582274Y-108177476D01*
X25534655Y-108272714D01*
X25487036Y-108320333D01*
X25391798Y-108367952D01*
X25201321Y-108367952D01*
X25106083Y-108415571D01*
X25058464Y-108463190D01*
X25010845Y-108558428D01*
X25010845Y-108748904D01*
X25058464Y-108844142D01*
X25106083Y-108891761D01*
X25201321Y-108939380D01*
X25391798Y-108939380D01*
X25487036Y-108891761D01*
X25534655Y-108844142D01*
X25582274Y-108748904D01*
X25582274Y-108558428D01*
X25534655Y-108463190D01*
X25487036Y-108415571D01*
X25391798Y-108367952D01*
%TO.C,U4*%
X33706619Y-107747265D02*
X32897095Y-107747265D01*
X32801857Y-107794884D01*
X32754238Y-107842503D01*
X32706619Y-107937741D01*
X32706619Y-108128217D01*
X32754238Y-108223455D01*
X32801857Y-108271074D01*
X32897095Y-108318693D01*
X33706619Y-108318693D01*
X33373285Y-109223455D02*
X32706619Y-109223455D01*
X33754238Y-108985360D02*
X33039952Y-108747265D01*
X33039952Y-109366312D01*
%TO.C,R1*%
X30438333Y-106900550D02*
X30105000Y-106424360D01*
X29866904Y-106900550D02*
X29866904Y-105900550D01*
X30247857Y-105900550D01*
X30343095Y-105948170D01*
X30390714Y-105995789D01*
X30438333Y-106091027D01*
X30438333Y-106233884D01*
X30390714Y-106329122D01*
X30343095Y-106376741D01*
X30247857Y-106424360D01*
X29866904Y-106424360D01*
X31390714Y-106900550D02*
X30819285Y-106900550D01*
X31105000Y-106900550D02*
X31105000Y-105900550D01*
X31009761Y-106043408D01*
X30914523Y-106138646D01*
X30819285Y-106186265D01*
%TO.C,R2*%
X31889893Y-109012380D02*
X31556560Y-108536190D01*
X31318464Y-109012380D02*
X31318464Y-108012380D01*
X31699417Y-108012380D01*
X31794655Y-108060000D01*
X31842274Y-108107619D01*
X31889893Y-108202857D01*
X31889893Y-108345714D01*
X31842274Y-108440952D01*
X31794655Y-108488571D01*
X31699417Y-108536190D01*
X31318464Y-108536190D01*
X32270845Y-108107619D02*
X32318464Y-108060000D01*
X32413702Y-108012380D01*
X32651798Y-108012380D01*
X32747036Y-108060000D01*
X32794655Y-108107619D01*
X32842274Y-108202857D01*
X32842274Y-108298095D01*
X32794655Y-108440952D01*
X32223226Y-109012380D01*
X32842274Y-109012380D01*
%TO.C,C4*%
X33451893Y-113303142D02*
X33404274Y-113350761D01*
X33261417Y-113398380D01*
X33166179Y-113398380D01*
X33023321Y-113350761D01*
X32928083Y-113255523D01*
X32880464Y-113160285D01*
X32832845Y-112969809D01*
X32832845Y-112826952D01*
X32880464Y-112636476D01*
X32928083Y-112541238D01*
X33023321Y-112446000D01*
X33166179Y-112398380D01*
X33261417Y-112398380D01*
X33404274Y-112446000D01*
X33451893Y-112493619D01*
X34309036Y-112731714D02*
X34309036Y-113398380D01*
X34070940Y-112350761D02*
X33832845Y-113065047D01*
X34451893Y-113065047D01*
%TO.C,C7*%
X27238333Y-109120312D02*
X27190714Y-109167931D01*
X27047857Y-109215550D01*
X26952619Y-109215550D01*
X26809761Y-109167931D01*
X26714523Y-109072693D01*
X26666904Y-108977455D01*
X26619285Y-108786979D01*
X26619285Y-108644122D01*
X26666904Y-108453646D01*
X26714523Y-108358408D01*
X26809761Y-108263170D01*
X26952619Y-108215550D01*
X27047857Y-108215550D01*
X27190714Y-108263170D01*
X27238333Y-108310789D01*
X27571666Y-108215550D02*
X28238333Y-108215550D01*
X27809761Y-109215550D01*
%TO.C,C9*%
X28658333Y-114115312D02*
X28610714Y-114162931D01*
X28467857Y-114210550D01*
X28372619Y-114210550D01*
X28229761Y-114162931D01*
X28134523Y-114067693D01*
X28086904Y-113972455D01*
X28039285Y-113781979D01*
X28039285Y-113639122D01*
X28086904Y-113448646D01*
X28134523Y-113353408D01*
X28229761Y-113258170D01*
X28372619Y-113210550D01*
X28467857Y-113210550D01*
X28610714Y-113258170D01*
X28658333Y-113305789D01*
X29134523Y-114210550D02*
X29325000Y-114210550D01*
X29420238Y-114162931D01*
X29467857Y-114115312D01*
X29563095Y-113972455D01*
X29610714Y-113781979D01*
X29610714Y-113401027D01*
X29563095Y-113305789D01*
X29515476Y-113258170D01*
X29420238Y-113210550D01*
X29229761Y-113210550D01*
X29134523Y-113258170D01*
X29086904Y-113305789D01*
X29039285Y-113401027D01*
X29039285Y-113639122D01*
X29086904Y-113734360D01*
X29134523Y-113781979D01*
X29229761Y-113829598D01*
X29420238Y-113829598D01*
X29515476Y-113781979D01*
X29563095Y-113734360D01*
X29610714Y-113639122D01*
%TO.C,R7*%
X23852893Y-107420380D02*
X23519560Y-106944190D01*
X23281464Y-107420380D02*
X23281464Y-106420380D01*
X23662417Y-106420380D01*
X23757655Y-106468000D01*
X23805274Y-106515619D01*
X23852893Y-106610857D01*
X23852893Y-106753714D01*
X23805274Y-106848952D01*
X23757655Y-106896571D01*
X23662417Y-106944190D01*
X23281464Y-106944190D01*
X24186226Y-106420380D02*
X24852893Y-106420380D01*
X24424321Y-107420380D01*
%TO.C,C10*%
X25996142Y-113218312D02*
X25948523Y-113265931D01*
X25805666Y-113313550D01*
X25710428Y-113313550D01*
X25567571Y-113265931D01*
X25472333Y-113170693D01*
X25424714Y-113075455D01*
X25377095Y-112884979D01*
X25377095Y-112742122D01*
X25424714Y-112551646D01*
X25472333Y-112456408D01*
X25567571Y-112361170D01*
X25710428Y-112313550D01*
X25805666Y-112313550D01*
X25948523Y-112361170D01*
X25996142Y-112408789D01*
X26948523Y-113313550D02*
X26377095Y-113313550D01*
X26662809Y-113313550D02*
X26662809Y-112313550D01*
X26567571Y-112456408D01*
X26472333Y-112551646D01*
X26377095Y-112599265D01*
X27567571Y-112313550D02*
X27662809Y-112313550D01*
X27758047Y-112361170D01*
X27805666Y-112408789D01*
X27853285Y-112504027D01*
X27900904Y-112694503D01*
X27900904Y-112932598D01*
X27853285Y-113123074D01*
X27805666Y-113218312D01*
X27758047Y-113265931D01*
X27662809Y-113313550D01*
X27567571Y-113313550D01*
X27472333Y-113265931D01*
X27424714Y-113218312D01*
X27377095Y-113123074D01*
X27329476Y-112932598D01*
X27329476Y-112694503D01*
X27377095Y-112504027D01*
X27424714Y-112408789D01*
X27472333Y-112361170D01*
X27567571Y-112313550D01*
%TO.C,R9*%
X23852893Y-112246380D02*
X23519560Y-111770190D01*
X23281464Y-112246380D02*
X23281464Y-111246380D01*
X23662417Y-111246380D01*
X23757655Y-111294000D01*
X23805274Y-111341619D01*
X23852893Y-111436857D01*
X23852893Y-111579714D01*
X23805274Y-111674952D01*
X23757655Y-111722571D01*
X23662417Y-111770190D01*
X23281464Y-111770190D01*
X24329083Y-112246380D02*
X24519560Y-112246380D01*
X24614798Y-112198761D01*
X24662417Y-112151142D01*
X24757655Y-112008285D01*
X24805274Y-111817809D01*
X24805274Y-111436857D01*
X24757655Y-111341619D01*
X24710036Y-111294000D01*
X24614798Y-111246380D01*
X24424321Y-111246380D01*
X24329083Y-111294000D01*
X24281464Y-111341619D01*
X24233845Y-111436857D01*
X24233845Y-111674952D01*
X24281464Y-111770190D01*
X24329083Y-111817809D01*
X24424321Y-111865428D01*
X24614798Y-111865428D01*
X24710036Y-111817809D01*
X24757655Y-111770190D01*
X24805274Y-111674952D01*
%TO.C,C12*%
X28312142Y-116925312D02*
X28264523Y-116972931D01*
X28121666Y-117020550D01*
X28026428Y-117020550D01*
X27883571Y-116972931D01*
X27788333Y-116877693D01*
X27740714Y-116782455D01*
X27693095Y-116591979D01*
X27693095Y-116449122D01*
X27740714Y-116258646D01*
X27788333Y-116163408D01*
X27883571Y-116068170D01*
X28026428Y-116020550D01*
X28121666Y-116020550D01*
X28264523Y-116068170D01*
X28312142Y-116115789D01*
X29264523Y-117020550D02*
X28693095Y-117020550D01*
X28978809Y-117020550D02*
X28978809Y-116020550D01*
X28883571Y-116163408D01*
X28788333Y-116258646D01*
X28693095Y-116306265D01*
X29645476Y-116115789D02*
X29693095Y-116068170D01*
X29788333Y-116020550D01*
X30026428Y-116020550D01*
X30121666Y-116068170D01*
X30169285Y-116115789D01*
X30216904Y-116211027D01*
X30216904Y-116306265D01*
X30169285Y-116449122D01*
X29597857Y-117020550D01*
X30216904Y-117020550D01*
%TO.C,U6*%
X33536619Y-117289265D02*
X32727095Y-117289265D01*
X32631857Y-117336884D01*
X32584238Y-117384503D01*
X32536619Y-117479741D01*
X32536619Y-117670217D01*
X32584238Y-117765455D01*
X32631857Y-117813074D01*
X32727095Y-117860693D01*
X33536619Y-117860693D01*
X33536619Y-118765455D02*
X33536619Y-118574979D01*
X33489000Y-118479741D01*
X33441380Y-118432122D01*
X33298523Y-118336884D01*
X33108047Y-118289265D01*
X32727095Y-118289265D01*
X32631857Y-118336884D01*
X32584238Y-118384503D01*
X32536619Y-118479741D01*
X32536619Y-118670217D01*
X32584238Y-118765455D01*
X32631857Y-118813074D01*
X32727095Y-118860693D01*
X32965190Y-118860693D01*
X33060428Y-118813074D01*
X33108047Y-118765455D01*
X33155666Y-118670217D01*
X33155666Y-118479741D01*
X33108047Y-118384503D01*
X33060428Y-118336884D01*
X32965190Y-118289265D01*
%TO.C,U5*%
X33536619Y-112463265D02*
X32727095Y-112463265D01*
X32631857Y-112510884D01*
X32584238Y-112558503D01*
X32536619Y-112653741D01*
X32536619Y-112844217D01*
X32584238Y-112939455D01*
X32631857Y-112987074D01*
X32727095Y-113034693D01*
X33536619Y-113034693D01*
X33536619Y-113987074D02*
X33536619Y-113510884D01*
X33060428Y-113463265D01*
X33108047Y-113510884D01*
X33155666Y-113606122D01*
X33155666Y-113844217D01*
X33108047Y-113939455D01*
X33060428Y-113987074D01*
X32965190Y-114034693D01*
X32727095Y-114034693D01*
X32631857Y-113987074D01*
X32584238Y-113939455D01*
X32536619Y-113844217D01*
X32536619Y-113606122D01*
X32584238Y-113510884D01*
X32631857Y-113463265D01*
%TO.C,R4*%
X31889893Y-113838380D02*
X31556560Y-113362190D01*
X31318464Y-113838380D02*
X31318464Y-112838380D01*
X31699417Y-112838380D01*
X31794655Y-112886000D01*
X31842274Y-112933619D01*
X31889893Y-113028857D01*
X31889893Y-113171714D01*
X31842274Y-113266952D01*
X31794655Y-113314571D01*
X31699417Y-113362190D01*
X31318464Y-113362190D01*
X32747036Y-113171714D02*
X32747036Y-113838380D01*
X32508940Y-112790761D02*
X32270845Y-113505047D01*
X32889893Y-113505047D01*
%TO.C,R10*%
X24153702Y-113765380D02*
X23820369Y-113289190D01*
X23582274Y-113765380D02*
X23582274Y-112765380D01*
X23963226Y-112765380D01*
X24058464Y-112813000D01*
X24106083Y-112860619D01*
X24153702Y-112955857D01*
X24153702Y-113098714D01*
X24106083Y-113193952D01*
X24058464Y-113241571D01*
X23963226Y-113289190D01*
X23582274Y-113289190D01*
X25106083Y-113765380D02*
X24534655Y-113765380D01*
X24820369Y-113765380D02*
X24820369Y-112765380D01*
X24725131Y-112908238D01*
X24629893Y-113003476D01*
X24534655Y-113051095D01*
X25725131Y-112765380D02*
X25820369Y-112765380D01*
X25915607Y-112813000D01*
X25963226Y-112860619D01*
X26010845Y-112955857D01*
X26058464Y-113146333D01*
X26058464Y-113384428D01*
X26010845Y-113574904D01*
X25963226Y-113670142D01*
X25915607Y-113717761D01*
X25820369Y-113765380D01*
X25725131Y-113765380D01*
X25629893Y-113717761D01*
X25582274Y-113670142D01*
X25534655Y-113574904D01*
X25487036Y-113384428D01*
X25487036Y-113146333D01*
X25534655Y-112955857D01*
X25582274Y-112860619D01*
X25629893Y-112813000D01*
X25725131Y-112765380D01*
%TO.C,R11*%
X23376702Y-117072380D02*
X23043369Y-116596190D01*
X22805274Y-117072380D02*
X22805274Y-116072380D01*
X23186226Y-116072380D01*
X23281464Y-116120000D01*
X23329083Y-116167619D01*
X23376702Y-116262857D01*
X23376702Y-116405714D01*
X23329083Y-116500952D01*
X23281464Y-116548571D01*
X23186226Y-116596190D01*
X22805274Y-116596190D01*
X24329083Y-117072380D02*
X23757655Y-117072380D01*
X24043369Y-117072380D02*
X24043369Y-116072380D01*
X23948131Y-116215238D01*
X23852893Y-116310476D01*
X23757655Y-116358095D01*
X25281464Y-117072380D02*
X24710036Y-117072380D01*
X24995750Y-117072380D02*
X24995750Y-116072380D01*
X24900512Y-116215238D01*
X24805274Y-116310476D01*
X24710036Y-116358095D01*
%TO.C,J2*%
X38751666Y-122514380D02*
X38751666Y-123228666D01*
X38704047Y-123371523D01*
X38608809Y-123466761D01*
X38465952Y-123514380D01*
X38370714Y-123514380D01*
X39180238Y-122609619D02*
X39227857Y-122562000D01*
X39323095Y-122514380D01*
X39561190Y-122514380D01*
X39656428Y-122562000D01*
X39704047Y-122609619D01*
X39751666Y-122704857D01*
X39751666Y-122800095D01*
X39704047Y-122942952D01*
X39132619Y-123514380D01*
X39751666Y-123514380D01*
%TO.C,C2*%
X33298333Y-106055312D02*
X33250714Y-106102931D01*
X33107857Y-106150550D01*
X33012619Y-106150550D01*
X32869761Y-106102931D01*
X32774523Y-106007693D01*
X32726904Y-105912455D01*
X32679285Y-105721979D01*
X32679285Y-105579122D01*
X32726904Y-105388646D01*
X32774523Y-105293408D01*
X32869761Y-105198170D01*
X33012619Y-105150550D01*
X33107857Y-105150550D01*
X33250714Y-105198170D01*
X33298333Y-105245789D01*
X33679285Y-105245789D02*
X33726904Y-105198170D01*
X33822142Y-105150550D01*
X34060238Y-105150550D01*
X34155476Y-105198170D01*
X34203095Y-105245789D01*
X34250714Y-105341027D01*
X34250714Y-105436265D01*
X34203095Y-105579122D01*
X33631666Y-106150550D01*
X34250714Y-106150550D01*
%TO.C,U1*%
X39884179Y-107722095D02*
X39074655Y-107722095D01*
X38979417Y-107769714D01*
X38931798Y-107817333D01*
X38884179Y-107912571D01*
X38884179Y-108103047D01*
X38931798Y-108198285D01*
X38979417Y-108245904D01*
X39074655Y-108293523D01*
X39884179Y-108293523D01*
X38884179Y-109293523D02*
X38884179Y-108722095D01*
X38884179Y-109007809D02*
X39884179Y-109007809D01*
X39741321Y-108912571D01*
X39646083Y-108817333D01*
X39598464Y-108722095D01*
%TO.C,U3*%
X39932179Y-117374095D02*
X39122655Y-117374095D01*
X39027417Y-117421714D01*
X38979798Y-117469333D01*
X38932179Y-117564571D01*
X38932179Y-117755047D01*
X38979798Y-117850285D01*
X39027417Y-117897904D01*
X39122655Y-117945523D01*
X39932179Y-117945523D01*
X39932179Y-118326476D02*
X39932179Y-118945523D01*
X39551226Y-118612190D01*
X39551226Y-118755047D01*
X39503607Y-118850285D01*
X39455988Y-118897904D01*
X39360750Y-118945523D01*
X39122655Y-118945523D01*
X39027417Y-118897904D01*
X38979798Y-118850285D01*
X38932179Y-118755047D01*
X38932179Y-118469333D01*
X38979798Y-118374095D01*
X39027417Y-118326476D01*
%TO.C,R6*%
X31889893Y-118664380D02*
X31556560Y-118188190D01*
X31318464Y-118664380D02*
X31318464Y-117664380D01*
X31699417Y-117664380D01*
X31794655Y-117712000D01*
X31842274Y-117759619D01*
X31889893Y-117854857D01*
X31889893Y-117997714D01*
X31842274Y-118092952D01*
X31794655Y-118140571D01*
X31699417Y-118188190D01*
X31318464Y-118188190D01*
X32747036Y-117664380D02*
X32556560Y-117664380D01*
X32461321Y-117712000D01*
X32413702Y-117759619D01*
X32318464Y-117902476D01*
X32270845Y-118092952D01*
X32270845Y-118473904D01*
X32318464Y-118569142D01*
X32366083Y-118616761D01*
X32461321Y-118664380D01*
X32651798Y-118664380D01*
X32747036Y-118616761D01*
X32794655Y-118569142D01*
X32842274Y-118473904D01*
X32842274Y-118235809D01*
X32794655Y-118140571D01*
X32747036Y-118092952D01*
X32651798Y-118045333D01*
X32461321Y-118045333D01*
X32366083Y-118092952D01*
X32318464Y-118140571D01*
X32270845Y-118235809D01*
%TO.C,C5*%
X34439893Y-118857142D02*
X34392274Y-118904761D01*
X34249417Y-118952380D01*
X34154179Y-118952380D01*
X34011321Y-118904761D01*
X33916083Y-118809523D01*
X33868464Y-118714285D01*
X33820845Y-118523809D01*
X33820845Y-118380952D01*
X33868464Y-118190476D01*
X33916083Y-118095238D01*
X34011321Y-118000000D01*
X34154179Y-117952380D01*
X34249417Y-117952380D01*
X34392274Y-118000000D01*
X34439893Y-118047619D01*
X35344655Y-117952380D02*
X34868464Y-117952380D01*
X34820845Y-118428571D01*
X34868464Y-118380952D01*
X34963702Y-118333333D01*
X35201798Y-118333333D01*
X35297036Y-118380952D01*
X35344655Y-118428571D01*
X35392274Y-118523809D01*
X35392274Y-118761904D01*
X35344655Y-118857142D01*
X35297036Y-118904761D01*
X35201798Y-118952380D01*
X34963702Y-118952380D01*
X34868464Y-118904761D01*
X34820845Y-118857142D01*
%TO.C,C8*%
X26248333Y-105935312D02*
X26200714Y-105982931D01*
X26057857Y-106030550D01*
X25962619Y-106030550D01*
X25819761Y-105982931D01*
X25724523Y-105887693D01*
X25676904Y-105792455D01*
X25629285Y-105601979D01*
X25629285Y-105459122D01*
X25676904Y-105268646D01*
X25724523Y-105173408D01*
X25819761Y-105078170D01*
X25962619Y-105030550D01*
X26057857Y-105030550D01*
X26200714Y-105078170D01*
X26248333Y-105125789D01*
X26819761Y-105459122D02*
X26724523Y-105411503D01*
X26676904Y-105363884D01*
X26629285Y-105268646D01*
X26629285Y-105221027D01*
X26676904Y-105125789D01*
X26724523Y-105078170D01*
X26819761Y-105030550D01*
X27010238Y-105030550D01*
X27105476Y-105078170D01*
X27153095Y-105125789D01*
X27200714Y-105221027D01*
X27200714Y-105268646D01*
X27153095Y-105363884D01*
X27105476Y-105411503D01*
X27010238Y-105459122D01*
X26819761Y-105459122D01*
X26724523Y-105506741D01*
X26676904Y-105554360D01*
X26629285Y-105649598D01*
X26629285Y-105840074D01*
X26676904Y-105935312D01*
X26724523Y-105982931D01*
X26819761Y-106030550D01*
X27010238Y-106030550D01*
X27105476Y-105982931D01*
X27153095Y-105935312D01*
X27200714Y-105840074D01*
X27200714Y-105649598D01*
X27153095Y-105554360D01*
X27105476Y-105506741D01*
X27010238Y-105459122D01*
D11*
%TO.C,J3*%
X24685000Y-80377000D02*
X24685000Y-78317000D01*
X24685000Y-78317000D02*
X22625000Y-78317000D01*
X22625000Y-78317000D02*
X22625000Y-76257000D01*
X22625000Y-80377000D02*
X22625000Y-79317000D01*
X22625000Y-76257000D02*
X36745000Y-76257000D01*
X36745000Y-80377000D02*
X36745000Y-76257000D01*
X24685000Y-80377000D02*
X36745000Y-80377000D01*
X23685000Y-80377000D02*
X22625000Y-80377000D01*
%TO.C,C1*%
X34450724Y-110368000D02*
X34666396Y-110368000D01*
X34450724Y-109648000D02*
X34666396Y-109648000D01*
%TO.C,C6*%
X33698396Y-116972000D02*
X33482724Y-116972000D01*
X33698396Y-116252000D02*
X33482724Y-116252000D01*
%TO.C,J1*%
X22655000Y-104227000D02*
X22655000Y-122067000D01*
X19995000Y-104227000D02*
X22655000Y-104227000D01*
X19995000Y-101627000D02*
X21325000Y-101627000D01*
X19995000Y-122067000D02*
X22655000Y-122067000D01*
X19995000Y-102957000D02*
X19995000Y-101627000D01*
X19995000Y-104227000D02*
X19995000Y-122067000D01*
%TO.C,R5*%
X30999302Y-118678500D02*
X31473818Y-118678500D01*
X30999302Y-117633500D02*
X31473818Y-117633500D01*
%TO.C,C3*%
X34498724Y-115194000D02*
X34714396Y-115194000D01*
X34498724Y-114474000D02*
X34714396Y-114474000D01*
%TO.C,R12*%
X24559302Y-120091500D02*
X25033818Y-120091500D01*
X24559302Y-119046500D02*
X25033818Y-119046500D01*
%TO.C,C11*%
X27547164Y-119215170D02*
X27762836Y-119215170D01*
X27547164Y-119935170D02*
X27762836Y-119935170D01*
%TO.C,R3*%
X30999302Y-113852500D02*
X31473818Y-113852500D01*
X30999302Y-112807500D02*
X31473818Y-112807500D01*
D12*
%TO.C,U2*%
X32968560Y-112792800D02*
G75*
G03*
X32968560Y-112792800I-100000J0D01*
G01*
D10*
X34928560Y-112462800D02*
X34928560Y-114122800D01*
X34928560Y-114122800D02*
X33268560Y-114122800D01*
X33268560Y-112462800D02*
X34928560Y-112462800D01*
X33268560Y-114122800D02*
X33268560Y-112462800D01*
D11*
%TO.C,J4*%
X25185000Y-96060000D02*
X37245000Y-96060000D01*
X23125000Y-94000000D02*
X23125000Y-91940000D01*
X23125000Y-96060000D02*
X23125000Y-95000000D01*
X37245000Y-96060000D02*
X37245000Y-91940000D01*
X25185000Y-94000000D02*
X23125000Y-94000000D01*
X23125000Y-91940000D02*
X37245000Y-91940000D01*
X25185000Y-96060000D02*
X25185000Y-94000000D01*
X24185000Y-96060000D02*
X23125000Y-96060000D01*
%TO.C,R8*%
X24559302Y-109394500D02*
X25033818Y-109394500D01*
X24559302Y-110439500D02*
X25033818Y-110439500D01*
D12*
%TO.C,U4*%
X25775000Y-107881970D02*
G75*
G03*
X25775000Y-107881970I-100000J0D01*
G01*
D10*
X26075000Y-107551970D02*
X27735000Y-107551970D01*
X27735000Y-107551970D02*
X27735000Y-109211970D01*
X26075000Y-109211970D02*
X26075000Y-107551970D01*
X27735000Y-109211970D02*
X26075000Y-109211970D01*
D11*
%TO.C,R1*%
X30999302Y-107981500D02*
X31473818Y-107981500D01*
X30999302Y-109026500D02*
X31473818Y-109026500D01*
%TO.C,R2*%
X31819302Y-109467500D02*
X32293818Y-109467500D01*
X31819302Y-110512500D02*
X32293818Y-110512500D01*
%TO.C,C4*%
X33726396Y-111426000D02*
X33510724Y-111426000D01*
X33726396Y-112146000D02*
X33510724Y-112146000D01*
%TO.C,C7*%
X27297164Y-110283170D02*
X27512836Y-110283170D01*
X27297164Y-109563170D02*
X27512836Y-109563170D01*
%TO.C,C9*%
X27547164Y-115109170D02*
X27762836Y-115109170D01*
X27547164Y-114389170D02*
X27762836Y-114389170D01*
%TO.C,R7*%
X23782302Y-107875500D02*
X24256818Y-107875500D01*
X23782302Y-108920500D02*
X24256818Y-108920500D01*
%TO.C,C10*%
X26746836Y-112061170D02*
X26531164Y-112061170D01*
X26746836Y-111341170D02*
X26531164Y-111341170D01*
%TO.C,R9*%
X23782302Y-112701500D02*
X24256818Y-112701500D01*
X23782302Y-113746500D02*
X24256818Y-113746500D01*
%TO.C,C12*%
X26718836Y-116167170D02*
X26503164Y-116167170D01*
X26718836Y-116887170D02*
X26503164Y-116887170D01*
D12*
%TO.C,U6*%
X26017000Y-117533970D02*
G75*
G03*
X26017000Y-117533970I-100000J0D01*
G01*
D10*
X26317000Y-117203970D02*
X27977000Y-117203970D01*
X26317000Y-118863970D02*
X26317000Y-117203970D01*
X27977000Y-118863970D02*
X26317000Y-118863970D01*
X27977000Y-117203970D02*
X27977000Y-118863970D01*
D12*
%TO.C,U5*%
X26017000Y-112707970D02*
G75*
G03*
X26017000Y-112707970I-100000J0D01*
G01*
D10*
X27977000Y-112377970D02*
X27977000Y-114037970D01*
X26317000Y-114037970D02*
X26317000Y-112377970D01*
X27977000Y-114037970D02*
X26317000Y-114037970D01*
X26317000Y-112377970D02*
X27977000Y-112377970D01*
D11*
%TO.C,R4*%
X31819302Y-114293500D02*
X32293818Y-114293500D01*
X31819302Y-115338500D02*
X32293818Y-115338500D01*
%TO.C,R10*%
X24559302Y-115265500D02*
X25033818Y-115265500D01*
X24559302Y-114220500D02*
X25033818Y-114220500D01*
%TO.C,R11*%
X23782302Y-117527500D02*
X24256818Y-117527500D01*
X23782302Y-118572500D02*
X24256818Y-118572500D01*
%TO.C,J2*%
X37755000Y-119462000D02*
X37755000Y-101622000D01*
X40415000Y-119462000D02*
X37755000Y-119462000D01*
X40415000Y-122062000D02*
X39085000Y-122062000D01*
X40415000Y-101622000D02*
X37755000Y-101622000D01*
X40415000Y-119462000D02*
X40415000Y-101622000D01*
X40415000Y-120732000D02*
X40415000Y-122062000D01*
%TO.C,C2*%
X33650396Y-106600000D02*
X33434724Y-106600000D01*
X33650396Y-107320000D02*
X33434724Y-107320000D01*
D12*
%TO.C,U1*%
X32920560Y-107966800D02*
G75*
G03*
X32920560Y-107966800I-100000J0D01*
G01*
D10*
X34880560Y-109296800D02*
X33220560Y-109296800D01*
X34880560Y-107636800D02*
X34880560Y-109296800D01*
X33220560Y-107636800D02*
X34880560Y-107636800D01*
X33220560Y-109296800D02*
X33220560Y-107636800D01*
D12*
%TO.C,U3*%
X32968560Y-117618800D02*
G75*
G03*
X32968560Y-117618800I-100000J0D01*
G01*
D10*
X33268560Y-118948800D02*
X33268560Y-117288800D01*
X34928560Y-118948800D02*
X33268560Y-118948800D01*
X33268560Y-117288800D02*
X34928560Y-117288800D01*
X34928560Y-117288800D02*
X34928560Y-118948800D01*
D11*
%TO.C,R6*%
X31819302Y-119119500D02*
X32293818Y-119119500D01*
X31819302Y-120164500D02*
X32293818Y-120164500D01*
%TO.C,C5*%
X34498724Y-119300000D02*
X34714396Y-119300000D01*
X34498724Y-120020000D02*
X34714396Y-120020000D01*
%TO.C,C8*%
X26512836Y-107235170D02*
X26297164Y-107235170D01*
X26512836Y-106515170D02*
X26297164Y-106515170D01*
%TD*%
%LPC*%
D13*
%TO.C,M6*%
X37579867Y-68562000D03*
X37569867Y-67222000D03*
%TD*%
D14*
%TO.C,M1*%
X21720134Y-53192000D03*
X21730134Y-54532000D03*
%TD*%
D13*
%TO.C,M4*%
X37579867Y-54562000D03*
X37569867Y-53222000D03*
%TD*%
%TO.C,M5*%
X37589867Y-61562000D03*
X37579867Y-60222000D03*
%TD*%
D14*
%TO.C,M3*%
X21740134Y-67212000D03*
X21750134Y-68552000D03*
%TD*%
%TO.C,M2*%
X21730134Y-60192000D03*
X21740134Y-61532000D03*
%TD*%
D15*
%TO.C,J3*%
X23685000Y-79317000D03*
D16*
X23685000Y-77317000D03*
X25685000Y-79317000D03*
X25685000Y-77317000D03*
X27685000Y-79317000D03*
X27685000Y-77317000D03*
X29685000Y-79317000D03*
X29685000Y-77317000D03*
X31685000Y-79317000D03*
X31685000Y-77317000D03*
X33685000Y-79317000D03*
X33685000Y-77317000D03*
X35685000Y-79317000D03*
X35685000Y-77317000D03*
%TD*%
D17*
%TO.C,C1*%
X35038560Y-110008000D03*
X34078560Y-110008000D03*
%TD*%
D18*
%TO.C,C6*%
X33110560Y-116612000D03*
X34070560Y-116612000D03*
%TD*%
D19*
%TO.C,J1*%
X21325000Y-120737000D03*
X21325000Y-118197000D03*
X21325000Y-115657000D03*
X21325000Y-113117000D03*
X21325000Y-110577000D03*
X21325000Y-108037000D03*
X21325000Y-105497000D03*
D20*
X21325000Y-102957000D03*
%TD*%
D21*
%TO.C,R5*%
X32061560Y-118156000D03*
X30411560Y-118156000D03*
%TD*%
D17*
%TO.C,C3*%
X35086560Y-114834000D03*
X34126560Y-114834000D03*
%TD*%
D21*
%TO.C,R12*%
X25621560Y-119569000D03*
X23971560Y-119569000D03*
%TD*%
D17*
%TO.C,C11*%
X28135000Y-119575170D03*
X27175000Y-119575170D03*
%TD*%
D21*
%TO.C,R3*%
X32061560Y-113330000D03*
X30411560Y-113330000D03*
%TD*%
D22*
%TO.C,U2*%
X34098560Y-113792800D03*
X34598560Y-113792800D03*
X34598560Y-113292800D03*
X34598560Y-112792800D03*
X33598560Y-112792800D03*
X33598560Y-113292800D03*
X34098560Y-113292800D03*
X33598560Y-113792800D03*
X34098560Y-112792800D03*
%TD*%
D16*
%TO.C,J4*%
X36185000Y-93000000D03*
X36185000Y-95000000D03*
X34185000Y-93000000D03*
X34185000Y-95000000D03*
X32185000Y-93000000D03*
X32185000Y-95000000D03*
X30185000Y-93000000D03*
X30185000Y-95000000D03*
X28185000Y-93000000D03*
X28185000Y-95000000D03*
X26185000Y-93000000D03*
X26185000Y-95000000D03*
X24185000Y-93000000D03*
D15*
X24185000Y-95000000D03*
%TD*%
D21*
%TO.C,R8*%
X25621560Y-109917000D03*
X23971560Y-109917000D03*
%TD*%
D22*
%TO.C,U4*%
X26905000Y-108881970D03*
X27405000Y-108881970D03*
X27405000Y-108381970D03*
X27405000Y-107881970D03*
X26405000Y-107881970D03*
X26405000Y-108381970D03*
X26905000Y-108381970D03*
X26405000Y-108881970D03*
X26905000Y-107881970D03*
%TD*%
D21*
%TO.C,R1*%
X32061560Y-108504000D03*
X30411560Y-108504000D03*
%TD*%
%TO.C,R2*%
X32881560Y-109990000D03*
X31231560Y-109990000D03*
%TD*%
D18*
%TO.C,C4*%
X33138560Y-111786000D03*
X34098560Y-111786000D03*
%TD*%
D17*
%TO.C,C7*%
X27885000Y-109923170D03*
X26925000Y-109923170D03*
%TD*%
%TO.C,C9*%
X28135000Y-114749170D03*
X27175000Y-114749170D03*
%TD*%
D21*
%TO.C,R7*%
X24844560Y-108398000D03*
X23194560Y-108398000D03*
%TD*%
D18*
%TO.C,C10*%
X26159000Y-111701170D03*
X27119000Y-111701170D03*
%TD*%
D21*
%TO.C,R9*%
X24844560Y-113224000D03*
X23194560Y-113224000D03*
%TD*%
D18*
%TO.C,C12*%
X26131000Y-116527170D03*
X27091000Y-116527170D03*
%TD*%
D22*
%TO.C,U6*%
X27147000Y-118533970D03*
X27647000Y-118533970D03*
X27647000Y-118033970D03*
X27647000Y-117533970D03*
X26647000Y-117533970D03*
X26647000Y-118033970D03*
X27147000Y-118033970D03*
X26647000Y-118533970D03*
X27147000Y-117533970D03*
%TD*%
%TO.C,U5*%
X27147000Y-113707970D03*
X27647000Y-113707970D03*
X27647000Y-113207970D03*
X27647000Y-112707970D03*
X26647000Y-112707970D03*
X26647000Y-113207970D03*
X27147000Y-113207970D03*
X26647000Y-113707970D03*
X27147000Y-112707970D03*
%TD*%
D21*
%TO.C,R4*%
X32881560Y-114816000D03*
X31231560Y-114816000D03*
%TD*%
%TO.C,R10*%
X25621560Y-114743000D03*
X23971560Y-114743000D03*
%TD*%
%TO.C,R11*%
X24844560Y-118050000D03*
X23194560Y-118050000D03*
%TD*%
D19*
%TO.C,J2*%
X39085000Y-102952000D03*
X39085000Y-105492000D03*
X39085000Y-108032000D03*
X39085000Y-110572000D03*
X39085000Y-113112000D03*
X39085000Y-115652000D03*
X39085000Y-118192000D03*
D20*
X39085000Y-120732000D03*
%TD*%
D18*
%TO.C,C2*%
X33062560Y-106960000D03*
X34022560Y-106960000D03*
%TD*%
D22*
%TO.C,U1*%
X34050560Y-108966800D03*
X34550560Y-108966800D03*
X34550560Y-108466800D03*
X34550560Y-107966800D03*
X33550560Y-107966800D03*
X33550560Y-108466800D03*
X34050560Y-108466800D03*
X33550560Y-108966800D03*
X34050560Y-107966800D03*
%TD*%
%TO.C,U3*%
X34098560Y-118618800D03*
X34598560Y-118618800D03*
X34598560Y-118118800D03*
X34598560Y-117618800D03*
X33598560Y-117618800D03*
X33598560Y-118118800D03*
X34098560Y-118118800D03*
X33598560Y-118618800D03*
X34098560Y-117618800D03*
%TD*%
D21*
%TO.C,R6*%
X32881560Y-119642000D03*
X31231560Y-119642000D03*
%TD*%
D17*
%TO.C,C5*%
X35086560Y-119660000D03*
X34126560Y-119660000D03*
%TD*%
D18*
%TO.C,C8*%
X25925000Y-106875170D03*
X26885000Y-106875170D03*
%TD*%
D23*
X35105000Y-108258170D03*
X35993000Y-119680170D03*
X27951000Y-115735170D03*
X35245560Y-118114000D03*
X29005000Y-119577170D03*
X27905000Y-110858170D03*
X25058000Y-106868170D03*
X28368540Y-112928170D03*
X34833037Y-115828439D03*
X34832000Y-110991170D03*
X28296000Y-118021170D03*
D24*
X28005000Y-108388170D03*
D23*
X35231000Y-113050170D03*
X32017000Y-107007170D03*
X34129000Y-115649170D03*
D24*
X34127000Y-120534170D03*
X27173000Y-115516170D03*
D23*
X27176000Y-120408170D03*
D24*
X34085000Y-110826170D03*
D23*
X27005000Y-110658170D03*
X31235000Y-109038170D03*
X30375000Y-107428170D03*
M02*
