%TF.GenerationSoftware,KiCad,Pcbnew,(6.0.0)*%
%TF.CreationDate,2022-06-29T15:28:05+09:00*%
%TF.ProjectId,TipLets_Board,5469704c-6574-4735-9f42-6f6172642e6b,rev?*%
%TF.SameCoordinates,Original*%
%TF.FileFunction,Legend,Bot*%
%TF.FilePolarity,Positive*%
%FSLAX46Y46*%
G04 Gerber Fmt 4.6, Leading zero omitted, Abs format (unit mm)*
G04 Created by KiCad (PCBNEW (6.0.0)) date 2022-06-29 15:28:05*
%MOMM*%
%LPD*%
G01*
G04 APERTURE LIST*
G04 Aperture macros list*
%AMRoundRect*
0 Rectangle with rounded corners*
0 $1 Rounding radius*
0 $2 $3 $4 $5 $6 $7 $8 $9 X,Y pos of 4 corners*
0 Add a 4 corners polygon primitive as box body*
4,1,4,$2,$3,$4,$5,$6,$7,$8,$9,$2,$3,0*
0 Add four circle primitives for the rounded corners*
1,1,$1+$1,$2,$3*
1,1,$1+$1,$4,$5*
1,1,$1+$1,$6,$7*
1,1,$1+$1,$8,$9*
0 Add four rect primitives between the rounded corners*
20,1,$1+$1,$2,$3,$4,$5,0*
20,1,$1+$1,$4,$5,$6,$7,0*
20,1,$1+$1,$6,$7,$8,$9,0*
20,1,$1+$1,$8,$9,$2,$3,0*%
G04 Aperture macros list end*
%ADD10C,0.150000*%
%ADD11R,1.350000X1.350000*%
%ADD12O,1.350000X1.350000*%
%ADD13O,1.700000X1.700000*%
%ADD14R,1.700000X1.700000*%
%ADD15RoundRect,1.015000X-1.015000X-1.015000X1.015000X-1.015000X1.015000X1.015000X-1.015000X1.015000X0*%
%ADD16C,0.600000*%
%ADD17C,0.500000*%
G04 APERTURE END LIST*
D10*
%TO.C,B1*%
X29820238Y-131025637D02*
X29963095Y-130978018D01*
X30010714Y-130930399D01*
X30058333Y-130835161D01*
X30058333Y-130692304D01*
X30010714Y-130597066D01*
X29963095Y-130549447D01*
X29867857Y-130501828D01*
X29486904Y-130501828D01*
X29486904Y-131501828D01*
X29820238Y-131501828D01*
X29915476Y-131454209D01*
X29963095Y-131406589D01*
X30010714Y-131311351D01*
X30010714Y-131216113D01*
X29963095Y-131120875D01*
X29915476Y-131073256D01*
X29820238Y-131025637D01*
X29486904Y-131025637D01*
X31010714Y-130501828D02*
X30439285Y-130501828D01*
X30725000Y-130501828D02*
X30725000Y-131501828D01*
X30629761Y-131358970D01*
X30534523Y-131263732D01*
X30439285Y-131216113D01*
%TD*%
%LPC*%
D11*
%TO.C,J3*%
X23685000Y-79317000D03*
D12*
X23685000Y-77317000D03*
X25685000Y-79317000D03*
X25685000Y-77317000D03*
X27685000Y-79317000D03*
X27685000Y-77317000D03*
X29685000Y-79317000D03*
X29685000Y-77317000D03*
X31685000Y-79317000D03*
X31685000Y-77317000D03*
X33685000Y-79317000D03*
X33685000Y-77317000D03*
X35685000Y-79317000D03*
X35685000Y-77317000D03*
%TD*%
D13*
%TO.C,J1*%
X21325000Y-120737000D03*
X21325000Y-118197000D03*
X21325000Y-115657000D03*
X21325000Y-113117000D03*
X21325000Y-110577000D03*
X21325000Y-108037000D03*
X21325000Y-105497000D03*
D14*
X21325000Y-102957000D03*
%TD*%
D12*
%TO.C,J4*%
X36185000Y-93000000D03*
X36185000Y-95000000D03*
X34185000Y-93000000D03*
X34185000Y-95000000D03*
X32185000Y-93000000D03*
X32185000Y-95000000D03*
X30185000Y-93000000D03*
X30185000Y-95000000D03*
X28185000Y-93000000D03*
X28185000Y-95000000D03*
X26185000Y-93000000D03*
X26185000Y-95000000D03*
X24185000Y-93000000D03*
D11*
X24185000Y-95000000D03*
%TD*%
D13*
%TO.C,J2*%
X39085000Y-102952000D03*
X39085000Y-105492000D03*
X39085000Y-108032000D03*
X39085000Y-110572000D03*
X39085000Y-113112000D03*
X39085000Y-115652000D03*
X39085000Y-118192000D03*
D14*
X39085000Y-120732000D03*
%TD*%
D15*
%TO.C,B1*%
X30185000Y-127394209D03*
X40730000Y-127394209D03*
X19640000Y-127394209D03*
%TD*%
D16*
X35105000Y-108258170D03*
X35993000Y-119680170D03*
X27951000Y-115735170D03*
X35245560Y-118114000D03*
X29005000Y-119577170D03*
X27905000Y-110858170D03*
X25058000Y-106868170D03*
X28368540Y-112928170D03*
X34833037Y-115828439D03*
X34832000Y-110991170D03*
X28296000Y-118021170D03*
D17*
X28005000Y-108388170D03*
D16*
X35231000Y-113050170D03*
X32017000Y-107007170D03*
X34129000Y-115649170D03*
D17*
X34127000Y-120534170D03*
X27173000Y-115516170D03*
D16*
X27176000Y-120408170D03*
D17*
X34085000Y-110826170D03*
D16*
X27005000Y-110658170D03*
X31235000Y-109038170D03*
X30375000Y-107428170D03*
M02*
