%TF.GenerationSoftware,KiCad,Pcbnew,(6.0.0)*%
%TF.CreationDate,2022-06-29T15:28:05+09:00*%
%TF.ProjectId,TipLets_Board,5469704c-6574-4735-9f42-6f6172642e6b,rev?*%
%TF.SameCoordinates,Original*%
%TF.FileFunction,Other,Comment*%
%FSLAX46Y46*%
G04 Gerber Fmt 4.6, Leading zero omitted, Abs format (unit mm)*
G04 Created by KiCad (PCBNEW (6.0.0)) date 2022-06-29 15:28:05*
%MOMM*%
%LPD*%
G01*
G04 APERTURE LIST*
%ADD10C,0.100000*%
%ADD11C,0.200000*%
G04 APERTURE END LIST*
D10*
X20685002Y-89817000D02*
X39685000Y-89817002D01*
X17885000Y-48712000D02*
X41285000Y-48712000D01*
X41285000Y-48712000D02*
X41285000Y-85522000D01*
X41285000Y-85522000D02*
X17885000Y-85522000D01*
X17885000Y-85522000D02*
X17885000Y-48712000D01*
X20685002Y-90817000D02*
G75*
G03*
X18685002Y-92817000I-1J-1999999D01*
G01*
X22465000Y-50047000D02*
X36855000Y-50047000D01*
X36855000Y-50047000D02*
X36855000Y-71977000D01*
X36855000Y-71977000D02*
X22465000Y-71977000D01*
X22465000Y-71977000D02*
X22465000Y-50047000D01*
X42685000Y-92817002D02*
G75*
G03*
X39685000Y-89817002I-3000001J-1D01*
G01*
X20685002Y-90817000D02*
X39685000Y-90817000D01*
X17685002Y-126816998D02*
X17685002Y-92817000D01*
X39685000Y-129816998D02*
G75*
G03*
X42685000Y-126816998I-1J3000001D01*
G01*
X19761476Y-99917000D02*
X40261476Y-99917000D01*
X40261476Y-99917000D02*
X40261476Y-125217000D01*
X40261476Y-125217000D02*
X19761476Y-125217000D01*
X19761476Y-125217000D02*
X19761476Y-99917000D01*
X20685002Y-89817000D02*
G75*
G03*
X17685002Y-92817000I1J-3000001D01*
G01*
X18685002Y-126816998D02*
X18685002Y-92817000D01*
X39685000Y-129816998D02*
X20685002Y-129816998D01*
X39685000Y-128816998D02*
G75*
G03*
X41685000Y-126816998I1J1999999D01*
G01*
X42685000Y-126816998D02*
X42685000Y-92817002D01*
X41685000Y-92817000D02*
X41685000Y-126816998D01*
X39685000Y-128816998D02*
X20685002Y-128816998D01*
X18685002Y-126816998D02*
G75*
G03*
X20685002Y-128816998I1999999J-1D01*
G01*
X41685000Y-92817000D02*
G75*
G03*
X39685000Y-90817000I-1999999J1D01*
G01*
X17685002Y-126816998D02*
G75*
G03*
X20685002Y-129816998I3000001J1D01*
G01*
D11*
%TO.C,U2*%
X33598560Y-112792800D02*
G75*
G03*
X33598560Y-112792800I-100000J0D01*
G01*
%TO.C,U4*%
X26405000Y-107881970D02*
G75*
G03*
X26405000Y-107881970I-100000J0D01*
G01*
%TO.C,U6*%
X26647000Y-117533970D02*
G75*
G03*
X26647000Y-117533970I-100000J0D01*
G01*
%TO.C,U5*%
X26647000Y-112707970D02*
G75*
G03*
X26647000Y-112707970I-100000J0D01*
G01*
%TO.C,U1*%
X33550560Y-107966800D02*
G75*
G03*
X33550560Y-107966800I-100000J0D01*
G01*
%TO.C,U3*%
X33598560Y-117618800D02*
G75*
G03*
X33598560Y-117618800I-100000J0D01*
G01*
%TD*%
M02*
